<?xml version="1.0" encoding="utf-8"?>
<!-- Generator: Adobe Illustrator 24.0.0, SVG Export Plug-In . SVG Version: 6.00 Build 0)  -->
<svg version="1.1" id="Layer_1" xmlns="http://www.w3.org/2000/svg" xmlns:xlink="http://www.w3.org/1999/xlink" x="0px" y="0px"
	 viewBox="0 0 512 512" style="enable-background:new 0 0 512 512;" xml:space="preserve">
<style type="text/css">
	.st0{fill:#2A6592;}
	.st1{fill:#FFFFFF;}
</style>
<rect class="st0" width="512" height="512"/>
<path class="st1" d="M426.13,215.7c0.19-14.25,0.8-28.49,1.84-42.72c1.04-14.22,2-28.37,2.9-42.46c0.89-14.09,0.92-27.99,0.08-41.72
	c-1.45-6.05-3.59-9.64-6.39-10.76c-2.81-1.12-5.93-1.32-9.39-0.62c-3.45,0.71-6.98,1.34-10.57,1.9c-3.6,0.56-6.75-0.78-9.46-4.04
	c-9.37,5.59-19.78,8.64-31.21,9.14c-11.44,0.51-23.28,0.5-35.52-0.03c-9.78,14.99-19.51,30.69-29.2,47.1
	c-9.69,16.42-19.42,31.98-29.18,46.68c-4.24-7.6-9.15-14.66-14.71-21.18c-5.57-6.51-11.44-12.69-17.61-18.52
	c-6.17-5.83-12.48-11.67-18.93-17.51c-6.46-5.84-12.54-11.88-18.26-18.12c-3.08-1.56-6.4-2.2-9.98-1.93
	c-3.58,0.27-7.67,0.67-12.25,1.18c-4.59,0.52-9.53,0.87-14.81,1.07c-5.29,0.2-10.88-0.68-16.79-2.65c-1.5,1.65-3.69,2.84-6.57,3.57
	c-2.89,0.73-5.83,1.25-8.84,1.55c-3.01,0.3-5.87,0.39-8.57,0.27c-2.71-0.12-4.77-0.21-6.19-0.27c-0.06,1.43,0.18,2.29,0.74,2.6
	c0.55,0.31,1.26,0.48,2.12,0.52c0.85,0.04,1.55,0.21,2.12,0.52c0.55,0.31,0.8,1.18,0.74,2.6c-4.88,7.21-8.54,14.54-11,22
	c-2.46,7.46-4.56,14.86-6.3,22.2c-1.75,7.35-3.78,14.75-6.09,22.21c-2.32,7.46-5.93,14.94-10.81,22.43
	c2.48,15.23,4.61,30.37,6.39,45.43c1.77,15.06,2.34,30.27,1.67,45.65c0.91,12.02,1.02,24.37,0.33,37.03
	c-0.69,12.67-1.3,25.2-1.83,37.58c-0.53,12.39-0.41,24.52,0.36,36.39c0.77,11.87,3.21,23.18,7.32,33.91
	c4.61-1.23,9.54-2.8,14.75-4.71c5.22-1.92,10.5-3.69,15.85-5.31c5.35-1.63,10.61-2.97,15.79-4.03c5.18-1.06,10.05-1.49,14.61-1.3
	c12.49-11.73,20.7-23.58,24.64-35.53c3.94-11.96,5.97-24.35,6.09-37.19c0.12-12.83-0.45-26.13-1.71-39.88
	c-1.27-13.75-0.86-28.14,1.22-43.17c2.93,4.69,6.45,9.12,10.55,13.29c4.1,4.17,8.35,8.21,12.75,12.1c4.39,3.9,8.58,7.86,12.54,11.88
	c3.96,4.02,7.41,8.38,10.35,13.07c3.07,1.56,6.12,1.98,9.15,1.25c3.03-0.72,6.06-1.59,9.1-2.6c3.04-1.01,6.06-1.52,9.05-1.54
	c3-0.01,6,1.48,9.01,4.45l12.65-5.45l-6.15-6.26c1.97-5.91,4.4-11.22,7.32-15.95c2.91-4.72,5.96-9.3,9.15-13.73
	c3.19-4.42,6.3-8.93,9.35-13.51c3.05-4.58,5.41-9.82,7.1-15.74c2.48,15.23,4.61,30.37,6.39,45.43c1.77,15.05,2.34,30.27,1.67,45.65
	c1.52,4.35,2.26,8.8,2.21,13.36c-0.06,4.57-0.18,9.05-0.37,13.46c-0.19,4.42-0.24,8.91-0.15,13.48c0.08,4.56,0.89,9.17,2.4,13.8
	c-2.06,1.34-3.68,2.55-4.86,3.64c-0.9,1.1-1.17,2.37-0.81,3.82c0.37,1.44,2.08,2.94,5.16,4.5c6.18-4.3,12.27-6.68,18.28-7.13
	c6.01-0.46,12.01-0.55,17.99-0.3c5.98,0.26,11.98,0.15,17.99-0.3c6.01-0.46,12.11-2.84,18.28-7.13l-5.71-6.66l31.86-34.15
	c-1.1-7.75-1.34-15.39-0.72-22.93c0.61-7.53,1.5-15.05,2.68-22.57c1.18-7.51,2.07-15.03,2.68-22.57c0.61-7.53,0.36-15.03-0.74-22.5
	C427.12,243.99,425.94,229.96,426.13,215.7z M103.31,412.38c0.65-15.1,1.25-30.76,1.81-47c0.55-16.24,0.83-32.63,0.83-49.18
	c0-16.54-0.5-33.04-1.51-49.5c-1-16.45-2.75-32.28-5.23-47.52c-1.1-7.75-1.2-15.39-0.3-22.91c0.89-7.52,2.42-14.94,4.6-22.27
	c2.17-7.32,4.84-14.7,8.01-22.12c3.17-7.42,6.48-14.77,9.94-22.04c1.03,42.28,0.97,83.5-0.19,123.68
	c-1.16,40.18-2.64,81.35-4.46,123.49c-0.26,5.98-1.73,11.91-4.4,17.79C109.73,400.67,106.7,406.53,103.31,412.38z M171.62,396.49
	c-3.13,6.43-7.81,12.5-14.05,18.23L115,419.3c0.27-6.27,1.07-13.37,2.41-21.3c1.34-7.93,5.13-14.76,11.37-20.48
	c8.98,3.52,17.79,4.4,26.42,2.64c8.64-1.77,15.87-4.1,21.7-6.98C176.51,382.29,174.74,390.05,171.62,396.49z M243.67,278.68
	c-0.68,5.82-3.73,12.18-9.17,19.08c-7.21-4.87-13.67-10.43-19.4-16.67c-5.72-6.24-10.29-13-13.68-20.28
	c-3.4-7.28-5.63-15.08-6.7-23.4c-1.07-8.32-0.7-17,1.12-26.06l0.51-11.96c1.73,6.07,4.63,11.75,8.68,17.07
	c4.05,5.31,8.39,10.49,13.03,15.54c4.63,5.05,9.12,10.02,13.48,14.92c4.35,4.89,7.63,9.96,9.83,15.19
	C243.58,267.33,244.34,272.86,243.67,278.68z M282.66,287.63c-1.83,6.06-5.86,11.94-12.1,17.67c-3.14-0.13-6.45,0.73-9.95,2.57
	c-3.5,1.85-8.25,2.64-14.23,2.38l7.28-30.07c6.12-2.87,12.18-4.61,18.2-5.21c6.02-0.6,12.22-2.32,18.63-5.19
	C287.09,275.63,284.48,281.58,282.66,287.63z M330.37,307.66c-0.62-12.15-1.52-24.31-2.71-36.49c-1.19-12.18-3.09-24.32-5.71-36.41
	l20.45-47.48c0.91,12.02,1.61,23.76,2.12,35.19c0.5,11.44,1.09,22.66,1.76,33.67c0.66,11.02,1.55,21.89,2.66,32.64
	c1.1,10.75,2.99,21.46,5.68,32.13c-0.53,12.25-2.48,22.94-5.87,32.06c-3.39,9.13-8.27,18.12-14.64,26.98
	c-0.91-12.02-1.61-24.04-2.09-36.04C331.53,331.89,330.98,319.82,330.37,307.66z M381.68,388.4c-9.12-0.39-17.1-0.52-23.95-0.39
	c-6.85,0.13-14.9,1.57-24.15,4.31c3.3-10.42,8.18-17.76,14.64-22.05c6.46-4.28,13.5-7.19,21.13-8.72c7.62-1.52,15.3-2.55,23.03-3.08
	c7.72-0.52,14.64-2.08,20.74-4.67L381.68,388.4z"/>
</svg>
