<svg version="1.1" xmlns="http://www.w3.org/2000/svg" xmlns:xlink="http://www.w3.org/1999/xlink" x="0px" y="0px"
	 viewBox="0 0 248 189" style="enable-background:new 0 0 248 189;" xml:space="preserve">
<style type="text/css">
	.st0{fill-rule:evenodd;clip-rule:evenodd;fill:none;stroke:#D00A2C;stroke-width:7;stroke-miterlimit:10;}
	.st1{fill-rule:evenodd;clip-rule:evenodd;fill:none;stroke:#FFFFFF;stroke-width:7;stroke-miterlimit:10;}
	.st2{fill:none;stroke:#FFFFFF;stroke-width:7;stroke-miterlimit:10;}
</style>
<polyline class="st0" points="155.5,98.4 155.5,162.4 124,141.3 92.5,162.4 92.5,98.4 "/>
<polyline class="st0" points="92.5,46.4 92.5,9.7 155.5,9.7 155.5,45.1 "/>
<title>Group 45</title>
<path id="Fill-3_4_" class="st1" d="M105,65.8l10.6-19.1l-1.1-0.7l-14.1-8.9l-1.1-0.7L86.6,54.1c-13.9,20.8-30.1,27.2-37,38
	L9.9,154.9c-2,3.1-1,7.3,2.1,9.2l25.5,16.1c3.1,2,7.3,1,9.2-2.1l39.7-62.7C93.3,104.6,92.1,87.2,105,65.8"/>
<line id="Fill-11_4_" class="st2" x1="93.9" y1="45.1" x2="110" y2="55.3"/>
<line id="Fill-15_4_" class="st2" x1="80.3" y1="63.3" x2="99.4" y2="75.4"/>
<line id="Fill-19_4_" class="st2" x1="97.3" y1="31.5" x2="120.8" y2="46.4"/>
<path class="st1" d="M58.2,104.8c-9.4,0-21,7.4-28.6,19.4c-9.9,15.6-9.9,34,0,40.3c9.9,6.2,26.5-1.7,36.4-17.2
	c9.9-15.6,9.9-34,0-40.3C63.7,105.5,61,104.8,58.2,104.8"/>
<path id="Fill-3_3_" class="st1" d="M143,65.8c12.8,21.4,11.7,38.8,18.6,49.7l39.7,62.7c2,3.1,6.1,4,9.2,2.1l25.5-16.1
	c3.1-2,4-6.1,2.1-9.2l-39.7-62.7c-6.9-10.9-23.1-17.3-37-38l-12.7-17.7l-1.1,0.7L133.6,46l-1.1,0.7L143,65.8"/>
<line id="Fill-11_3_" class="st2" x1="138" y1="55.3" x2="154.1" y2="45.1"/>
<line id="Fill-15_3_" class="st2" x1="148.6" y1="75.4" x2="167.7" y2="63.3"/>
<line id="Fill-19_3_" class="st2" x1="127.2" y1="46.4" x2="150.7" y2="31.5"/>
<path class="st1" d="M189.8,104.8c-2.9,0-5.5,0.7-7.8,2.1c-9.9,6.2-9.9,24.7,0,40.3c9.9,15.6,26.5,23.5,36.4,17.2
	c9.9-6.2,9.9-24.7,0-40.3C210.8,112.2,199.3,104.8,189.8,104.8"/>
</svg>
