<?xml version="1.0" encoding="utf-8"?>
<!-- Generator: Adobe Illustrator 24.0.0, SVG Export Plug-In . SVG Version: 6.00 Build 0)  -->
<svg version="1.1" id="Layer_1" xmlns="http://www.w3.org/2000/svg" xmlns:xlink="http://www.w3.org/1999/xlink" x="0px" y="0px"
	 viewBox="0 0 600 400" style="enable-background:new 0 0 600 400;" xml:space="preserve">
<style type="text/css">
	.st0{fill:#283280;}
	.st1{fill:#D1212F;}
	.st2{fill:#A41D36;}
</style>
<g>
	<path class="st0" d="M236.1,210.7c-1.3-0.7-1.4-0.7-1.8,0.8c-0.8,3.2-1.7,6.3-3.1,9.3c-1.7,3.3-4.4,5.4-8.1,6
		c-0.9,0.2-1.8,0.3-2.8,0.4c-12.3,0.6-24.7,0.1-37.1,0.3c-1,0-1.3-0.4-1.2-1.3c0-0.3,0-0.7,0-1c0-28.1,0-56.2,0-84.4
		c0-0.8,0-1.6,0-2.3c0.4-6.3,4-9.8,10.4-10.1c0.3,0,0.5,0,0.8,0c1.3-0.3,0.6-1.4,0.7-2.1c0.1-0.6,0.5-1.5-0.7-1.7
		c-0.1,0-0.3,0-0.4,0c-0.3,0-0.5,0-0.8,0c-12.6,0-25.1,0-37.7,0c-0.6,0-1.6-0.4-1.7,0.4c-0.2,0.9-0.4,1.8,0.4,2.7
		c0.7,0.7,1.3,0.7,2,0.8c5.3,0.6,8.5,3.8,9.1,9c0.1,1,0.2,2.1,0.2,3.1c0,26.7,0,53.4,0,80.1c0,1.3-0.1,2.6-0.4,3.9
		c-0.7,3.8-2.9,6.3-6.8,7.4c-1.5,0.4-3.1,0.6-4.7,0.7c-1.7,0-1.8-0.3-1.7,1.7c0,2.4-0.1,2.1,2.1,2.1c13.2,0,26.4,0,39.7,0
		c5,0,10.1,0,15.1,0c8.4,0,16.7,0,25.1,0c1.5,0,1.7,0.2,1.9-1.7c0.8-6.7,1.8-13.4,3.2-20.1C238.7,211.4,238.8,212.2,236.1,210.7z
		 M173.2,218.6c-0.8,0-1-0.4-1-1.1c0-0.5,0-0.9,0-1.4c0-12.2,0-24.4,0-36.6c0-12.2,0-24.4,0-36.6c0-0.5,0-1,0-1.6
		c0-0.8,0.5-0.8,1.1-0.8c0.7,0,1,0.2,1,0.9c0,0.5,0,0.9,0,1.4c0,24.5,0,49.1,0,73.6c0,0.4,0,0.8,0,1.2
		C174.3,218.4,173.9,218.6,173.2,218.6z"/>
	<path class="st0" d="M346.8,125.9c0-1-0.3-1.5-1.4-1.3c-0.3,0-0.7,0-1,0c-33.6,0-67.2,0-100.8,0c-0.5,0-0.9,0-1.4,0
		c-0.6,0-0.8,0.3-0.8,0.8c0,0.4-0.1,0.8-0.1,1.2c-0.2,6.9-0.5,13.8-0.7,20.7c-0.1,2.3-0.1,2.3,2.2,2.6c0.3,0,0.5,0,1,0
		c0.1-2.7,0.4-5.1,1.2-7.5c1.9-6,5.5-8.6,11.9-8.7c8.7,0,17.4,0,26.1,0c0.5,0,0.9,0,1.4,0c0.7,0,1,0.3,0.9,1c0,0.3,0,0.7,0,1
		c0,28.3,0,56.6,0,85c0,4.9-2.3,8.1-6.8,10.1c-2.3,1-4.8,1.5-7.3,1.8c-1.5,0.2-1.5,0.2-1.5,1.6c0,2.6-0.1,2.3,2.4,2.3
		c14.7,0,29.4,0,44,0c2.6,0,2.3,0.5,2.4-2.4c0-1-0.2-1.4-1.3-1.4c-2.3-0.1-4.6-0.6-6.8-1.5c-5.2-2-7.5-5.2-7.5-10.7
		c0-28.1,0-56.3,0-84.4c0-0.5,0-0.9,0-1.4c0-0.6,0.2-0.8,0.8-0.8c0.5,0,1.1,0,1.6,0c7.1,0,14.2,0,21.3,0c2.2,0,4.4,0,6.6,0
		c3.6,0.2,6.3,1.9,8.2,4.8c1.1,1.6,1.7,3.4,2.1,5.2c0.4,1.7,0.7,3.5,0.8,5.2c0,0.4-0.1,0.9,0.5,0.9c0.9-0.1,1.8-0.1,2.5-0.5
		c0.5-0.3,0.2-1.1,0.2-1.7C347.3,140.5,347.1,133.2,346.8,125.9z M294.1,218.6c-0.7,0-1.1-0.2-1.1-1c0-0.5,0-0.9,0-1.4
		c0-24.5,0-48.9,0-73.4c0-0.4,0-0.8,0-1.2c0-0.7,0.2-1.1,1-1.1c0.7,0,1.1,0.2,1.1,1c0,0.5,0,1,0,1.6c0,12.1,0,24.3,0,36.4
		c0,12.1,0,24.3,0,36.4c0,0.5,0,1,0,1.6C295.2,218.2,295,218.6,294.1,218.6z"/>
	<path class="st0" d="M276.6,33.2c-2.5,0.2-3.6,2.3-2.1,4.3c1.3,1.8,3.1,2.7,4.9,2.8c1.8,0,2.9-0.4,3.4-1.6c0.5-1.1,0.1-2.2-0.6-3.1
		C280.7,34,278.9,33.1,276.6,33.2z"/>
	<path class="st0" d="M451.6,78.4c0.1,1.8,0.8,3.3,2.2,4.5c1.2,1.1,2.6,1.7,4.2,2.1c3.4,0.8,6.7,0.5,10.1-0.2
		c5.9-1.3,11.1-3.9,15.8-7.5c5.7-4.3,10.7-9.4,14.2-15.7c1.4-2.4,2.4-4.9,2.7-7.7c0.5-4.1-2.1-7-6.3-7c-2.8,0-5.3,1-7.8,2.1
		c-5,2.2-9.5,5.2-13.9,8.4c-0.9,0.6-1.8,1.3-2.6,1.9c0.2-0.7,0.5-1.2,0.9-1.7c3.8-4.7,7.8-9.3,11.8-13.8
		c6.7-7.4,13.6-14.5,21.3-20.8c2.9-2.4,5.9-4.4,9.5-5.6c0.2-0.1,0.5-0.1,0.5-0.6c-3.8,0-7.6,0.3-11.2,1.7c-4,1.6-7.4,4-10.6,6.8
		c-12.8,10.9-24,23.1-33.9,36.5c-2.4,3.3-4.5,6.8-5.9,10.6C451.9,74.4,451.4,76.3,451.6,78.4z M457.2,78.9c0.2-1.7,1-3.2,1.8-4.7
		c1.9-3.3,4.3-6.1,7.2-8.6c6-5.3,12.4-10,19.5-13.8c2.2-1.2,4.4-2.2,6.8-2.6c1.3-0.2,2.6-0.5,3.5,0.6c0.8,1.1,0.1,2.2-0.4,3.3
		c-0.8,1.6-1.9,3-3,4.3c-6,6.8-12.2,13.4-18.7,19.8c-1.9,1.8-4,3.5-6.3,4.8c-1.9,1-3.8,1.7-5.5,1.8
		C458.5,83.7,456.8,81.9,457.2,78.9z"/>
	<path class="st0" d="M124.1,234.4c0-1.8,0.1-1.7-1.7-1.8c-5.1-0.2-8.6-3-10-7.8c-0.6-2.2-0.8-4.5-0.8-6.8c0-25.7,0-51.4,0-77.1
		c0-0.7,0-1.4,0-2.2c0.4-6.1,4.1-10,9.9-10.3c2.1-0.1,2,0.3,2-2.2c0-1.8,0-1.6-1.8-1.6c-3.7,0-7.3,0-11,0c-9,0-18.1,0-27.1,0
		c-1.6,0-1.6,0-1.6,1.5c-0.1,2.2-0.1,2.2,2.3,2.4c5,0.3,8.2,3.1,9.3,7.9c0.3,1.4,0.3,2.8,0.3,4.3c0,12.1,0,24.3,0,36.4
		c0,11.3,0,22.6,0,33.9c0,1.1-0.3,1.8-1.3,2.4c-7.1,4.2-14.6,7.7-22.5,10.2c-7,2.2-14.1,2.8-21.4,0.9c-9.7-2.6-16.2-8.4-18.5-18.2
		c-0.7-2.8-0.8-5.7-0.8-8.6c0-18.9,0-37.9,0-56.8c0-1.3,0.1-2.6,0.3-3.9c0.8-5.1,4.3-8.3,9.6-8.5c2.1-0.1,2,0.4,2.1-2.2
		c0-0.2,0-0.4,0-0.6c0-0.7-0.2-1.1-1-1c-0.5,0-0.9,0-1.4,0c-12.2,0-24.4,0-36.7,0c-2.7,0-2.4-0.5-2.4,2.6c0,1,0.4,1.3,1.3,1.2
		c0.5,0,0.9,0,1.4,0c4.5,0.4,7.7,3.1,8.8,7.3c0.4,1.7,0.5,3.4,0.5,5.1c0,14.4-0.1,28.8,0,43.3c0,6.8-0.4,13.6,0.3,20.3
		c0.5,5.2,2,10.3,4.7,14.8c6.7,11.5,17.3,17.2,30.3,18.8c10,1.2,19.7-0.5,29-4.5c5.5-2.3,10.6-5.4,15.6-8.6c0.7-0.4,1.3-0.8,2.2-1.3
		c0,1.2,0,2.1,0,3c0,1.5,0.2,3,0.7,4.4c1,3,3,4.7,6.2,5.1c1.1,0.2,2.2,0.2,3.4,0.2c5.9,0,11.8,0,17.7,0c0.3,0,0.7,0,1,0
		c0.8,0.1,1.1-0.4,1-1.1C124,235,124.1,234.7,124.1,234.4z M20.7,207.3c-0.7-2.9-0.9-5.8-0.9-8.7c0-18.7,0-37.4,0-56.2
		c0-0.3,0-0.7,0-1c0-0.7,0.3-0.9,1-0.9c0.6,0,1.1,0,1.1,0.8c0,0.5,0,1,0,1.6c0,18.4,0,36.8,0,55.2c0,5.7,0.9,11.3,3.2,16.6
		c0.8,1.8,1.8,3.5,2.7,5.2C24,216.5,21.8,212.2,20.7,207.3z M102.9,218.6c-1.1,0-0.9-0.7-0.9-1.3c0-0.8,0-1.7,0-2.5
		c0-11.8,0-23.6,0-35.4c0-12.1,0-24.1,0-36.2c0-0.5,0-0.9,0-1.4c0-0.7,0.1-1.2,1-1.2c1,0,1,0.6,1,1.3c0,0.3,0,0.7,0,1
		c0,24.5,0,48.9,0,73.4c0,0.3,0,0.7,0,1C104,217.9,104,218.6,102.9,218.6z"/>
	<path class="st0" d="M161.8,68.2c5.9-7,11.5-14.2,17.5-21.1c5.2-5.9,10.1-12,15.7-17.4c7.3-7,15.6-12.6,24.9-16.6
		c2.7-1.2,5.5-2,8.7-2.5c-0.4,0.3-0.6,0.5-0.9,0.6c-8.5,4.2-15,10.4-20.4,18c-4.4,6.2-7.7,12.9-10.5,19.9c-3.1,8-6.2,16-9.3,23.9
		c-0.4,1.1-1.1,2.1-2,2.9c-1.9,1.7-3.8,3.5-5.4,5.5c-0.6,0.8-1.2,1.6-1.3,2.6c-0.1,0.9-0.2,1.9,0.7,2.5c0.9,0.7,1.9,0.6,2.8,0.1
		c1.2-0.6,2-1.5,2.8-2.4c1.6-2.1,2.9-4.4,3.8-6.9c0.3-1,0.9-1.7,1.6-2.4c10.7-10.3,21.5-20.4,32.7-30.1
		c13.6-11.8,28.1-22.2,44.1-30.8c5.4-2.9,10.7-5.7,16.6-7.5c1.3-0.4,2.5-0.9,3.8-0.9c-5.5,2.7-10.6,5.7-15.5,9.2
		c-13.8,9.8-25.6,21.6-35.9,34.8c-5.6,7.2-10.8,14.7-14.8,22.9c-1.1,2.2-2,4.4-2.5,6.8c-0.4,1.9-0.2,3.6,1,5.2
		c1.5,2.2,3.6,2.2,5.2,0.2c0.9-1.1,1.5-2.3,2-3.6c1.7-3.8,3.6-7.6,5.8-11.1c7-11.6,15.1-22.6,23.9-33c6.7-7.9,13.6-15.5,21.6-22.2
		c4.1-3.5,8.5-6.7,13.4-9.1c5.9-2.9,12-4.1,18.5-2.7c0.4,0.1,0.9,0.1,1.4-0.2c-0.7-0.8-1.5-1-2.3-1.3c-2.4-0.8-5-0.8-7.5-0.6
		c-10.2,0.7-20,3.3-29.3,7.6c-17.8,8.3-34,19-48.8,31.8c-9.1,7.9-17.7,16.2-26.4,24.5c-0.5,0.5-1,0.9-1.6,1.4
		c-0.3-0.4,0-0.6,0.1-0.8c6.6-9.7,12.1-19.9,17.6-30.2c1.9-3.5,3.7-6.9,5.7-10.3c2.4-4.1,5.1-8.1,8.6-11.5c1.6-1.6,3.5-2.8,5.7-3.5
		c1.5-0.5,3.1-0.7,4.7-0.1c1.9,0.7,3.9,1.3,5.8,2c0.4,0.1,0.8,0.5,1.4,0.1c-0.3-1-1.3-1.2-2.1-1.5c-3.9-1.6-8-2.5-12-3.4
		c-14.2-3-28.6-5-43.1-6c-11.1-0.7-22.2-1.1-33.2-0.3c-7.6,0.5-15,1.8-22.3,4c-5.5,1.7-10.8,4-15.5,7.4c-3,2.2-5.5,4.7-7,8.1
		c-2.4,5.3-1.6,10.3,2,14.9c0.7,0.9,1.6,1.6,2.4,2.3c-0.5,0.6-1.2,0.4-1.7,0.5c-9.2,1.5-17.7,4.7-24.9,10.6
		c-5.9,4.8-9.8,10.8-10.9,18.3c-1.3,9.5,2.2,17.7,11.2,22.5c3.8,2.1,8,3.2,12.3,3.7c12,1.4,23.6-0.2,34.7-4.8
		C145.9,83.8,154.6,76.9,161.8,68.2z M114.7,90.6c-7,1.3-13.8,1.4-20.6-0.9c-2.6-0.9-5-2.1-7.2-3.7c-5.7-4.4-9-11-6.2-19.3
		c2.1-6.3,5.9-11.4,11.1-15.5c8.7-6.9,18.6-10.9,29.7-12.2c5.7-0.6,11.3-0.4,16.7,1.7c2.9,1.1,5.6,2.7,7.8,4.9
		c2.2,2.2,3.7,4.8,3.6,8c0,0.3,0,0.7,0.1,1c0.2,0.7,0.9,0.8,1.4,0.2c0.8-0.9,0.8-1.9,0.7-3c-0.3-1.8-1-3.5-2.1-5
		c-1.7-2.5-4-4.3-6.7-5.8c-4.2-2.4-8.8-3.7-13.6-3.9c-3.4-0.2-6.8-0.2-10.2,0.1c-1.8,0.2-3.1-0.5-4.1-1.8c-2.1-2.7-2.4-5.7-1.8-8.9
		c0.5-2.1,1.5-4,2.9-5.8c2.4-3.3,5.6-5.8,9.1-7.8c6-3.5,12.5-5.6,19.3-7.1c7.3-1.6,14.7-2.2,22.1-2.3c10.6-0.2,21.3,0.1,31.9,0.8
		c11.1,0.8,22.1,2,32.9,4.3c-2.1,0.4-4.3,0.8-6.4,1.3c-12.6,3-23.2,9.4-32.6,18c-6,5.5-11.3,11.6-16.7,17.6
		c-5.3,5.8-10.5,11.8-16,17.5c-7,7.3-14.6,13.9-23.4,19.1C129.6,86,122.5,89.1,114.7,90.6z"/>
	<path class="st0" d="M368.1,85.5c4-0.4,7.6-1.8,11-3.8c2.8-1.6,5.3-3.7,7.8-5.8c0.3-0.3,0.5-0.7,1.1-0.6c-0.1,0.9-0.3,1.7-0.4,2.5
		c-0.2,2.6,0.5,4.8,2.8,6.3c1.9,1.2,4,1.8,6.3,1.3c1.9-0.4,3.7-1.1,5.4-2c3.6-1.9,6.7-4.4,9.8-7c0.4-0.3,0.6-0.9,1.3-0.7
		c0,0.3,0.1,0.6,0.1,1c0.6,5.8,5.4,9.5,11.2,8.7c2.7-0.4,5.1-1.4,7.4-2.8c8.5-5.3,14.9-12.5,20-20.9c0.8-1.4,1.4-2.9,1.9-4.5
		c0.4-1.4,0.7-2.9,0.6-4.4c-0.1-3.1-1.8-5.1-4.9-5.8c-2.7-0.6-5.3-0.4-7.9,0.3c-7.9,1.9-14.6,5.9-20.3,11.5
		c-2.8,2.8-5.4,5.9-6.6,9.7c-1,3-2.8,5.1-5.1,7c-0.9,0.7-1.8,1.6-2.7,2.3c-2.4,1.9-4.9,3.6-7.7,4.9c-1.1,0.5-2.2,0.9-3.4,0.9
		c-1.5-0.1-2.2-0.8-2.2-2.2c0-1.2,0.4-2.3,0.8-3.4c1.1-2.7,2.5-5.2,4.2-7.6C409.3,54.9,421.3,40.7,435,28c4.7-4.3,9.4-8.7,15.7-10.9
		c-5.5-0.4-10.7,0.7-15.4,3.5c-1.9,1.1-3.6,2.4-5.3,3.8c-7.9,6.5-15,13.9-21.7,21.5c-6.3,7.2-12.5,14.6-17.3,22.9
		c-0.2,0.4-0.5,0.8-0.8,1.1c-3.4,3.4-7,6.6-11.1,9.2c-2.3,1.5-4.7,2.8-7.3,3.6c-1.8,0.6-3.6,1-5.5,1c-3-0.1-4.5-1.9-4.2-4.7
		c0.2-1.6,0.7-3.1,1.3-4.5c1.6-3.5,3.8-6.5,6.2-9.5c1-1.3,2-2.5,3.9-1.7c0.3,0.1,0.7,0,1,0c5-0.5,9.8-1.8,14.1-4.4
		c2.4-1.4,4.4-3.4,5.5-6c0.9-2.1,0.3-3.8-1.7-5.1c-1.7-1.1-3.6-1.4-5.5-1.1c-1.8,0.2-3.5,0.6-5.2,1.3c-7.8,2.9-14.4,7.5-20.1,13.4
		c-2.8,2.9-4.9,6.3-6,10.2c-0.2,0.7-0.4,1.2-1,1.6c-2.7,2.4-5.4,4.8-8.5,6.8c-2.2,1.4-4.4,2.7-6.9,3.4c-1.2,0.3-2.5,0.6-3.5-0.5
		c-0.9-1.1-0.2-2.3,0.3-3.3c1.3-2.5,2.8-4.7,4.7-6.8c2.4-2.8,4.9-5.5,7.4-8.2c2.3-2.5,4.5-5,6.1-8c0.8-1.4,1.4-2.8,1.4-4.4
		c0.1-1.9-0.8-3.3-2.4-4.2c-1.5-0.8-3.1-1.2-4.8-1.2c-2.4,0-4.7,0.7-7,1.5c-6.5,2.4-12.5,5.8-18.1,9.8c-0.4,0.3-0.7,0.6-1.4,0.7
		c1.9-2.7,3.9-5.1,5.8-7.5c8.2-9.8,16.9-19.1,26.6-27.5c2.9-2.5,6.1-4.6,9.7-6.1c0.5-0.2,1.1-0.1,1.3-0.7c-6.1-0.2-9.8,0.7-13.7,2.6
		c-2.9,1.5-5.5,3.4-8,5.4c-6.2,5.1-11.8,10.7-17.1,16.7c-6.6,7.3-12.9,14.9-17.9,23.4c-0.2,0.3-0.4,0.7-0.7,0.9
		c-4.4,4.3-8.9,8.7-13.9,12.3c-3.5,2.5-7.2,4.4-11.5,5.2c-1.2,0.2-2.4,0.3-3.5,0c-1.7-0.5-2.7-1.6-2.9-3.3c-0.2-1.6,0.1-3.1,0.7-4.6
		c1.1-3,2.8-5.6,4.8-8.1c3.7-4.7,7.8-9,12.3-13.1c1.8-1.6,3.6-3.1,5.6-4.4c1-0.6,1.9-1.2,3.1-1.4c2-0.4,3.5,1,3.2,3.1
		c-0.1,0.9-0.6,1.7-1.2,2.4c-0.9,1.1-2,1.9-3.2,2.7c-0.9,0.6-1.9,1.2-2.6,2.1c-0.7,0.8-1.3,1.6-0.7,2.6c0.6,1,1.6,1.4,2.7,1.4
		c1.2,0,2.3-0.6,3.2-1.4c2.6-2.1,4-4.8,4.2-8.1c0.3-3.8-1.8-6.3-5.7-6.4c-2.7-0.1-5.3,0.5-7.8,1.4c-7.9,3-14.5,7.8-20.1,14.1
		c-2.1,2.4-4,5-4.8,8.1c-0.5,2.1-1.6,3.6-3.3,4.9c-0.6,0.4-1.1,0.9-1.7,1.4c-2.7,2.2-5.6,4.2-8.8,5.7c-1.2,0.6-2.5,1-3.8,1.1
		c-1.7,0.1-2.6-0.8-2.6-2.4c0-0.9,0.3-1.8,0.7-2.6c1.1-2.7,2.7-5.1,4.4-7.4c5.7-7.7,11.9-15,18.5-22c0.4-0.5,1-0.8,1.3-1.7
		c-3.7,0.1-7,0.4-9.9,2.6c-3.5,2.7-6.7,5.8-9.7,9c-3.2,3.5-6.4,7-8.7,11.1c-1.3,2.4-2.4,5-2.7,7.7c-0.4,4.2,1.8,6.9,6,7.5
		c2.9,0.4,5.5-0.2,8.1-1.4c3.5-1.6,6.7-3.7,9.6-6.2c0.5-0.4,0.8-1,1.5-1.1c0.1,0.1,0.2,0.1,0.2,0.2c0.1,0.3,0.2,0.6,0.3,0.9
		c0.6,3.3,2.6,5.5,5.7,6.8c2.2,0.9,4.6,1.2,7,1c4.8-0.5,9.1-2.4,13-5c2.8-1.8,5.3-4,7.7-6.2c0.5-0.4,0.9-1,1.7-1.3
		c-0.8,2.3-1.6,4.3-2.3,6.4c-0.8,2.5,0,4.6,2.1,6.1c1,0.7,1.4,0.7,1.9-0.5c1.2-2.6,2.4-5.2,3.8-7.8c3.8-6.9,8.6-12.9,15-17.5
		c4.8-3.5,10-6.4,15.5-8.8c2-0.9,4-1.7,6.2-2c0.9-0.1,2.1-0.5,2.8,0.4c0.7,1-0.3,1.8-0.8,2.6c-0.2,0.4-0.5,0.7-0.8,1.1
		c-1.7,2-3.6,3.9-5.5,5.7c-3,2.8-5.8,5.8-8.4,8.9c-1.9,2.3-3.6,4.7-4.5,7.5c-2.2,6.4,3.1,11.5,9,10.3c1.7-0.4,3.4-0.8,4.9-1.4
		c3.6-1.5,6.8-3.8,9.8-6.3c0.5-0.5,1-1.1,1.8-1.2c0.1,0.3,0.1,0.7,0.2,1c0.7,4,3.2,6.5,7.2,7.5C364.3,85.5,366.1,85.7,368.1,85.5z
		 M419.1,79.6c0.4-2.3,1.4-4.3,2.7-6.3c4.3-6.9,9.5-13,15.6-18.5c1.7-1.5,3.5-3,5.5-4.2c1.2-0.7,2.4-1.4,3.7-1.8
		c1.4-0.4,2.9-0.8,4.2,0.3c1.3,1.1,0.8,2.6,0.5,4c-0.5,1.8-1.3,3.5-2.3,5.2c-5.1,8.5-11.6,15.7-19.1,22.1c-1.3,1.1-2.8,2-4.3,2.7
		c-0.9,0.4-1.7,0.7-2.7,0.7C420.3,83.8,418.7,82,419.1,79.6z M372.8,61.4c4.1-4.5,8.6-8.5,13.8-11.8c0.8-0.5,1.7-1,2.7-1.3
		c1.6-0.4,2.5,0.4,2.1,2c-0.1,0.6-0.4,1.3-0.8,1.8c-4,5.6-9.4,8.9-16.2,10.1c-0.6,0.1-1.2,0.1-1.9-0.1
		C372.7,61.8,372.7,61.6,372.8,61.4z"/>
	<path class="st0" d="M600,233.8c0-0.2,0-0.4,0-0.6c0-0.4-0.2-0.6-0.6-0.6c-0.5,0-0.9,0-1.4-0.1c-4.1-0.3-7.6-1.8-10.1-5.2
		c-0.8-1.1-1.4-2.2-1.9-3.4c-3.9-7.9-7.8-15.7-11.6-23.6c-12.6-26.2-25.1-52.6-37.5-78.9c-0.3-0.7-0.6-1.6-1.2-2.2
		c-0.7,0.5-0.8,1.1-1.1,1.7c-13.6,26-27.2,52-40.7,78c-3.7,7.1-7.4,14.1-11.2,21.2c-1.7,3.3-3.7,6.3-6.5,8.9
		c-2.7,2.5-5.8,3.8-9.6,3.6c-4.1-0.2-7.4-1.8-10.3-4.6c-2.3-2.2-4.4-4.6-6.3-7c-8.8-11.1-17-22.7-24.9-34.5c-0.4-0.5-0.8-1-0.9-1.9
		c1.5-0.4,2.8-0.7,4.2-1c7.6-2.2,14-6.2,18.3-13c2.7-4.2,4-8.8,4.6-13.6c0.8-6.3-0.4-12.2-3.9-17.6c-4.2-6.5-10.4-10.3-17.7-12.6
		c-5.3-1.6-10.8-2.3-16.3-2.3c-15.4-0.1-30.8,0-46.2-0.1c-0.3,0-0.7,0-1,0c-1.3,0-0.8,1-0.8,1.6c0.1,0.8-0.7,1.9,0.8,2.2
		c0.3,0.1,0.5,0,0.8,0c0.4,0,0.8,0,1.2,0.1c4.1,0.5,7,2.6,8.4,6.5c0.6,1.7,0.8,3.4,0.8,5.2c0,26.7,0,53.4-0.1,80.1
		c0,1.2-0.1,2.5-0.3,3.7c-0.6,4.5-3.4,7.4-8,8.4c-0.9,0.2-1.7,0.3-2.6,0.2c-0.9,0-1.2,0.3-1.1,1.2c0,0.3,0,0.7,0,1
		c0,1.7,0,1.7,1.7,1.7c12.7,0,25.4,0,38.1,0c1.7,0,1.7,0,1.7-1.6c0-2.6,0.1-2.2-2.2-2.3c-5-0.2-8.3-3.1-9.4-7.8
		c-0.3-1.4-0.4-2.8-0.4-4.3c0-28.2,0-56.4,0-84.6c0-0.3,0-0.7,0-1c-0.1-0.9,0.3-1.1,1.1-1.1c6.2,0.1,12.5-0.2,18.7,0.2
		c3.2,0.2,6.3,1,9.2,2.3c5.3,2.5,8.6,6.4,9.7,12.1c0.9,5.1,0.5,10.1-0.6,15.1c-1.9,7.9-6.8,12.7-15,14.4c-4.9,1-9.9,1.1-14.9,1
		c-0.9,0-1.8,0-2.7,0c-0.1,0.7,0.4,0.9,0.6,1.3c13.2,18.3,26.4,36.5,39.5,54.8c0.8,1,1.5,1.4,2.8,1.4c21.1,0,42.3,0,63.4,0
		c2.8,0,2.5,0.6,2.6-2.7c0-0.8-0.2-1.2-1.1-1.2c-1.6,0-3.2-0.2-4.7-0.7c-3.4-1.2-5.1-3.9-4.7-7.5c0.2-1.2,0.6-2.4,1.1-3.5
		c4.4-9.3,8.8-18.6,13.1-27.9c0.6-1.2,1.2-1.6,2.5-1.6c11.4,0.1,22.7,0.1,34.1,0c1.3,0,2,0.4,2.5,1.6c4.5,9.5,9,19,13.6,28.5
		c0.5,1,0.9,2,1.2,3.1c0.7,3.3-0.8,6-4,7.2c-1,0.4-2,0.6-3.1,0.7c-1.5,0.2-1.5,0.2-1.5,1.6c0,2.6-0.2,2.3,2.3,2.3
		c12.2,0,24.4,0,36.7,0C600.2,236.4,600,236.9,600,233.8z M387.2,141.6c0,0.5,0,1,0,1.6c0,12.1,0,24.3,0,36.4c0,12.2,0,24.4,0,36.6
		c0,0.5,0,1,0,1.6c0,0.7-0.3,0.9-0.9,0.9c-0.7,0-1.2-0.1-1.1-1c0-0.5,0-0.9,0-1.4c0-24.5,0-49,0-73.6c0-0.4,0-0.8,0-1.2
		c-0.1-0.8,0.3-1,1.1-1C387,140.5,387.2,140.9,387.2,141.6z M440.7,143.9c4.5,5,4.3,16.1-0.1,21.6
		C441.9,158.3,442.4,151.3,440.7,143.9z M443.4,226.6c-6.1-8.5-12.2-16.9-18.3-25.4c-3-4.2-6.1-8.4-9.1-12.6
		c-0.3-0.4-0.7-0.8-0.9-1.4c1.4-0.6,2,0.2,2.7,1.1c8.4,11.7,16.9,23.4,25.3,35.1c1,1.4,2,2.7,3,4.1
		C444.7,228.2,444.1,227.6,443.4,226.6z M489.5,226.1c-0.2,0.4-0.4,0.7-0.5,1.1c-0.3,0.9-1,0.9-2.1,0.7c2-4,3.8-7.7,5.7-11.4
		c12.3-24.6,24.6-49.3,36.9-73.9c0.2-0.5,0.4-1,0.7-1.4c0.3-0.5,0.9-0.6,1.4-0.3c0.5,0.3,0.1,0.7-0.1,1c-1,2.1-2.1,4.2-3.1,6.3
		C515.5,174.2,502.5,200.1,489.5,226.1z M518.9,181.2c4.9-9.6,9.7-19,14.8-28.9c4.7,9.8,9.1,19.3,13.7,28.9
		C537.8,181.2,528.5,181.2,518.9,181.2z M577,226.7c-2.9-6.2-5.9-12.4-8.8-18.6c-3.8-8-7.6-16.1-11.4-24.1c-0.3-0.6-0.6-1.1-0.7-1.8
		c1.2-0.6,1.7,0.1,2.1,1c2.8,5.9,5.6,11.8,8.4,17.7c4,8.4,7.9,16.8,11.9,25.1c0.2,0.5,0.5,1.1,0.8,1.7
		C577.8,228.4,577.4,227.5,577,226.7z"/>
</g>
<polygon class="st1" points="299.4,277.7 268.2,277.7 268.2,400.3 299.4,380.3 "/>
<polygon class="st2" points="299.4,277.7 330.6,277.7 330.6,400.3 299.4,380.3 "/>
</svg>
