<?xml version="1.0" encoding="utf-8"?>
<!-- Generator: Adobe Illustrator 24.0.0, SVG Export Plug-In . SVG Version: 6.00 Build 0)  -->
<svg version="1.1" id="Layer_1" xmlns="http://www.w3.org/2000/svg" xmlns:xlink="http://www.w3.org/1999/xlink" x="0px" y="0px"
	 viewBox="0 0 200 150" style="enable-background:new 0 0 200 150;" xml:space="preserve">
<style type="text/css">
	.st0{fill-rule:evenodd;clip-rule:evenodd;fill:#D00A2C;}
	.st1{fill-rule:evenodd;clip-rule:evenodd;fill:#00168A;}
</style>
<title>Group 77</title>
<path class="st0" d="M90.2,93.1V145l9.4-6.5l9.4,6.5V93.1H90.2z M111.7,97.7h0.4c0.5,0,0.6-0.2,0.6-0.4c0-0.3-0.2-0.4-0.5-0.4h-0.4
	V97.7z M112.7,99.2c-0.1-0.1-0.1-0.2-0.1-0.3l-0.1-0.3c-0.1-0.3-0.3-0.4-0.6-0.4h-0.2v1h-0.6v-2.7h1.1c0.6,0,1,0.3,1,0.8
	c0,0.5-0.3,0.7-0.8,0.7c0.3,0,0.5,0.1,0.6,0.4l0.1,0.4c0,0.1,0.1,0.3,0.2,0.3H112.7z M112.2,100c1.1,0,2.1-0.9,2.1-2.1
	c0-1.2-0.9-2.1-2.1-2.1c-1.1,0-2.1,0.9-2.1,2.1C110.1,99.1,111,100,112.2,100L112.2,100z M112.1,95.5c1.3,0,2.3,1,2.3,2.3
	c0,1.3-1,2.3-2.3,2.3c-1.3,0-2.3-1-2.3-2.3C109.8,96.5,110.9,95.5,112.1,95.5L112.1,95.5z"/>
<path class="st1" d="M98.7,10.1c1.8,0.1-5.3-4.8-20.6,7.3c-8.6,6.8-9.6,10.9-4.9,1.3c4.3-8.6,5.6-5.7,7.9-5.7c0.3,0,0.4-0.2,0.4-0.4
	c-0.1-1.5-24.6-6.1-30.5-2c-1.9,1.3-0.8,3.3,1,4.1c1.6,0.7,1.9,0.7,1.9,0.6c0.1-0.4-2.9-0.8-2.6-2.5c0.7-3.9,18.4-3,24.3-1.8
	c3.6,0.7-1.4-1-7.8,5.6c-8,8.1-13.2,17-22,16.6c-6.6-0.3-7.1-7.3-3.5-10c2.9-2.2,6.5-2.6,9.9,0c0.6,0.5,0.9-0.2,0.7-0.5
	c-0.3-0.4-5.2-4.4-11-0.3c-10,7.1,5.5,22.7,21.3,2.9c4.3-5.2,7.8-11.8,11.7-12.3c-3.9,2.7-4.7,6.3-6.8,11.7
	c-1.9,4.8-2.9,4.3-3.7,5.6c-0.6,0.9-0.1,1.9,0.7,1.8c0.7-0.1,1.6-1.1,1.9-2c0.5-1.6,12.4-13.1,21.2-17.6
	C81.9,17.3,69.8,33,75.6,32.2c1.1-0.1,2.6-5.6,8.7-13.2C88.1,14.4,91,10.7,98.7,10.1 M150.3,22.6c6.7-3.8,5.4-0.6,2.3,3
	C143.7,35.9,139.8,28.5,150.3,22.6 M139,25.3c-6.5,8-9.5,5.4-5.5,0.4C139.4,18.5,143.7,19.5,139,25.3 M117.2,25c5.4-6,7.9-5,5.9-2.7
	C120.9,25,116.4,25.8,117.2,25 M162,10.6c-9.6,0.5-12.7,11.6-19.4,11.7c0.1,0,0.5-2.8-2.3-2.7c-8,0.3-10.2,11.3-14.8,11.2
	c-1.1,0-1.2-0.7,0.3-2.7c1.8-2.5,10.6-14.6,17.5-16.9c0.3-0.1,0.2-0.5,0-0.5c-11,0.9-17.7,18.8-24.6,20.2c-1.5,0.3-3-0.3-3.4-1.1
	c-0.7-1.4,0.9-3.2,1.1-3.5c4.5,1.9,12.2-6.1,7.6-6.6c-1.8-0.2-3.3,0.5-4.8,1.4c-5.1,3.1-5.2,8.1-8.2,9.3c-1.9,0.8-2.9-0.2-2.1-1.5
	c2.1-3.3,8.6-8.2,3.7-9.2c-1.9-0.4-4.7,1.3-6.9,2.8c5.9-7.4,8.2-9.6,12.8-11.4c0,0,0-0.1,0-0.1c-0.9-0.2-4,0.3-6.1,2
	c-10.6,8.5-11.7,17.3-17.9,17.6c-1.1,0-1.7,0-2.2-0.9c-2.1-3.9,6.9-11.2,7.5-8.3c0.1,0.5-0.3,0.8-1.1,1.4c-2.6,2,1.7,3.5,2.4-0.4
	c0.6-3.6-3.4-3.1-6.3-0.7c-5.8,4.6-4.5,8.4-7.7,9.2c-2.2,0.5-1.4-5.3,4.4-10.4c0.2-0.2,0-0.6-0.2-0.5c-3.2,1.4-7.5,5.3-7.5,10.3
	c0,1.9,2.5,3.3,5.8,0.4c1,1.9,5.2,2.8,8.9,0c0.2,0.9,0.8,1.9,2,1.7c1.1-6.9,9.7-13,11.2-11.2c1.5,1.8-6.2,6.8-5,9.8
	c0.9,2.1,4.6,1.2,6.4-0.5c1,1.9,5.8,2.8,9.5,0c0.2,1,2.7,3.5,7,0.1c0.4,0.8,1.8,1.7,3,1.8c4.7,0.4,9.2-7.1,9.5-8
	c0,0,1.9-0.3,2.8-0.8c-8.7,11,4.1,11.6,10.3,3c1.6-2.2,3.8-5.8,1.2-6.6c-3.8-1.2-11.7,7.2-4.3-1.1c2.4-2.7,4.8-5.6,10.1-7.6
	C162.6,10.7,162.3,10.5,162,10.6 M91.4,16.7c0.6,1.9,3.5,1.9,2.9,0C93.7,14.8,90.7,14.8,91.4,16.7 M81.6,74.1h-0.2h-1.7H75h-9.8
	V54.2V46c0-0.5,0.1-0.8,0.5-1.5h-0.5h-0.1h0h-5.8h0h-0.1h-0.5c0.5,0.7,0.5,1,0.5,1.5v0.4c0,0.1,0,0.1,0,0.2c0,0.6,0,1.5,0,1.9v5.6
	v15.7v5.4l0,0c0,0,0,1.4,0,2.2c0,0.9,0.1,1.2-0.5,2.1h0.5h0.1h0h22.8c0.4,0,0.8,0.1,1.4,0.5v-0.5v-0.1v0v-5.4v0V74v-0.5
	c-0.7,0.5-1,0.5-1.5,0.5H81.6z M85.1,49.8L85.1,49.8v0.1v0.5c0.9-0.6,1.2-0.5,2.1-0.5h2.1l0,0h4.5h2.3v20.4v8.4
	c0,0.4-0.1,0.8-0.5,1.4h0.5h0.1h0h5.7h0h0.1h0.5c-0.6-0.9-0.5-1.3-0.5-2.2c0-0.7,0-2.2,0-2.2l0,0v-5.5V49.8h2.3h4.5l0,0h2.1
	c0.9,0,1.2-0.1,2.1,0.5v-0.5v-0.1v0v-5.3H85.1V49.8z M44.5,44.5L44.5,44.5h-0.1h-5.8h0h-0.1H38c0.4,0.6,0.6,1,0.6,1.4v7v12.2v3
	c-1.2,3.9-5.4,6-10.4,6c-4.8,0-7.9-3.6-7.9-9.4V53v-5.9v-0.5v0V46c0-0.5,0.1-0.8,0.5-1.5h-0.5h-0.1h0h-5.8h0h-0.1H14
	c0.5,0.7,0.5,1,0.5,1.5v0.3v0c0,0.1,0,0.2,0,0.3c0,0.7,0,2.1,0,2.1v5.3v12c0,7.8,5.6,14,13.7,14c5.5,0,8.4-2.2,10.4-4.2c0,0,0,0,0,0
	c0,0,0,0,0,0l0,3.4h5.7h0h0.1h0.5c-0.6-0.9-0.5-1.2-0.5-2.1c0-0.7,0-2.1,0-2.1l0,0v-5.3v-3.3c0-0.1,0-0.2,0-0.3v-12v-5.3v0
	c0,0,0-1.4,0-2.1c0-0.9-0.1-1.2,0.5-2.1H44.5z M134.6,61.7h-5.9V49.7h5.9c5.8,0,9.3,1.3,9.3,5.9C143.8,60.3,140.3,61.7,134.6,61.7
	 M149.9,78.2C149.5,77.6,142,66,142,66c4.3-0.7,7.9-4.5,7.9-10.3c0-8.3-5.4-11.1-14.2-11.1h-12.9h0h-0.1h-0.5
	c0.4,0.6,0.5,0.9,0.5,1.3v9.5v15.9v7.5c0,0.4-0.1,0.8-0.5,1.3h0.5h0.1h0h5.9h0h0.1h0.5c-0.5-0.6-0.5-1-0.6-1.5v-7.1v-4.7h7.7
	l4.7,7.8c2.1,3.4,2.9,4.2,2.2,5.5h8.2C151,79.7,150.8,79.4,149.9,78.2 M175.5,65.2L175.5,65.2h-5.3l5.3-13.5l5.3,13.5H175.5z
	 M193.3,80.1c-0.6-0.4-1.2-1.7-1.9-3.6L179.9,47c-0.4-1.1-0.7-1.5-0.1-2.5h-1.7h-5.2h-1.7c0.7,1,0.3,1.4-0.1,2.5l-11.4,29.4
	c-0.8,1.9-1.3,3.2-1.9,3.6h8.4c-0.6-0.9-0.9-2.3,0.4-5.6l1.6-4.4h7.4h0h7.4l1.6,4.4c1.3,3.3,1,4.7,0.4,5.6H193.3z M195.2,76.1h0.4
	c0.5,0,0.6-0.2,0.6-0.4c0-0.3-0.2-0.4-0.5-0.4h-0.4V76.1z M196.2,77.5c-0.1-0.1-0.1-0.2-0.1-0.3l-0.1-0.3c-0.1-0.3-0.3-0.4-0.6-0.4
	h-0.2v1h-0.6v-2.7h1.1c0.6,0,1,0.3,1,0.8c0,0.5-0.3,0.7-0.8,0.7c0.3,0,0.5,0.1,0.6,0.4l0.1,0.4c0,0.1,0.1,0.3,0.2,0.3H196.2z
	 M195.6,78.3c1.1,0,2.1-0.9,2.1-2.1c0-1.2-0.9-2.1-2.1-2.1c-1.1,0-2.1,0.9-2.1,2.1C193.5,77.5,194.5,78.3,195.6,78.3L195.6,78.3z
	 M195.6,73.9c1.3,0,2.3,1,2.3,2.3c0,1.3-1,2.3-2.3,2.3c-1.3,0-2.3-1-2.3-2.3C193.3,74.9,194.3,73.9,195.6,73.9L195.6,73.9z"/>
</svg>
