<?xml version="1.0" encoding="utf-8"?>
<!-- Generator: Adobe Illustrator 24.0.0, SVG Export Plug-In . SVG Version: 6.00 Build 0)  -->
<svg version="1.1" id="Layer_1" xmlns="http://www.w3.org/2000/svg" xmlns:xlink="http://www.w3.org/1999/xlink" x="0px" y="0px"
	 viewBox="0 0 600 400" style="enable-background:new 0 0 600 400;" xml:space="preserve">
<style type="text/css">
	.st0{fill:#FFFFFF;}
	.st1{fill:#D1212F;}
	.st2{fill:#A41D36;}
</style>
<g>
	<path class="st0" d="M252.1,207.8c-1-0.5-1-0.5-1.3,0.6c-0.6,2.4-1.3,4.7-2.3,7c-1.3,2.5-3.3,4-6.1,4.5c-0.7,0.1-1.3,0.2-2.1,0.3
		c-9.2,0.4-18.5,0.1-27.8,0.2c-0.7,0-1-0.3-0.9-1c0-0.2,0-0.5,0-0.7c0-21.1,0-42.1,0-63.3c0-0.6,0-1.2,0-1.7c0.3-4.7,3-7.3,7.8-7.6
		c0.2,0,0.4,0,0.6,0c1-0.2,0.4-1,0.5-1.6c0.1-0.4,0.4-1.1-0.5-1.3c-0.1,0-0.2,0-0.3,0c-0.2,0-0.4,0-0.6,0c-9.4,0-18.8,0-28.3,0
		c-0.4,0-1.2-0.3-1.3,0.3c-0.1,0.7-0.3,1.3,0.3,2c0.5,0.5,1,0.5,1.5,0.6c4,0.4,6.4,2.8,6.8,6.7c0.1,0.7,0.1,1.6,0.1,2.3
		c0,20,0,40,0,60.1c0,1-0.1,1.9-0.3,2.9c-0.5,2.8-2.2,4.7-5.1,5.5c-1.1,0.3-2.3,0.4-3.5,0.5c-1.3,0-1.3-0.2-1.3,1.3
		c0,1.8-0.1,1.6,1.6,1.6c9.9,0,19.8,0,29.8,0c3.7,0,7.6,0,11.3,0c6.3,0,12.5,0,18.8,0c1.1,0,1.3,0.1,1.4-1.3c0.6-5,1.3-10,2.4-15.1
		C254.1,208.3,254.1,208.9,252.1,207.8z M205,213.7c-0.6,0-0.7-0.3-0.7-0.8c0-0.4,0-0.7,0-1c0-9.1,0-18.3,0-27.4s0-18.3,0-27.4
		c0-0.4,0-0.7,0-1.2c0-0.6,0.4-0.6,0.8-0.6c0.5,0,0.7,0.1,0.7,0.7c0,0.4,0,0.7,0,1c0,18.4,0,36.8,0,55.2c0,0.3,0,0.6,0,0.9
		C205.8,213.6,205.5,213.7,205,213.7z"/>
	<path class="st0" d="M335.1,144.2c0-0.7-0.2-1.1-1-1c-0.2,0-0.5,0-0.7,0c-25.2,0-50.4,0-75.6,0c-0.4,0-0.7,0-1,0
		c-0.4,0-0.6,0.2-0.6,0.6c0,0.3-0.1,0.6-0.1,0.9c-0.1,5.2-0.4,10.3-0.5,15.5c-0.1,1.7-0.1,1.7,1.6,1.9c0.2,0,0.4,0,0.7,0
		c0.1-2,0.3-3.8,0.9-5.6c1.4-4.5,4.1-6.4,8.9-6.5c6.5,0,13,0,19.6,0c0.4,0,0.7,0,1,0c0.5,0,0.7,0.2,0.7,0.7c0,0.2,0,0.5,0,0.7
		c0,21.2,0,42.4,0,63.7c0,3.7-1.7,6.1-5.1,7.6c-1.7,0.7-3.6,1.1-5.5,1.3c-1.1,0.1-1.1,0.1-1.1,1.2c0,1.9-0.1,1.7,1.8,1.7
		c11,0,22,0,33,0c1.9,0,1.7,0.4,1.8-1.8c0-0.7-0.1-1-1-1c-1.7-0.1-3.4-0.4-5.1-1.1c-3.9-1.5-5.6-3.9-5.6-8c0-21.1,0-42.2,0-63.3
		c0-0.4,0-0.7,0-1c0-0.4,0.1-0.6,0.6-0.6c0.4,0,0.8,0,1.2,0c5.3,0,10.6,0,16,0c1.6,0,3.3,0,4.9,0c2.7,0.1,4.7,1.4,6.1,3.6
		c0.8,1.2,1.3,2.5,1.6,3.9c0.3,1.3,0.5,2.6,0.6,3.9c0,0.3-0.1,0.7,0.4,0.7c0.7-0.1,1.3-0.1,1.9-0.4c0.4-0.2,0.1-0.8,0.1-1.3
		C335.5,155.2,335.4,149.7,335.1,144.2z M295.6,213.7c-0.5,0-0.8-0.1-0.8-0.7c0-0.4,0-0.7,0-1c0-18.4,0-36.7,0-55c0-0.3,0-0.6,0-0.9
		c0-0.5,0.1-0.8,0.7-0.8c0.5,0,0.8,0.1,0.8,0.7c0,0.4,0,0.7,0,1.2c0,9.1,0,18.2,0,27.3c0,9.1,0,18.2,0,27.3c0,0.4,0,0.7,0,1.2
		C296.4,213.4,296.3,213.7,295.6,213.7z"/>
	<path class="st0" d="M282.5,74.7c-1.9,0.1-2.7,1.7-1.6,3.2c1,1.3,2.3,2,3.7,2.1c1.3,0,2.2-0.3,2.5-1.2c0.4-0.8,0.1-1.6-0.4-2.3
		C285.6,75.3,284.2,74.6,282.5,74.7z"/>
	<path class="st0" d="M413.7,108.6c0.1,1.3,0.6,2.5,1.6,3.4c0.9,0.8,1.9,1.3,3.1,1.6c2.5,0.6,5,0.4,7.6-0.1c4.4-1,8.3-2.9,11.8-5.6
		c4.3-3.2,8-7,10.6-11.8c1-1.8,1.8-3.7,2-5.8c0.4-3.1-1.6-5.2-4.7-5.2c-2.1,0-4,0.7-5.8,1.6c-3.7,1.6-7.1,3.9-10.4,6.3
		c-0.7,0.4-1.3,1-1.9,1.4c0.1-0.5,0.4-0.9,0.7-1.3c2.8-3.5,5.8-7,8.8-10.3c5-5.5,10.2-10.9,16-15.6c2.2-1.8,4.4-3.3,7.1-4.2
		c0.1-0.1,0.4-0.1,0.4-0.4c-2.8,0-5.7,0.2-8.4,1.3c-3,1.2-5.5,3-7.9,5.1c-9.6,8.2-18,17.3-25.4,27.4c-1.8,2.5-3.4,5.1-4.4,7.9
		C413.9,105.6,413.6,107,413.7,108.6z M417.9,109c0.1-1.3,0.7-2.4,1.3-3.5c1.4-2.5,3.2-4.6,5.4-6.4c4.5-4,9.3-7.5,14.6-10.3
		c1.6-0.9,3.3-1.6,5.1-1.9c1-0.1,1.9-0.4,2.6,0.4c0.6,0.8,0.1,1.6-0.3,2.5c-0.6,1.2-1.4,2.2-2.2,3.2c-4.5,5.1-9.1,10-14,14.8
		c-1.4,1.3-3,2.6-4.7,3.6c-1.4,0.7-2.8,1.3-4.1,1.3C418.9,112.6,417.6,111.2,417.9,109z"/>
	<path class="st0" d="M168.1,225.6c0-1.3,0.1-1.3-1.3-1.3c-3.8-0.1-6.4-2.2-7.5-5.8c-0.4-1.6-0.6-3.4-0.6-5.1c0-19.3,0-38.5,0-57.8
		c0-0.5,0-1,0-1.6c0.3-4.6,3.1-7.5,7.4-7.7c1.6-0.1,1.5,0.2,1.5-1.6c0-1.3,0-1.2-1.3-1.2c-2.8,0-5.5,0-8.2,0c-6.7,0-13.6,0-20.3,0
		c-1.2,0-1.2,0-1.2,1.1c-0.1,1.6-0.1,1.6,1.7,1.8c3.7,0.2,6.1,2.3,7,5.9c0.2,1,0.2,2.1,0.2,3.2c0,9.1,0,18.2,0,27.3
		c0,8.5,0,16.9,0,25.4c0,0.8-0.2,1.3-1,1.8c-5.3,3.1-10.9,5.8-16.9,7.6c-5.2,1.6-10.6,2.1-16,0.7c-7.3-1.9-12.1-6.3-13.9-13.6
		c-0.5-2.1-0.6-4.3-0.6-6.4c0-14.2,0-28.4,0-42.6c0-1,0.1-1.9,0.2-2.9c0.6-3.8,3.2-6.2,7.2-6.4c1.6-0.1,1.5,0.3,1.6-1.6
		c0-0.1,0-0.3,0-0.4c0-0.5-0.1-0.8-0.7-0.7c-0.4,0-0.7,0-1,0c-9.1,0-18.3,0-27.5,0c-2,0-1.8-0.4-1.8,1.9c0,0.7,0.3,1,1,0.9
		c0.4,0,0.7,0,1,0c3.4,0.3,5.8,2.3,6.6,5.5c0.3,1.3,0.4,2.5,0.4,3.8c0,10.8-0.1,21.6,0,32.5c0,5.1-0.3,10.2,0.2,15.2
		c0.4,3.9,1.5,7.7,3.5,11.1c5,8.6,13,12.9,22.7,14.1c7.5,0.9,14.8-0.4,21.7-3.4c4.1-1.7,7.9-4,11.7-6.4c0.5-0.3,1-0.6,1.6-1
		c0,0.9,0,1.6,0,2.2c0,1.1,0.1,2.2,0.5,3.3c0.7,2.2,2.2,3.5,4.6,3.8c0.8,0.1,1.6,0.1,2.5,0.1c4.4,0,8.8,0,13.3,0c0.2,0,0.5,0,0.7,0
		c0.6,0.1,0.8-0.3,0.7-0.8C168.1,226,168.1,225.8,168.1,225.6z M90.6,205.3c-0.5-2.2-0.7-4.3-0.7-6.5c0-14,0-28,0-42.1
		c0-0.2,0-0.5,0-0.7c0-0.5,0.2-0.7,0.7-0.7c0.4,0,0.8,0,0.8,0.6c0,0.4,0,0.7,0,1.2c0,13.8,0,27.6,0,41.4c0,4.3,0.7,8.5,2.4,12.4
		c0.6,1.3,1.3,2.6,2,3.9C93.1,212.2,91.4,208.9,90.6,205.3z M152.2,213.7c-0.8,0-0.7-0.5-0.7-1c0-0.6,0-1.3,0-1.9
		c0-8.8,0-17.7,0-26.5c0-9.1,0-18.1,0-27.1c0-0.4,0-0.7,0-1c0-0.5,0.1-0.9,0.7-0.9c0.7,0,0.7,0.4,0.7,1c0,0.2,0,0.5,0,0.7
		c0,18.4,0,36.7,0,55c0,0.2,0,0.5,0,0.7C153.1,213.2,153.1,213.7,152.2,213.7z"/>
	<path class="st0" d="M196.4,101c4.4-5.2,8.6-10.6,13.1-15.8c3.9-4.4,7.6-9,11.8-13c5.5-5.2,11.7-9.4,18.7-12.4
		c2-0.9,4.1-1.5,6.5-1.9c-0.3,0.2-0.4,0.4-0.7,0.4c-6.4,3.1-11.2,7.8-15.3,13.5c-3.3,4.6-5.8,9.7-7.9,14.9c-2.3,6-4.6,12-7,17.9
		c-0.3,0.8-0.8,1.6-1.5,2.2c-1.4,1.3-2.8,2.6-4,4.1c-0.4,0.6-0.9,1.2-1,1.9c-0.1,0.7-0.1,1.4,0.5,1.9c0.7,0.5,1.4,0.4,2.1,0.1
		c0.9-0.4,1.5-1.1,2.1-1.8c1.2-1.6,2.2-3.3,2.8-5.2c0.2-0.7,0.7-1.3,1.2-1.8c8-7.7,16.1-15.3,24.5-22.6
		c10.2-8.8,21.1-16.6,33.1-23.1c4-2.2,8-4.3,12.4-5.6c1-0.3,1.9-0.7,2.8-0.7c-4.1,2-7.9,4.3-11.6,6.9C268.8,68.3,260,77.1,252.3,87
		c-4.2,5.4-8.1,11-11.1,17.2c-0.8,1.6-1.5,3.3-1.9,5.1c-0.3,1.4-0.1,2.7,0.7,3.9c1.1,1.6,2.7,1.6,3.9,0.1c0.7-0.8,1.1-1.7,1.5-2.7
		c1.3-2.8,2.7-5.7,4.3-8.3c5.2-8.7,11.3-16.9,17.9-24.7c5-5.9,10.2-11.6,16.2-16.6c3.1-2.6,6.4-5,10-6.8c4.4-2.2,9-3.1,13.9-2
		c0.3,0.1,0.7,0.1,1-0.1c-0.5-0.6-1.1-0.7-1.7-1c-1.8-0.6-3.7-0.6-5.6-0.4c-7.6,0.5-15,2.5-22,5.7C266.2,62.4,254.1,70.4,243,80
		c-6.8,5.9-13.3,12.1-19.8,18.4c-0.4,0.4-0.7,0.7-1.2,1c-0.2-0.3,0-0.4,0.1-0.6c4.9-7.3,9.1-14.9,13.2-22.6c1.4-2.6,2.8-5.2,4.3-7.7
		c1.8-3.1,3.8-6.1,6.4-8.6c1.2-1.2,2.6-2.1,4.3-2.6c1.1-0.4,2.3-0.5,3.5-0.1c1.4,0.5,2.9,1,4.3,1.5c0.3,0.1,0.6,0.4,1,0.1
		c-0.2-0.7-1-0.9-1.6-1.1c-2.9-1.2-6-1.9-9-2.5c-10.6-2.2-21.4-3.7-32.3-4.5c-8.3-0.5-16.6-0.8-24.9-0.2c-5.7,0.4-11.2,1.3-16.7,3
		c-4.1,1.3-8.1,3-11.6,5.5c-2.2,1.6-4.1,3.5-5.2,6.1c-1.8,4-1.2,7.7,1.5,11.2c0.5,0.7,1.2,1.2,1.8,1.7c-0.4,0.4-0.9,0.3-1.3,0.4
		c-6.9,1.1-13.3,3.5-18.7,7.9c-4.4,3.6-7.3,8.1-8.2,13.7c-1,7.1,1.6,13.3,8.4,16.9c2.8,1.6,6,2.4,9.2,2.8c9,1,17.7-0.1,26-3.6
		C184.5,112.6,191,107.5,196.4,101z M161.1,117.7c-5.2,1-10.3,1-15.4-0.7c-1.9-0.7-3.7-1.6-5.4-2.8c-4.3-3.3-6.7-8.2-4.6-14.5
		c1.6-4.7,4.4-8.5,8.3-11.6c6.5-5.2,13.9-8.2,22.3-9.1c4.3-0.4,8.5-0.3,12.5,1.3c2.2,0.8,4.2,2,5.8,3.7s2.8,3.6,2.7,6
		c0,0.2,0,0.5,0.1,0.7c0.1,0.5,0.7,0.6,1,0.1c0.6-0.7,0.6-1.4,0.5-2.2c-0.2-1.3-0.7-2.6-1.6-3.7c-1.3-1.9-3-3.2-5-4.3
		c-3.1-1.8-6.6-2.8-10.2-2.9c-2.5-0.1-5.1-0.1-7.6,0.1c-1.3,0.1-2.3-0.4-3.1-1.3c-1.6-2-1.8-4.3-1.3-6.7c0.4-1.6,1.1-3,2.2-4.3
		c1.8-2.5,4.2-4.3,6.8-5.8c4.5-2.6,9.4-4.2,14.5-5.3c5.5-1.2,11-1.6,16.6-1.7c7.9-0.1,16,0.1,23.9,0.6c8.3,0.6,16.6,1.5,24.7,3.2
		c-1.6,0.3-3.2,0.6-4.8,1c-9.4,2.2-17.4,7-24.4,13.5c-4.5,4.1-8.5,8.7-12.5,13.2c-4,4.3-7.9,8.8-12,13.1
		c-5.2,5.5-10.9,10.4-17.5,14.3C172.3,114.3,166.9,116.6,161.1,117.7z"/>
	<path class="st0" d="M351.1,113.9c3-0.3,5.7-1.3,8.2-2.8c2.1-1.2,4-2.8,5.8-4.3c0.2-0.2,0.4-0.5,0.8-0.4c-0.1,0.7-0.2,1.3-0.3,1.9
		c-0.1,1.9,0.4,3.6,2.1,4.7c1.4,0.9,3,1.3,4.7,1c1.4-0.3,2.8-0.8,4-1.5c2.7-1.4,5-3.3,7.3-5.2c0.3-0.2,0.4-0.7,1-0.5
		c0,0.2,0.1,0.4,0.1,0.7c0.4,4.3,4,7.1,8.4,6.5c2-0.3,3.8-1,5.5-2.1c6.4-4,11.2-9.4,15-15.7c0.6-1,1-2.2,1.4-3.4
		c0.3-1,0.5-2.2,0.4-3.3c-0.1-2.3-1.3-3.8-3.7-4.3c-2-0.4-4-0.3-5.9,0.2c-5.9,1.4-10.9,4.4-15.2,8.6c-2.1,2.1-4,4.4-4.9,7.3
		c-0.7,2.2-2.1,3.8-3.8,5.2c-0.7,0.5-1.3,1.2-2,1.7c-1.8,1.4-3.7,2.7-5.8,3.7c-0.8,0.4-1.6,0.7-2.5,0.7c-1.1-0.1-1.6-0.6-1.6-1.6
		c0-0.9,0.3-1.7,0.6-2.5c0.8-2,1.9-3.9,3.1-5.7c8-11.6,17-22.3,27.3-31.8c3.5-3.2,7-6.5,11.8-8.2c-4.1-0.3-8,0.5-11.5,2.6
		c-1.4,0.8-2.7,1.8-4,2.8c-5.9,4.9-11.2,10.4-16.3,16.1c-4.7,5.4-9.4,10.9-13,17.2c-0.1,0.3-0.4,0.6-0.6,0.8
		c-2.5,2.5-5.2,4.9-8.3,6.9c-1.7,1.1-3.5,2.1-5.5,2.7c-1.3,0.4-2.7,0.7-4.1,0.7c-2.2-0.1-3.4-1.4-3.1-3.5c0.1-1.2,0.5-2.3,1-3.4
		c1.2-2.6,2.8-4.9,4.6-7.1c0.7-1,1.5-1.9,2.9-1.3c0.2,0.1,0.5,0,0.7,0c3.7-0.4,7.3-1.3,10.6-3.3c1.8-1,3.3-2.5,4.1-4.5
		c0.7-1.6,0.2-2.8-1.3-3.8c-1.3-0.8-2.7-1-4.1-0.8c-1.3,0.1-2.6,0.4-3.9,1c-5.8,2.2-10.8,5.6-15.1,10c-2.1,2.2-3.7,4.7-4.5,7.6
		c-0.1,0.5-0.3,0.9-0.7,1.2c-2,1.8-4,3.6-6.4,5.1c-1.6,1-3.3,2-5.2,2.5c-0.9,0.2-1.9,0.4-2.6-0.4c-0.7-0.8-0.1-1.7,0.2-2.5
		c1-1.9,2.1-3.5,3.5-5.1c1.8-2.1,3.7-4.1,5.5-6.1c1.7-1.9,3.4-3.7,4.6-6c0.6-1,1-2.1,1-3.3c0.1-1.4-0.6-2.5-1.8-3.1
		c-1.1-0.6-2.3-0.9-3.6-0.9c-1.8,0-3.5,0.5-5.2,1.1c-4.9,1.8-9.4,4.3-13.6,7.3c-0.3,0.2-0.5,0.4-1,0.5c1.4-2,2.9-3.8,4.3-5.6
		c6.1-7.3,12.7-14.3,19.9-20.6c2.2-1.9,4.6-3.4,7.3-4.6c0.4-0.1,0.8-0.1,1-0.5c-4.6-0.1-7.3,0.5-10.3,1.9c-2.2,1.1-4.1,2.5-6,4
		c-4.6,3.8-8.8,8-12.8,12.5c-4.9,5.5-9.7,11.2-13.4,17.5c-0.1,0.2-0.3,0.5-0.5,0.7c-3.3,3.2-6.7,6.5-10.4,9.2
		c-2.6,1.9-5.4,3.3-8.6,3.9c-0.9,0.1-1.8,0.2-2.6,0c-1.3-0.4-2-1.2-2.2-2.5c-0.1-1.2,0.1-2.3,0.5-3.4c0.8-2.2,2.1-4.2,3.6-6.1
		c2.8-3.5,5.8-6.7,9.2-9.8c1.3-1.2,2.7-2.3,4.2-3.3c0.7-0.4,1.4-0.9,2.3-1c1.5-0.3,2.6,0.7,2.4,2.3c-0.1,0.7-0.4,1.3-0.9,1.8
		c-0.7,0.8-1.5,1.4-2.4,2c-0.7,0.4-1.4,0.9-1.9,1.6c-0.5,0.6-1,1.2-0.5,1.9c0.4,0.7,1.2,1,2,1c0.9,0,1.7-0.4,2.4-1
		c1.9-1.6,3-3.6,3.1-6.1c0.2-2.8-1.3-4.7-4.3-4.8c-2-0.1-4,0.4-5.8,1c-5.9,2.2-10.9,5.8-15.1,10.6c-1.6,1.8-3,3.7-3.6,6.1
		c-0.4,1.6-1.2,2.7-2.5,3.7c-0.4,0.3-0.8,0.7-1.3,1c-2,1.6-4.2,3.1-6.6,4.3c-0.9,0.4-1.9,0.7-2.8,0.8c-1.3,0.1-1.9-0.6-1.9-1.8
		c0-0.7,0.2-1.3,0.5-1.9c0.8-2,2-3.8,3.3-5.5c4.3-5.8,8.9-11.2,13.9-16.5c0.3-0.4,0.7-0.6,1-1.3c-2.8,0.1-5.2,0.3-7.4,1.9
		c-2.6,2-5,4.3-7.3,6.7c-2.4,2.6-4.8,5.2-6.5,8.3c-1,1.8-1.8,3.7-2,5.8c-0.3,3.1,1.3,5.2,4.5,5.6c2.2,0.3,4.1-0.1,6.1-1
		c2.6-1.2,5-2.8,7.2-4.6c0.4-0.3,0.6-0.7,1.1-0.8c0.1,0.1,0.1,0.1,0.1,0.1c0.1,0.2,0.1,0.4,0.2,0.7c0.4,2.5,1.9,4.1,4.3,5.1
		c1.6,0.7,3.4,0.9,5.2,0.7c3.6-0.4,6.8-1.8,9.7-3.7c2.1-1.3,4-3,5.8-4.6c0.4-0.3,0.7-0.7,1.3-1c-0.6,1.7-1.2,3.2-1.7,4.8
		c-0.6,1.9,0,3.4,1.6,4.6c0.7,0.5,1,0.5,1.4-0.4c0.9-1.9,1.8-3.9,2.8-5.8c2.8-5.2,6.4-9.7,11.2-13.1c3.6-2.6,7.5-4.8,11.6-6.6
		c1.5-0.7,3-1.3,4.6-1.5c0.7-0.1,1.6-0.4,2.1,0.3c0.5,0.7-0.2,1.3-0.6,1.9c-0.1,0.3-0.4,0.5-0.6,0.8c-1.3,1.5-2.7,2.9-4.1,4.3
		c-2.2,2.1-4.3,4.3-6.3,6.7c-1.4,1.7-2.7,3.5-3.4,5.6c-1.6,4.8,2.3,8.6,6.7,7.7c1.3-0.3,2.5-0.6,3.7-1c2.7-1.1,5.1-2.8,7.3-4.7
		c0.4-0.4,0.7-0.8,1.3-0.9c0.1,0.2,0.1,0.5,0.1,0.7c0.5,3,2.4,4.9,5.4,5.6C348.3,113.9,349.6,114.1,351.1,113.9z M389.3,109.5
		c0.3-1.7,1-3.2,2-4.7c3.2-5.2,7.1-9.7,11.7-13.9c1.3-1.1,2.6-2.2,4.1-3.1c0.9-0.5,1.8-1,2.8-1.3c1-0.3,2.2-0.6,3.1,0.2
		s0.6,1.9,0.4,3c-0.4,1.3-1,2.6-1.7,3.9c-3.8,6.4-8.7,11.8-14.3,16.6c-1,0.8-2.1,1.5-3.2,2c-0.7,0.3-1.3,0.5-2,0.5
		C390.2,112.6,389,111.3,389.3,109.5z M354.6,95.9c3.1-3.4,6.4-6.4,10.3-8.8c0.6-0.4,1.3-0.7,2-1c1.2-0.3,1.9,0.3,1.6,1.5
		c-0.1,0.4-0.3,1-0.6,1.3c-3,4.2-7,6.7-12.1,7.6c-0.4,0.1-0.9,0.1-1.4-0.1C354.6,96.2,354.6,96,354.6,95.9z"/>
	<path class="st0" d="M525,225.1c0-0.1,0-0.3,0-0.4c0-0.3-0.1-0.4-0.4-0.4c-0.4,0-0.7,0-1-0.1c-3.1-0.2-5.7-1.3-7.6-3.9
		c-0.6-0.8-1-1.6-1.4-2.5c-2.9-5.9-5.8-11.8-8.7-17.7c-9.4-19.6-18.8-39.4-28.1-59.2c-0.2-0.5-0.4-1.2-0.9-1.6
		c-0.5,0.4-0.6,0.8-0.8,1.3c-10.2,19.5-20.4,39-30.5,58.5c-2.8,5.3-5.5,10.6-8.4,15.9c-1.3,2.5-2.8,4.7-4.9,6.7
		c-2,1.9-4.3,2.8-7.2,2.7c-3.1-0.1-5.5-1.3-7.7-3.4c-1.7-1.6-3.3-3.4-4.7-5.2c-6.6-8.3-12.7-17-18.7-25.9c-0.3-0.4-0.6-0.7-0.7-1.4
		c1.1-0.3,2.1-0.5,3.1-0.7c5.7-1.6,10.5-4.6,13.7-9.7c2-3.1,3-6.6,3.4-10.2c0.6-4.7-0.3-9.1-2.9-13.2c-3.1-4.9-7.8-7.7-13.3-9.4
		c-4-1.2-8.1-1.7-12.2-1.7c-11.5-0.1-23.1,0-34.6-0.1c-0.2,0-0.5,0-0.7,0c-1,0-0.6,0.7-0.6,1.2c0.1,0.6-0.5,1.4,0.6,1.6
		c0.2,0.1,0.4,0,0.6,0c0.3,0,0.6,0,0.9,0.1c3.1,0.4,5.2,1.9,6.3,4.9c0.4,1.3,0.6,2.5,0.6,3.9c0,20,0,40-0.1,60.1
		c0,0.9-0.1,1.9-0.2,2.8c-0.4,3.4-2.5,5.5-6,6.3c-0.7,0.1-1.3,0.2-1.9,0.1c-0.7,0-0.9,0.2-0.8,0.9c0,0.2,0,0.5,0,0.7
		c0,1.3,0,1.3,1.3,1.3c9.5,0,19,0,28.6,0c1.3,0,1.3,0,1.3-1.2c0-1.9,0.1-1.6-1.6-1.7c-3.7-0.1-6.2-2.3-7-5.8c-0.2-1-0.3-2.1-0.3-3.2
		c0-21.1,0-42.3,0-63.4c0-0.2,0-0.5,0-0.7c-0.1-0.7,0.2-0.8,0.8-0.8c4.6,0.1,9.4-0.1,14,0.1c2.4,0.1,4.7,0.7,6.9,1.7
		c4,1.9,6.4,4.8,7.3,9.1c0.7,3.8,0.4,7.6-0.4,11.3c-1.4,5.9-5.1,9.5-11.2,10.8c-3.7,0.7-7.4,0.8-11.2,0.7c-0.7,0-1.3,0-2,0
		c-0.1,0.5,0.3,0.7,0.4,1c9.9,13.7,19.8,27.4,29.6,41.1c0.6,0.7,1.1,1,2.1,1c15.8,0,31.7,0,47.5,0c2.1,0,1.9,0.4,1.9-2
		c0-0.6-0.1-0.9-0.8-0.9c-1.2,0-2.4-0.1-3.5-0.5c-2.5-0.9-3.8-2.9-3.5-5.6c0.1-0.9,0.4-1.8,0.8-2.6c3.3-7,6.6-13.9,9.8-20.9
		c0.4-0.9,0.9-1.2,1.9-1.2c8.5,0.1,17,0.1,25.6,0c1,0,1.5,0.3,1.9,1.2c3.4,7.1,6.7,14.2,10.2,21.4c0.4,0.7,0.7,1.5,0.9,2.3
		c0.5,2.5-0.6,4.5-3,5.4c-0.7,0.3-1.5,0.4-2.3,0.5c-1.1,0.1-1.1,0.1-1.1,1.2c0,1.9-0.1,1.7,1.7,1.7c9.1,0,18.3,0,27.5,0
		C525.1,227.1,525,227.5,525,225.1z M365.4,156c0,0.4,0,0.7,0,1.2c0,9.1,0,18.2,0,27.3c0,9.1,0,18.3,0,27.4c0,0.4,0,0.7,0,1.2
		c0,0.5-0.2,0.7-0.7,0.7c-0.5,0-0.9-0.1-0.8-0.7c0-0.4,0-0.7,0-1c0-18.4,0-36.7,0-55.2c0-0.3,0-0.6,0-0.9c-0.1-0.6,0.2-0.7,0.8-0.7
		C365.3,155.2,365.4,155.5,365.4,156z M405.5,157.7c3.4,3.7,3.2,12.1-0.1,16.2C406.4,168.5,406.8,163.3,405.5,157.7z M407.6,219.7
		c-4.6-6.4-9.1-12.7-13.7-19c-2.2-3.1-4.6-6.3-6.8-9.4c-0.2-0.3-0.5-0.6-0.7-1c1-0.4,1.5,0.1,2,0.8c6.3,8.8,12.7,17.5,19,26.3
		c0.7,1,1.5,2,2.2,3.1C408.5,220.9,408.1,220.5,407.6,219.7z M442.1,219.4c-0.1,0.3-0.3,0.5-0.4,0.8c-0.2,0.7-0.7,0.7-1.6,0.5
		c1.5-3,2.8-5.8,4.3-8.5c9.2-18.4,18.4-37,27.7-55.4c0.1-0.4,0.3-0.7,0.5-1c0.2-0.4,0.7-0.4,1-0.2c0.4,0.2,0.1,0.5-0.1,0.7
		c-0.7,1.6-1.6,3.1-2.3,4.7C461.6,180.4,451.9,199.9,442.1,219.4z M464.2,185.7c3.7-7.2,7.3-14.2,11.1-21.7
		c3.5,7.3,6.8,14.5,10.3,21.7C478.4,185.7,471.4,185.7,464.2,185.7z M507.8,219.8c-2.2-4.6-4.4-9.3-6.6-13.9
		c-2.8-6-5.7-12.1-8.5-18.1c-0.2-0.4-0.4-0.8-0.5-1.3c0.9-0.4,1.3,0.1,1.6,0.7c2.1,4.4,4.2,8.8,6.3,13.3c3,6.3,5.9,12.6,8.9,18.8
		c0.1,0.4,0.4,0.8,0.6,1.3C508.4,221.1,508.1,220.4,507.8,219.8z"/>
</g>
<polygon class="st1" points="299.6,258.1 276.2,258.1 276.2,350 299.6,335 "/>
<polygon class="st2" points="299.6,258.1 323,258.1 323,350 299.6,335 "/>
</svg>
