<?xml version="1.0" encoding="utf-8"?>
<!-- Generator: Adobe Illustrator 24.0.0, SVG Export Plug-In . SVG Version: 6.00 Build 0)  -->
<svg version="1.1" id="Layer_1" xmlns="http://www.w3.org/2000/svg" xmlns:xlink="http://www.w3.org/1999/xlink" x="0px" y="0px"
	 viewBox="0 0 235 201" style="enable-background:new 0 0 235 201;" xml:space="preserve">
<style type="text/css">
	.st0{fill-rule:evenodd;clip-rule:evenodd;fill:#FFFFFF;}
</style>
<g>
	<g transform="translate(-352.000000, -297.000000)">
		<g id="Group-14" transform="translate(352.000000, 297.000000)">
			<g>
				<path id="Fill-1" class="st0" d="M166.3,78.8L143.8,84l0.5-46.6l7.6-1.8l-0.4,40.6l14.8-3.5L166.3,78.8z M133.2,45.4l-18.6,39.5
					l18.2-4.2l-0.1,5.9l-26.6,6.2l0.1-5.2l18.6-39.5L108,52l0.1-6.1l25.2-5.9L133.2,45.4z M94.6,95.5L87,97.2l0.5-46.6l7.6-1.8
					L94.6,95.5z M67.7,101.7l-7-16.4l-5,1.2l-0.2,18.1l-7.4,1.7l0.5-46.6l11.2-2.6c9.7-2.3,15.1,0.6,15,10.5
					c-0.1,5.2-1.9,10.5-7.4,14.3l7.7,18.1L67.7,101.7z M211.4,25.5c-2.8-1.1-6.5-3.8-7.9-5.7c-1.4-1.9-7-7.9-11.3-9.5
					c-4.3-1.5-10.3-1.7-12.6-1.7c-2.3,0-8.4,0-10.7-0.9c-2.3-0.9-5.6-8.3-8.8-7.2c0,0-5.4,0.4-8.9,7.8c-3.5,7.4-2.5,8.5-16.5,11.5
					c-14,3-28.6,1.9-34.6,5.1c-6,3.2-12.4,14.2-28.6,14.8c-16.1,0.6-21.6-0.9-39.5,10c-12.1,7.4-16.9,13.9-19.4,18.4l6.2-1.4
					c11.9-2.8,18.5,0.9,18.3,18.9c-0.2,18-7.1,24.9-18.7,27.6l-10.1,2.3l0.4-40C5.8,80.7,1,90.5,0.1,99.6c-1,11,3.1,28.6,3.7,34.4
					c0.6,5.9,2.7,13.1,2.5,17.2c-0.2,4.2-2.1,15,0,17.2c2.1,2.3,15,8.7,23.7,4.2c8.8-4.5,4.5-7.4,2.9-8.7c-1.6-1.3-4.3-4.9-5.4-6.4
					c-1.2-1.5-0.8-3.2-0.2-4.4c0.6-1.1,2.7-8.9,3.3-10.2c0.6-1.3,9.5-14.2,10.3-16.7c0.8-2.5,7.8-1.7,9.3-0.4
					c1.6,1.3,4.3,9.8,4.5,13.6c0.2,3.8,0.4,14.2,3.7,17.4c3.3,3.2,16.5,3.8,18.9,3.8c4,0,8-2.7,5.4-5.1c-2.5-2.5-8.5-8.3-9.5-9.6
					c-1-1.3,1-7.2,2.7-9.5c1.8-2.3,3-2.8,4.1-0.4c1.1,2.5,6.6,17.6,7.8,26.7c1.2,9.1,1.4,21.8,2.1,24c0.8,2.3,12.1,13.2,18.1,13.2
					c6,0,25.1-3.6,15.9-14.4c-9.1-10.8-10.1-7.2-10.5-16.7c-0.4-9.5,1.4-28,1.9-33.1c0.6-5.1,0.8-5.9,1.9-3.2
					c1.2,2.7,3.5,23.3,5.3,29.7c1.7,6.4,2.7,14.4,9.7,17c6.9,2.6,26.1,5.9,30.7,2.5c2.8-2.1-1.8-5.5-6.4-9.1
					c-4.7-3.6-12.2-7.8-12.4-12.9c-0.2-5.1,3.7-24.6,6-30.1c2.3-5.5,3.7-11.7,4.3-20.3c0.6-8.5,1.6-22.3,2.9-23.1
					c1.1-0.6,11.3-5.4,21-10.9l0.2-17.1L167.8,32l7.7-1.8l7.2,19.8l7.8-23.3l7.1-1.7l-11.5,31.8L186,71.1
					c11.1-7.1,14.8-8.4,17.1-10.1c2.3-1.7,9.9-1.1,16.3-4.9c6.4-3.8,6.2-7,6.2-7s3.7-2.8,4.7-6.6c1-3.8,4.1-5.7,4.1-10.2
					c0-4.5-0.8-5.5-4.9-5.9C225.5,26,214.2,26.6,211.4,25.5z"/>
				<path id="Fill-4" class="st0" d="M59.6,63.1L55.9,64l-0.2,16.9l3.9-0.9c5.5-1.3,7.7-4,7.7-10.5C67.5,63.3,65.4,61.8,59.6,63.1"
					/>
				<path id="Fill-5" class="st0" d="M29.4,87.3c0.1-12.3-2.2-16.6-9.8-14.9l-3.4,0.8l-0.3,34.7l3.5-0.8
					C26.8,105.4,29.3,99.9,29.4,87.3"/>
			</g>
		</g>
	</g>
</g>
</svg>
