<?xml version="1.0" encoding="utf-8"?>
<!-- Generator: Adobe Illustrator 24.0.0, SVG Export Plug-In . SVG Version: 6.00 Build 0)  -->
<svg version="1.1" xmlns="http://www.w3.org/2000/svg" xmlns:xlink="http://www.w3.org/1999/xlink" x="0px" y="0px"
	 viewBox="0 0 1920 1080" style="enable-background:new 0 0 1920 1080;" xml:space="preserve">
<style type="text/css">
	.st0{fill:#2A6592;}
	.st1{fill:#FFFFFF;}
	.st2{fill:#FFFFFF;stroke:#FFFFFF;stroke-miterlimit:10;}
	.st3{display:none;}
	.st4{display:inline;opacity:0.1;fill:#FFFFFF;}
</style>
<g id="Layer_1">
	<rect class="st0" width="1920" height="1080"/>
	<g>
		<path class="st1" d="M834.1,546.46c1.08-0.05,2.34,0.16,3.8,0.64c1.46,0.47,2.89,1.22,4.28,2.23c1.39,1.01,2.62,2.31,3.68,3.88
			c1.06,1.57,1.64,3.43,1.74,5.58c2.74,12.81,2.23,24.47-1.51,34.98c-3.75,10.51-10.85,19.23-21.32,26.17
			c-5.97,11.05-13.93,20.71-23.89,28.98c-9.96,8.27-21.34,13.77-34.16,16.51c0.29,6.46,0.17,12.66-0.37,18.62
			c-0.54,5.95-0.95,11.77-1.23,17.44c-0.28,5.67-0.17,11.19,0.35,16.56c0.51,5.37,1.97,10.69,4.36,15.98
			c-2.05,2.25-3.66,4.48-4.82,6.69c-1.16,2.21-2.23,4.37-3.21,6.48c-0.98,2.11-2.06,4.27-3.21,6.48c-1.16,2.21-2.76,4.44-4.82,6.69
			c-2.2-0.98-4.84-1.67-7.91-2.07c-3.07-0.4-6.36-0.52-9.85-0.36c-3.5,0.16-7.03,0.59-10.59,1.29c-3.57,0.7-6.93,1.66-10.11,2.89
			c0.03,0.71-0.12,1.44-0.44,2.18c-0.65,1.47-1.88,2.24-3.67,2.32c-1.12-1.03-1.81-2.3-2.06-3.81c-0.25-1.52-0.42-3.22-0.5-5.1
			c-0.09-1.88-0.27-3.85-0.54-5.91c-0.27-2.06-1-4.13-2.17-6.24c-2.84-15.15-4.63-30.83-5.37-47.06
			c-0.74-16.23-0.38-32.01,1.08-47.36l-3.49-76.93l4.3-0.2c3.08-3.37,5.72-7.49,7.93-12.35c2.21-4.86,4.7-9.38,7.47-13.55
			c2.78-4.17,6.13-7.42,10.07-9.76c3.94-2.34,9.18-2.57,15.74-0.71c8.66,0.69,16.96,0.62,24.93-0.19
			c7.96-0.81,15.71-1.39,23.24-1.73c7.53-0.34,14.78,0.1,21.76,1.3C820.56,538.22,827.4,541.37,834.1,546.46z M718.89,556
			c-0.98,2.2-2.18,4.41-3.61,6.63c-1.43,2.22-2.76,4.44-4.01,6.65c-1.25,2.21-2.27,4.37-3.08,6.47c-0.81,2.11-1.16,4.23-1.06,6.38
			c-0.44,14.04-0.84,28.03-1.2,41.97c-0.36,13.94-0.35,27.87,0.01,41.78c0.36,13.91,1.22,27.84,2.57,41.8
			c1.35,13.95,3.42,27.88,6.21,41.77c1.87-2.24,3.13-4.32,3.76-6.23c0.63-1.92,2.02-2.92,4.18-3.02c0.4-14.93,0.34-30.11-0.18-45.55
			c-0.52-15.43-1.13-30.9-1.84-46.41c-0.7-15.51-1.27-30.98-1.7-46.42C718.52,586.39,718.5,571.11,718.89,556z M731.1,735.78
			c-1.78,4.39-3.73,7.89-5.86,10.51c-2.13,2.61-4.22,4.95-6.29,7.02c4.25-1.27,8.67-1.92,13.25-1.95c4.58-0.03,8.88-0.4,12.89-1.12
			c4.01-0.72,7.49-2.18,10.45-4.38c2.95-2.2,4.85-6.02,5.68-11.44c-2.15,0.1-4.52,0.38-7.1,0.86c-2.59,0.48-5.21,0.91-7.89,1.3
			c-2.68,0.39-5.32,0.6-7.92,0.63C735.7,737.23,733.3,736.76,731.1,735.78z M752.48,541.81c-2.1,1.17-4.45,1.91-7.04,2.21
			c-2.59,0.3-5.23,0.64-7.91,1.03c-2.68,0.39-5.3,1.01-7.87,1.84c-2.57,0.84-4.88,2.38-6.93,4.63c-0.44,14.04-0.43,28.23,0.05,42.59
			c0.47,14.36,1.04,28.75,1.69,43.19c0.66,14.44,1.26,28.83,1.83,43.18c0.56,14.35,0.62,28.54,0.18,42.58
			c2.06,1.89,3.29,3.18,3.68,3.88c0.39,0.7,0.64,2.22,0.75,4.55l12.91-0.59c6.55,1.86,10.86,1.66,12.91-0.59
			c2.05-2.25,3.12-5.4,3.21-9.45c0.09-4.05-0.21-8.44-0.87-13.17c-0.67-4.73-0.53-8.74,0.4-12.01c-0.1-2.15-0.03-4.49,0.22-7.02
			c0.24-2.53,0.31-5.14,0.18-7.83c-0.12-2.69-0.6-5.32-1.44-7.89c-0.84-2.57-2.38-4.88-4.63-6.93c1.79-0.08,3.01-0.85,3.67-2.32
			c0.33-0.73,0.47-1.46,0.44-2.18l-0.39-8.61l-4.3,0.2c0.88-4.35,2.5-7.3,4.85-8.85c2.36-1.54,5.01-2.52,7.95-2.92
			c2.95-0.4,5.9-0.63,8.86-0.67c2.96-0.04,5.5-0.65,7.6-1.83c5.33-1.32,10.14-3.11,14.45-5.37c4.3-2.26,8.41-4.78,12.33-7.57
			c3.92-2.78,7.77-5.83,11.58-9.15c3.8-3.31,7.78-6.69,11.94-10.11c3.83-6.64,6.49-13.37,7.98-20.17
			c1.49-6.81,0.96-14.46-1.58-22.97c-0.2-4.3-1.51-7.57-3.95-9.79c-2.44-2.22-5.26-3.94-8.46-5.14c-3.2-1.2-6.52-2.13-9.96-2.78
			c-3.45-0.65-6.27-1.47-8.47-2.45c-5.43-0.83-10.34-1.19-14.74-1.08c-4.4,0.11-8.75,0.26-13.05,0.46c-4.3,0.2-8.7,0.31-13.19,0.33
			C762.87,543.05,757.91,542.64,752.48,541.81z M801.42,586.76c-0.83,5.43-2.88,9.88-6.13,13.35c-3.26,3.48-7.08,6.39-11.46,8.74
			c-4.39,2.36-9.06,4.28-14.03,5.76c-4.97,1.48-9.57,2.86-13.83,4.13c-2.15,0.1-3.2-0.08-3.12-0.53c0.07-0.45,0.49-1.1,1.26-1.94
			c0.77-0.84,1.49-1.82,2.16-2.93c0.67-1.11,0.44-2.18-0.68-3.2l-6.05-38.27c3.13-2.3,6.3-3.83,9.49-4.61
			c3.2-0.77,6.42-1.1,9.66-0.98s6.5,0.56,9.76,1.31c3.27,0.75,6.54,1.59,9.82,2.52c1.12,1.03,2.38,2.05,3.78,3.06
			c1.39,1.01,2.79,2.16,4.2,3.45c1.41,1.28,2.59,2.76,3.57,4.42C800.79,582.7,801.32,584.61,801.42,586.76z M758.07,575.79
			l0.39,8.61c3.23-0.15,6.25,0.17,9.07,0.94c2.82,0.77,5.47,1.77,7.95,3.01s4.87,2.52,7.18,3.85c2.31,1.34,4.56,2.49,6.76,3.47
			c1.97-0.09,3.28-1.05,3.91-2.87c0.63-1.82,1.99-3.77,4.05-5.84c-2.3-3.13-5.02-5.7-8.17-7.72c-3.15-2.01-6.49-3.48-10.04-4.4
			c-3.55-0.92-7.16-1.29-10.83-1.12C764.67,573.87,761.24,574.56,758.07,575.79z M758.65,588.7l5.54,21.04
			c1.08-0.05,2.37-0.15,3.89-0.31c1.52-0.16,3.07-0.54,4.66-1.15c1.59-0.61,3.07-1.49,4.46-2.63c1.39-1.14,2.57-2.81,3.55-5.01
			c-1.17-2.1-2.55-3.75-4.13-4.93c-1.58-1.18-3.33-2.14-5.25-2.86c-1.92-0.72-3.97-1.34-6.15-1.88
			C763.04,590.43,760.85,589.68,758.65,588.7z M799.71,638.05c-3.13,2.3-7.07,3.6-11.82,3.91c-4.75,0.31-9.13,0.82-13.14,1.54
			c-4.01,0.72-7,2.25-8.96,4.58c-1.96,2.34-1.72,6.68,0.73,13.04c4.21-2.35,8.33-4.46,12.38-6.36c4.05-1.89,7.91-3.86,11.59-5.92
			c3.68-2.05,7.04-4.32,10.07-6.79c3.03-2.47,5.55-5.37,7.56-8.7c-1.26,0.06-2.32,0.33-3.2,0.82c-0.88,0.49-1.75,1.02-2.62,1.6
			C801.43,636.54,800.57,637.29,799.71,638.05z"/>
		<path class="st1" d="M907.99,523.7c-1.26,11.74-1.66,23.89-1.18,36.44c0.48,12.56,1.46,25.27,2.94,38.14
			c1.48,12.87,3.33,25.82,5.54,38.83c2.21,13.02,4.59,25.85,7.14,38.49c0.34,7.53,1.28,15.44,2.83,23.73
			c1.54,8.29,2.48,16.02,2.81,23.19c-3.55,1.06-6.48,2.72-8.8,4.98c-2.32,2.26-4.23,4.77-5.72,7.54c-1.49,2.76-2.66,5.69-3.51,8.78
			c-0.85,3.09-1.75,6.01-2.7,8.75c-2.65,1.02-5.31,1.68-8,1.98c-2.68,0.3-5.37,0.38-8.08,0.23c-2.7-0.15-5.41-0.34-8.11-0.57
			c-2.71-0.24-5.4-0.29-8.09-0.17c0.77-2.73,1.13-5.67,1.08-8.81c-0.05-3.14-0.25-6.41-0.58-9.81c-0.34-3.4-0.76-6.89-1.28-10.45
			c-0.53-3.57-0.86-7.15-1.03-10.74c0.55-27.34-0.36-54.52-2.76-81.55c-2.4-27.02-5.2-54.21-8.42-81.56
			c1.81-3.68,4.11-7.42,6.9-11.23c2.79-3.81,5-7.55,6.63-11.22c3.5-1.95,7.82-3.81,12.96-5.57c5.13-1.76,10.39-2.76,15.77-3.01
			L907.99,523.7z M872.61,539.86l-6.77,11.09c1.47,12.69,2.76,25.21,3.86,37.56c1.1,12.35,2.16,24.75,3.17,37.19
			c1.01,12.45,2.08,25.02,3.19,37.73c1.12,12.71,2.43,25.86,3.95,39.45c0.12,2.69,0.07,5.62-0.14,8.77
			c-0.22,3.16-0.39,6.35-0.51,9.59c-0.12,3.24-0.03,6.38,0.29,9.42c0.31,3.04,0.98,5.89,2.01,8.54c-0.12-2.69,0.49-4.87,1.86-6.55
			c1.36-1.68,2.82-3.23,4.37-4.65c1.55-1.42,2.78-2.96,3.7-4.62c0.91-1.66,0.86-3.81-0.16-6.46c-1.56-14.48-2.95-29.29-4.17-44.42
			c-1.23-15.13-2.55-30.3-3.95-45.51c-1.41-15.21-2.95-30.19-4.6-44.94C877.04,567.29,875.01,553.23,872.61,539.86z M913.72,726.95
			c-3.77,0.17-7.42,0.92-10.95,2.25c-3.54,1.33-7.1,2.07-10.68,2.24c-1.63,3.67-3.15,6.79-4.56,9.37c-1.41,2.58-2.03,5.66-1.87,9.25
			c0.85-0.94,1.96-1.35,3.31-1.23c1.35,0.12,2.85,0.36,4.48,0.74c1.63,0.37,3.35,0.66,5.16,0.84c1.8,0.19,3.58-0.21,5.34-1.19
			L913.72,726.95z M879.7,535.76l-0.16-3.5c3.19,30.77,6.38,61.44,9.57,92.02c3.18,30.58,6.38,61.35,9.58,92.29l3.77-0.17
			c0.09,1.98-0.48,3.3-1.71,3.99c-1.23,0.69-1.8,1.83-1.73,3.45c1.97-0.09,3.22-0.28,3.75-0.57c0.53-0.29,1.56-1.28,3.1-2.97
			c1.03-1.12,2.17-1.62,3.44-1.5c1.26,0.12,2.58,0.38,3.94,0.76c1.36,0.39,2.68,0.73,3.95,1.03c1.27,0.3,2.33-0.02,3.19-0.95
			l-6.64-68.97c-4.5-19.92-8-40.56-10.49-61.92c-2.5-21.36-3.25-42.93-2.26-64.73c-1.75,0.98-3.89,1.44-6.41,1.37
			c-2.52-0.06-4.89,0.09-7.12,0.46c-2.23,0.37-4.12,1.22-5.68,2.55C880.23,529.72,879.54,532.18,879.7,535.76z"/>
		<path class="st1" d="M1084.89,578.74c0.17,3.77,0.74,7.47,1.72,11.11c0.97,3.64,1.99,7.41,3.07,11.32
			c1.07,3.91,2.11,7.9,3.1,11.99c1,4.09,1.6,8.47,1.81,13.13c1.15,5.52,2.61,10.98,4.38,16.38c1.77,5.4,3.36,10.81,4.78,16.23
			c1.41,5.42,2.29,10.91,2.64,16.46c0.34,5.56-0.26,11.16-1.8,16.79c-1.71,1.88-3.01,3.91-3.9,6.11c-0.89,2.2-1.73,4.48-2.52,6.85
			c-0.79,2.37-1.72,4.71-2.78,7c-1.07,2.29-2.45,4.38-4.16,6.25c-2.61,1.91-5.68,3.49-9.22,4.73c-3.54,1.24-7.08,2.52-10.61,3.85
			c-3.54,1.33-7.06,2.88-10.57,4.66c-3.51,1.78-6.55,4.07-9.12,6.88c-2.06-1.7-3.44-3.48-4.15-5.34c-0.72-1.85-1.25-3.67-1.59-5.45
			c-0.35-1.78-0.66-3.57-0.92-5.35c-0.26-1.79-0.89-3.65-1.87-5.58c-4.36,2.89-8.77,5.74-13.22,8.55c-4.46,2.8-9.07,5.13-13.84,6.96
			c-4.77,1.83-9.7,3-14.8,3.5c-5.1,0.5-10.48-0.11-16.12-1.83c-5.5-2.45-10.94-5.39-16.3-8.83c-5.37-3.44-10.13-7.36-14.28-11.75
			c-4.15-4.39-7.34-9.28-9.56-14.66c-2.22-5.38-3.03-11.32-2.43-17.82c1.21-16.77,5.85-32.48,13.9-47.13
			c8.05-14.65,19.17-27.87,33.38-39.66c0.94,0.86,2.07,1.17,3.41,0.92c1.34-0.24,2.8-0.75,4.38-1.55c1.58-0.79,3.25-1.58,5.01-2.38
			c1.76-0.8,3.53-1.24,5.33-1.32c2.83-1.03,5.98-1.84,9.46-2.45c3.48-0.6,7.06-0.77,10.76-0.49c3.69,0.28,7.33,1.11,10.89,2.47
			c3.57,1.37,6.84,3.33,9.84,5.89c0.81-1.83,1.12-4,0.92-6.51c-0.21-2.51-0.26-4.75-0.17-6.73c0.09-1.98,0.73-3.58,1.94-4.81
			c1.2-1.22,3.71-1.47,7.51-0.75c3.59-0.16,7.85-0.22,12.8-0.18C1076.92,576.27,1081.22,577.11,1084.89,578.74z M965.67,624.58
			c-3.59,3.94-6.29,8.01-8.07,12.23c-1.79,4.22-3.16,8.5-4.13,12.86c-0.97,4.36-1.67,8.84-2.08,13.44
			c-0.42,4.6-0.98,9.17-1.67,13.69c-1.54,5.64-1.67,10.77-0.38,15.38c1.29,4.62,3.41,8.83,6.37,12.65
			c2.96,3.82,6.39,7.26,10.31,10.31c3.91,3.06,7.81,5.84,11.7,8.36c5.59,4.42,11.36,6.72,17.29,6.9c5.94,0.18,11.82-0.81,17.66-2.96
			c5.83-2.15,11.64-4.98,17.41-8.47s11.29-6.71,16.54-9.65l6.87-14.87c-4.54,2.9-9.03,5.94-13.47,9.1
			c-4.44,3.17-9.03,5.89-13.78,8.17c-4.75,2.28-9.66,3.85-14.74,4.71c-5.08,0.86-10.45,0.52-16.09-1.02
			c-5.73-3.51-11.27-7.71-16.61-12.59c-5.34-4.88-10.02-10.01-14.04-15.4c-4.09-10.95-6.25-21.82-6.47-32.59
			C958.07,644.07,960.53,633.98,965.67,624.58z M1059.34,579.9c-1.75,0.98-2.9,2.38-3.45,4.2c-0.55,1.82-0.77,3.77-0.68,5.83
			c0.09,2.06,0.33,4.21,0.7,6.44c0.37,2.23,0.6,4.24,0.68,6.03c-1.63,3.67-3.18,5.18-4.65,4.52c-1.47-0.65-2.97-2.11-4.51-4.38
			c-1.54-2.26-3.13-4.62-4.77-7.06c-1.64-2.44-3.36-3.62-5.15-3.54c-0.9,0.04-1.97,0.27-3.2,0.69c-1.24,0.42-2.52,0.79-3.86,1.12
			c-1.33,0.33-2.68,0.44-4.03,0.32c-1.35-0.12-2.5-0.6-3.44-1.46c-5.56,0.25-10.88,0.81-15.96,1.67c-5.08,0.86-9.42,3.26-13.02,7.19
			c-4.39,2.18-8.35,5.05-11.87,8.63c-3.52,3.58-6.57,7.62-9.15,12.14c-2.58,4.52-4.7,9.24-6.37,14.17
			c-1.66,4.93-2.84,9.66-3.53,14.18c0.24,5.38,0.98,10.74,2.21,16.07c1.23,5.34,3.12,10.37,5.67,15.11c2.55,4.74,5.8,9.04,9.75,12.9
			c3.95,3.86,8.67,7.02,14.18,9.46c7.7,3.42,15.16,4.35,22.36,2.76c7.21-1.58,14.49-4.43,21.85-8.54c2.66-0.84,4.92-2.33,6.8-4.49
			c1.88-2.15,3.66-4.39,5.36-6.71c1.69-2.32,3.52-4.61,5.48-6.85c1.96-2.25,4.27-3.87,6.92-4.9c1.88,1.89,3,3.73,3.35,5.51
			c0.35,1.78,0.43,3.58,0.24,5.38c-0.19,1.81-0.29,3.61-0.29,5.4c-0.01,1.8,0.48,3.58,1.45,5.33c1.76-0.8,3.49-1.33,5.19-1.58
			c1.69-0.25,3.35-0.42,4.96-0.5c1.61-0.07,3.13-0.18,4.57-0.34c1.43-0.15,2.57-0.7,3.43-1.64c4.52,0.7,7.64,0.02,9.34-2.04
			c1.7-2.05,2.71-4.57,3.03-7.55c0.31-2.98,0.35-6.08,0.12-9.31c-0.24-3.22,0.05-5.84,0.86-7.86c-2.13-7.27-3.9-14.56-5.31-21.86
			c-1.41-7.3-2.86-14.56-4.36-21.77c-1.5-7.21-3.22-14.45-5.17-21.73c-1.95-7.28-4.43-14.53-7.46-21.77L1059.34,579.9z
			 M1050.65,632.05c2.21,5.29,2.48,10,0.77,14.12c-1.7,4.12-5.34,8.11-10.91,11.95c-5.14,5.63-11.06,8.77-17.77,9.43
			c-6.71,0.67-12.83-0.67-18.38-4.02c-2.02-0.81-3.37-2.09-4.08-3.86c-0.71-1.76-1.38-3.67-2.01-5.7c-0.63-2.04-1.36-4.12-2.17-6.24
			c-0.82-2.12-2.17-4.12-4.05-6.02c2.78-1.92,5.33-4.37,7.62-7.35c2.29-2.98,4.63-5.91,7.01-8.81c2.38-2.89,4.92-5.39,7.61-7.49
			c2.69-2.1,5.92-3.23,9.69-3.4c5.83,1.72,11.17,3.63,16.03,5.74C1044.87,622.52,1048.42,626.4,1050.65,632.05z M1024.32,621.92
			c-3.59,0.16-7.02,1.89-10.28,5.18c-3.27,3.29-5.62,6.86-7.06,10.7c2.65-1.02,5.5-1.42,8.57-1.2c3.06,0.22,6.11,0.93,9.13,2.15
			c3.02,1.21,5.88,2.83,8.58,4.87c2.7,2.03,5.01,4.45,6.93,7.23l-3.07,3.64l-15.29-10.36c-1.97,0.09-3.87,0-5.67-0.28
			c-1.81-0.28-3.62-0.51-5.42-0.7c-1.81-0.19-3.65-0.15-5.52,0.12c-1.87,0.27-3.69,0.89-5.44,1.86c0.09,1.97,0.34,4.43,0.74,7.38
			c0.4,2.95,1.63,5.36,3.7,7.24c1.83,0.82,4.02,1.44,6.55,1.86c2.54,0.42,5.19,0.57,7.97,0.45c2.78-0.13,5.46-0.52,8.03-1.17
			c2.57-0.66,4.83-1.47,6.76-2.46c1.75-0.98,3.62-2.41,5.6-4.3c1.98-1.88,3.73-3.99,5.24-6.3c1.51-2.31,2.56-4.83,3.16-7.56
			c0.59-2.72,0.38-5.41-0.64-8.06c-2.06-1.7-3.83-3.24-5.33-4.61c-1.5-1.37-3.08-2.51-4.74-3.42c-1.66-0.91-3.44-1.55-5.34-1.91
			C1029.57,621.91,1027.18,621.79,1024.32,621.92z M1060.75,694.13c-1.71,1.88-3.05,4.09-4.01,6.65c-0.96,2.56-1.7,5.24-2.2,8.05
			c-0.5,2.81-1.01,5.57-1.51,8.29c-0.51,2.72-1.17,4.99-1.98,6.83c0.77-2.73,2.27-5.36,4.49-7.89c2.22-2.53,4.17-4.99,5.86-7.41
			c1.68-2.41,2.7-4.79,3.04-7.15C1064.79,699.16,1063.56,696.69,1060.75,694.13z M1093.98,695.85c-3.5,2.14-7.12,3.56-10.86,4.27
			c-3.74,0.71-7.45,2.14-11.13,4.28c-0.81,2.02-1.94,3.95-3.38,5.81c-1.44,1.86-2.93,3.77-4.46,5.73c-1.53,1.96-2.84,3.86-3.92,5.7
			c-1.09,1.84-1.59,3.67-1.5,5.46l3.5-0.16c3.5-1.96,7.2-3.65,11.09-5.09c3.89-1.44,7.4-3.12,10.55-5.06
			c3.15-1.94,5.68-4.52,7.6-7.76C1093.4,705.81,1094.23,701.41,1093.98,695.85z"/>
		<path class="st1" d="M1238.11,575.29c0.2,4.3-0.12,8.36-0.93,12.17c-0.82,3.81-1.82,7.5-3,11.05c-1.19,3.56-2.42,6.98-3.71,10.28
			c-1.29,3.29-2.4,6.58-3.33,9.85c-2.43-2.05-4.64-2.3-6.64-0.78c-2,1.53-4.02,3.51-6.07,5.94c0.88,3.56,0.95,6.11,0.21,7.67
			c-0.74,1.56-1.9,2.69-3.49,3.39c-1.58,0.7-3.5,1.15-5.73,1.34c-2.24,0.19-4.43,0.52-6.56,0.97c-2.14,0.46-4.03,1.31-5.68,2.55
			c-1.65,1.25-2.77,3.32-3.36,6.22c0.2,4.48,2.35,9.29,6.45,14.4c4.09,5.12,9.42,8.7,15.99,10.73c6.37,1.69,12.75,1.71,19.14,0.07
			c6.39-1.64,12.77-3.77,19.12-6.39c2.35,4.21,3.75,8.45,4.22,12.75c0.46,4.29,0.66,8.6,0.59,12.91c-0.07,4.32-0.11,8.59-0.09,12.81
			c0.01,4.22,0.65,8.46,1.92,12.72c-2.05,2.43-4.81,3.9-8.29,4.42c-3.48,0.52-6.39,0.83-8.72,0.93l-20.68,13.61
			c-8.56,1.47-17.72,2.56-27.48,3.27c-9.76,0.71-19.34,0.47-28.74-0.72c-9.4-1.19-18.27-3.58-26.6-7.15
			c-8.34-3.58-15.37-9.01-21.09-16.29l-5.67-29.93c1.96-4.4,3.01-8.94,3.15-13.62c0.15-4.68,0.25-9.31,0.31-13.9
			c0.06-4.59,0.49-8.96,1.29-13.13c0.8-4.17,2.74-7.94,5.82-11.32c4.11-4.5,7.72-8.93,10.85-13.3c3.13-4.36,6.21-8.64,9.26-12.82
			c3.04-4.18,6.14-8.18,9.29-12.01c3.15-3.82,6.8-7.45,10.96-10.88c3.23-0.15,6.43-0.97,9.59-2.46c3.17-1.49,6.37-3.12,9.62-4.88
			c3.24-1.76,6.45-3.39,9.62-4.88c3.17-1.49,6.36-2.31,9.59-2.46c4.3-0.2,8.13,0.08,11.49,0.83c3.36,0.75,6.54,1.59,9.55,2.53
			c3.01,0.94,5.92,1.8,8.74,2.57C1231.85,575.13,1234.88,575.44,1238.11,575.29z M1132.93,627.51c-0.98,2.2-2.32,4.42-4.01,6.65
			c-1.7,2.23-3.3,4.6-4.8,7.09c-1.5,2.49-2.6,5.11-3.28,7.83c-0.69,2.73-0.42,5.68,0.81,8.86c-1.76,8.71-3.16,17.53-4.19,26.47
			c-1.04,8.94-0.23,18.74,2.41,29.41c5.62,5.14,11.87,9.16,18.74,12.09s14.11,5.02,21.72,6.29c7.6,1.27,15.35,1.77,23.25,1.5
			c7.89-0.27,15.58-1.11,23.07-2.53c2.2,0.98,4.32,1.24,6.37,0.79c2.04-0.46,3.94-1.26,5.68-2.41c1.74-1.16,3.35-2.44,4.81-3.86
			c1.46-1.41,2.71-2.68,3.74-3.81c-6.51-0.78-12.92-1.44-19.23-1.96c-6.32-0.52-12.59-1.18-18.82-1.98s-12.31-1.96-18.22-3.49
			c-5.91-1.53-11.63-3.78-17.15-6.77c-6.69-4.91-11.9-10.65-15.61-17.22c-3.72-6.57-6.27-13.42-7.67-20.54
			c-1.4-7.12-1.82-14.34-1.25-21.64C1129.85,640.99,1131.07,634.06,1132.93,627.51z M1199.64,577.04
			c-6.41,1.37-12.68,3.72-18.82,7.05c-6.14,3.34-11.79,7.41-16.97,12.23c-5.17,4.82-9.65,10.19-13.42,16.11
			c-3.77,5.92-6.59,12.16-8.45,18.71c-1.91,5.48-3.05,11.1-3.41,16.87c-0.37,5.77-0.02,11.46,1.04,17.07s2.74,10.97,5.04,16.08
			c2.3,5.11,5.16,9.74,8.58,13.9c5.67,6.21,11.93,10.47,18.77,12.76c6.84,2.29,13.91,3.68,21.21,4.16
			c7.3,0.48,14.58,0.55,21.84,0.22c7.26-0.33,14.15-0.1,20.65,0.68l4.03-0.18l4.57-0.21c0.98-2.2,1.44-4.88,1.39-8.01
			c-0.05-3.14-0.16-6.46-0.32-9.96c-0.16-3.5-0.23-7.04-0.21-10.64c0.01-3.59,0.49-7.03,1.42-10.31c-2.05,2.25-4.37,3.8-6.93,4.63
			c-2.57,0.84-5.33,1.32-8.29,1.46c-2.96,0.13-6.02,0.1-9.17-0.12c-3.16-0.21-6.34-0.25-9.57-0.1c-8.79-3.73-15.85-8.71-21.16-14.94
			c-5.31-6.23-10.32-13.55-15.01-21.96c1.03-1.12,1.6-2.23,1.74-3.31c0.13-1.08,0.17-2.16,0.12-3.24c-0.05-1.08,0.04-2.16,0.26-3.25
			c0.22-1.09,0.84-2.19,1.87-3.32c-0.1-2.15,0.3-4.28,1.19-6.39c0.89-2.1,2.11-3.96,3.66-5.56c1.54-1.59,3.28-2.93,5.21-4.01
			c1.93-1.07,3.97-1.66,6.12-1.76c2.1-1.17,4.18-1.9,6.24-2.17c2.05-0.27,4.02-0.45,5.91-0.54c1.88-0.09,3.63-0.3,5.23-0.64
			c1.6-0.34,2.92-1.08,3.94-2.2c3.28,0.93,5.56,0.74,6.85-0.58c1.29-1.31,2.14-3.2,2.57-5.64c0.43-2.45,0.71-5.11,0.85-7.99
			c0.14-2.88,0.7-5.42,1.68-7.62c-1.17-2.1-2.82-3.69-4.93-4.76c-2.12-1.07-4.53-1.82-7.24-2.23c-2.71-0.42-5.6-0.6-8.65-0.55
			C1206.01,576.79,1202.87,576.89,1199.64,577.04z M1197.01,620.01c-2.15,0.1-3.97,0.68-5.45,1.73c-1.48,1.06-2.59,2.27-3.34,3.66
			c-0.74,1.38-1.04,2.79-0.89,4.22c0.15,1.43,0.79,2.66,1.92,3.69c1.03-1.12,2.92-1.88,5.69-2.28c2.77-0.39,5.62-0.93,8.55-1.6
			c2.93-0.67,5.49-1.73,7.67-3.18c2.18-1.45,3.2-3.78,3.05-7.01c-2.25-2.05-5.12-3-8.62-2.84
			C1202.11,616.55,1199.24,617.76,1197.01,620.01z"/>
		<path class="st1" d="M1376.65,569.27c5.01,3.55,8.93,7.64,11.74,12.27c2.81,4.64,5.19,9.43,7.12,14.37
			c1.93,4.95,3.64,9.94,5.13,15c1.48,5.05,3.32,9.96,5.52,14.71c0.05,1.08-0.14,1.85-0.57,2.32c-0.43,0.47-0.82,0.89-1.16,1.26
			c-0.7,0.39-1.32,0.6-1.86,0.62c-3.68,2.15-6.61,4.93-8.79,8.35c-2.18,3.43-4.28,6.62-6.3,9.59c-2.02,2.97-4.39,5.23-7.1,6.79
			c-2.72,1.56-6.54,1.47-11.47-0.29c-5.65,2.24-12.1,3.65-19.35,4.25c-7.25,0.6-14.73,1.07-22.44,1.42
			c0.13,2.87,0.86,5.13,2.19,6.77c1.33,1.65,2.97,3.01,4.9,4.09c1.94,1.08,4.05,2.15,6.35,3.22c2.29,1.07,4.47,2.54,6.54,4.42
			c2.87-0.13,5.92-0.13,9.16-0.01c3.24,0.12,6.42-0.02,9.55-0.43c3.12-0.41,6.01-1.26,8.65-2.55c2.64-1.29,4.87-3.41,6.72-6.37
			c1.97-0.09,3.28,0.08,3.93,0.49c0.65,0.42,1.12,0.99,1.43,1.69c0.3,0.71,0.56,1.5,0.78,2.39c0.22,0.89,0.89,1.85,2.02,2.87
			c-0.95,2.92-1.08,5.94-0.4,9.05c0.68,3.11,1.22,6.1,1.62,8.96c0.4,2.86,0.15,5.43-0.73,7.72c-0.89,2.29-3.19,4.05-6.9,5.3
			c-3.5,5.91-7.09,11.01-10.76,15.31c-3.67,4.3-7.3,8.42-10.89,12.36c-8.52,2.36-16.89,3.15-25.1,2.35
			c-8.21-0.8-16.12-2.73-23.71-5.8c-7.6-3.07-14.83-6.97-21.69-11.68c-6.87-4.72-13.3-9.82-19.29-15.3
			c-3.09-4.71-5.34-9.64-6.74-14.79c-1.41-5.15-2.36-10.45-2.88-15.91c-0.52-5.46-0.77-11.06-0.76-16.81
			c0.01-5.75-0.12-11.49-0.38-17.23c3.5-9.86,8.51-20.33,15.02-31.41s13.39-21.63,20.67-31.67c1.83,0.82,3.51,1.01,5.01,0.58
			c1.51-0.43,2.82-1.11,3.95-2.07c1.12-0.95,2.19-2.12,3.21-3.52c1.01-1.39,1.95-2.56,2.8-3.5c4.76-2.01,9.9-3.64,15.41-4.88
			c5.51-1.24,11.15-1.85,16.9-1.85c5.75,0.01,11.44,0.61,17.06,1.79C1366.38,564.71,1371.68,566.62,1376.65,569.27z M1279.04,616.02
			c-5.52,5.1-9.3,10.94-11.34,17.5c-2.04,6.56-2.99,13.3-2.86,20.21c0.13,6.91,0.9,13.8,2.28,20.65c1.39,6.86,2.66,13.13,3.82,18.83
			c12.18,14.9,25.28,25.54,39.32,31.91c14.03,6.37,29.58,7.28,46.62,2.74c3.85-2.15,7.45-5.06,10.79-8.71
			c3.34-3.66,5.9-7.41,7.71-11.27c-8.52,2.36-17.27,3.48-26.26,3.35c-9-0.13-17.72-1.45-26.19-3.93
			c-8.47-2.49-16.59-6.21-24.36-11.16c-7.77-4.95-14.71-11.15-20.79-18.6c-3.09-4.71-4.89-9.62-5.39-14.72
			c-0.5-5.1-0.43-10.31,0.23-15.64c0.66-5.33,1.67-10.63,3.05-15.91C1277.06,625.99,1278.18,620.91,1279.04,616.02z M1315.32,572.05
			c-9.29,5.27-16.18,11.7-20.69,19.27c-4.51,7.58-7.64,15.76-9.4,24.55c-1.76,8.8-2.69,17.82-2.81,27.08
			c-0.12,9.26-0.43,18.21-0.94,26.86c1.07,3.73,2.97,7.19,5.73,10.39c2.75,3.2,5.89,6.07,9.42,8.6c3.53,2.53,7.13,4.66,10.8,6.38
			c3.67,1.72,6.96,2.96,9.87,3.73c5.83,1.72,11.6,3.07,17.3,4.07c5.71,1,11.34,1.51,16.92,1.52c5.57,0.02,10.93-0.63,16.09-1.94
			c5.15-1.31,10.08-3.51,14.79-6.6c0.81-2.01,1.27-3.79,1.38-5.32c0.11-1.53,0-3.01-0.34-4.43c-0.33-1.42-0.71-2.84-1.14-4.26
			c-0.43-1.42-0.68-3.11-0.77-5.09c-1.88,2.07-4.15,3.6-6.8,4.62c-2.65,1.02-5.54,1.73-8.66,2.15c-3.13,0.41-6.31,0.47-9.56,0.16
			c-3.25-0.3-6.33-0.83-9.24-1.6c-5.83-1.71-11.39-4.38-16.67-8c-5.29-3.62-9.05-8.26-11.28-13.91c-0.08-1.79-0.36-3.85-0.82-6.16
			c-0.47-2.31-0.89-4.68-1.27-7.09c-0.38-2.41-0.53-4.73-0.45-6.99c0.08-2.25,0.52-4.38,1.33-6.39c6.63-0.3,13.3-1.01,19.98-2.12
			c6.69-1.11,13.37-2.31,20.05-3.61c6.68-1.29,13.36-2.49,20.05-3.61c6.69-1.11,13.35-1.82,19.99-2.12
			c-0.98-1.75-1.79-3.78-2.43-6.09c-0.64-2.3-1.29-4.66-1.94-7.05c-0.65-2.4-1.29-4.75-1.94-7.06c-0.64-2.3-1.46-4.42-2.44-6.36
			c-3.26-8.48-7.91-14.87-13.94-19.18c-6.04-4.31-12.55-7.16-19.53-8.55c-6.98-1.39-14.09-1.56-21.32-0.52
			C1327.42,568.45,1320.97,570,1315.32,572.05z M1350.8,593.62l0.87,19.1c-2.87,0.13-5.68,0.62-8.42,1.46
			c-2.75,0.85-5.45,1.6-8.12,2.26c-2.67,0.66-5.17,0.91-7.51,0.74c-2.34-0.16-4.55-1.18-6.61-3.07c-1.03-2.83-1.43-5.64-1.19-8.44
			c0.23-2.79,0.87-5.43,1.93-7.9c1.05-2.47,2.44-4.65,4.15-6.52c1.71-1.87,3.53-3.39,5.45-4.56c1.93-0.98,4.01-1.57,6.26-1.77
			c2.24-0.19,4.31,0.03,6.23,0.66c1.92,0.63,3.53,1.64,4.85,3.01C1350,589.98,1350.71,591.65,1350.8,593.62z M1329.85,636.9
			c-2.91-0.77-4.74-0.55-5.5,0.65c-0.75,1.21-0.95,2.87-0.58,5.01c0.37,2.14,0.97,4.5,1.8,7.06c0.83,2.57,1.29,4.75,1.37,6.54
			c3.73-1.07,7.91-1.8,12.57-2.19c4.65-0.39,9.35-0.69,14.11-0.91c4.75-0.22,9.45-0.52,14.11-0.91c4.65-0.39,8.84-1.12,12.57-2.19
			c1.79-4.03,3.58-7.35,5.34-9.95c1.77-2.6,3.55-5.82,5.36-9.68c-9.68,0.44-19.88,1.53-30.58,3.27
			C1349.73,635.36,1339.54,636.46,1329.85,636.9z M1324.52,602.63l4.11,7.36l7.53-0.34c-2.06-1.88-4.03-3.55-5.89-4.99
			C1328.41,603.22,1326.49,602.54,1324.52,602.63z M1331.87,598.26l8.15,7.45c1.83,0.82,3.1,1.07,3.81,0.77
			c0.7-0.3,1.17-0.95,1.39-1.95c0.22-1,0.39-2.13,0.52-3.39c0.12-1.26,0.6-2.45,1.45-3.57c-0.08-1.79-0.95-3.15-2.61-4.06
			c-1.66-0.91-3.43-1.33-5.31-1.24c-1.88,0.09-3.61,0.66-5.18,1.72C1332.54,595.04,1331.79,596.47,1331.87,598.26z"/>
	</g>
	<path class="st1" d="M609.08,384.25l-1.95,45.35c2.22,0.1,4.29-0.09,6.2-0.57c1.91-0.47,3.72-0.95,5.41-1.44
		c1.69-0.48,3.43-0.96,5.24-1.44c1.8-0.48,3.92-0.67,6.37-0.56c2.22,0.1,4.69-0.41,7.41-1.52c2.72-1.1,5.38-2.05,7.97-2.83
		c2.59-0.78,4.93-0.9,7.03-0.36c2.09,0.54,3.62,2.49,4.59,5.88c-1.27,3.51-2.03,6.98-2.29,10.42c-0.26,3.44-0.35,6.89-0.28,10.34
		c0.07,3.46,0.26,6.92,0.56,10.38c0.29,3.47,0.37,6.86,0.23,10.2c-2.17-1.43-3.66-1.71-4.47-0.86c-0.82,0.86-1.38,2.28-1.69,4.27
		c-0.31,1.99-0.63,4.32-0.97,6.97c-0.34,2.66-1.11,5.08-2.32,7.25c4.25,4.64,7.35,10.29,9.29,16.94c1.94,6.66,2.76,13.43,2.47,20.32
		c-2.32,2.13-3.99,4.56-4.99,7.3c-1.01,2.74-1.86,5.49-2.53,8.24c-0.68,2.76-1.47,5.56-2.37,8.42c-0.91,2.86-2.52,5.35-4.83,7.47
		c-2.39-1.44-4.69-2.26-6.91-2.47c-2.22-0.21-4.33-0.19-6.35,0.06c-2.01,0.25-3.87,0.56-5.55,0.93c-1.69,0.38-3.09,0.53-4.2,0.49
		c0.86,5.83,0.76,10.78-0.3,14.85c-1.07,4.08-2.84,7.89-5.34,11.46c-2.49,3.57-5.43,7.06-8.8,10.48
		c-3.38,3.42-6.83,7.39-10.37,11.91c-1.02-2.27-2.35-3.61-4-4.01c-1.65-0.4-3.33-0.36-5.02,0.12c-1.69,0.49-3.39,1.14-5.09,1.95
		c-1.71,0.82-3.12,1.2-4.23,1.15c-0.04,0.89-0.3,1.66-0.77,2.3c-0.95,1.3-2.2,1.91-3.75,1.84c-0.89-0.04-1.77-0.3-2.64-0.78
		c-1.53-0.73-2.25-1.99-2.18-3.77l-2.44-36.52l-9.34-0.4c-1.22,2.4-1.98,4.65-2.29,6.75c-0.32,2.11-0.68,4.15-1.1,6.13
		c-0.42,1.99-1.06,3.8-1.9,5.43c-0.85,1.63-2.42,3.07-4.69,4.31c-0.05,1.12-0.54,2.21-1.48,3.28c-0.94,1.08-1.71,2.16-2.31,3.24
		c-0.61,1.09-0.82,2.19-0.64,3.31c0.17,1.12,1.46,2.29,3.86,3.51c-0.05,1.11-0.38,2.21-0.98,3.3c-0.61,1.09-1.15,2.07-1.63,2.94
		c-0.93,0.85-1.75,1.82-2.46,2.9c-6.67-0.29-12.54,0.35-17.62,1.91c-5.08,1.56-10,3.46-14.78,5.71c-0.04,0.89-0.3,1.66-0.77,2.31
		c-0.95,1.3-2.2,1.91-3.75,1.84c-2.13-2.32-3.3-4.88-3.51-7.67c-0.21-2.8-0.15-5.57,0.19-8.34c0.34-2.77,0.68-5.54,1.03-8.31
		c0.34-2.77,0-5.29-1.01-7.56c-1.02-2.27-1.53-4.52-1.55-6.75c-0.02-2.22,0.13-4.34,0.44-6.33c0.3-1.99,0.72-3.81,1.24-5.46
		c0.51-1.65,0.8-3.02,0.85-4.14c-6.89-0.3-13.77,0.36-20.63,1.95c-6.86,1.6-13.67,3.37-20.44,5.3c-1.38,1.06-2.44,2.35-3.17,3.87
		c-0.73,1.53-1.41,2.84-2.01,3.92c-0.61,1.09-1.25,1.84-1.93,2.26c-0.69,0.42-1.56,0.05-2.62-1.12c1.2-2.17,1.7-4.49,1.47-6.95
		c-0.23-2.46-0.68-4.98-1.34-7.57c-0.67-2.59-1.39-5.35-2.15-8.28c-0.77-2.93-1.08-6.06-0.93-9.39c1.25-3.29,2.52-6.85,3.8-10.69
		c1.28-3.84,2.82-7.4,4.63-10.66c1.81-3.26,3.99-6.18,6.56-8.74c2.56-2.56,5.53-4.32,8.91-5.3c2.44,0.11,4.87-0.57,7.27-2.03
		c2.4-1.45,4.82-2.13,7.27-2.03l0.39-9c-4.89-0.21-10.53,0.27-16.93,1.44c-6.4,1.18-13.04,1.61-19.93,1.31
		c-1.07-1.16-1.68-2.52-1.83-4.09c-0.16-1.56-0.2-3.18-0.13-4.85c0.07-1.67,0.03-3.34-0.12-5.02c-0.15-1.68-0.76-3.21-1.81-4.59
		c0.14-3.33,0.77-6.2,1.87-8.6c1.11-2.4,2.37-4.58,3.79-6.52c1.42-1.94,2.94-3.77,4.58-5.48c1.63-1.71,3.05-3.65,4.26-5.83
		c3.33,0.14,6.75-0.43,10.26-1.73c3.51-1.29,6.91-2.87,10.23-4.74c3.31-1.86,6.39-3.73,9.26-5.61c2.86-1.88,5.33-3.44,7.38-4.69
		c0.14-3.33,0.52-6.94,1.13-10.81c0.61-3.87,1.17-7.8,1.68-11.79c0.51-3.99,0.78-7.93,0.84-11.82c0.05-3.89-0.51-7.54-1.7-10.93
		c0.1-2.22,0.68-4.26,1.77-6.1c1.08-1.84,2.21-3.58,3.4-5.2c1.18-1.62,2.31-3.29,3.39-5.03c1.08-1.73,1.66-3.71,1.76-5.94
		c1.16-1.06,2.29-1.68,3.42-1.86c1.12-0.17,2.29-0.23,3.52-0.18c1.22,0.05,2.39-0.01,3.51-0.18c1.12-0.17,2.26-0.79,3.42-1.86
		c2.22,0.1,4.45-0.03,6.7-0.38c2.24-0.35,4.37-0.65,6.38-0.89c2.02-0.25,3.85-0.22,5.51,0.07c1.66,0.3,3.02,1.02,4.08,2.18
		c-1.31,4.4-2.41,9.37-3.31,14.89c-0.91,5.53-1.48,11.13-1.72,16.79c-0.24,5.67-0.15,11.3,0.28,16.88
		c0.43,5.59,1.1,10.63,2.02,15.12c2.44,0.11,5.51,0.07,9.19-0.1c3.68-0.18,6.79-1.32,9.33-3.44c-2.18-1.21-3.38-2.93-3.62-5.17
		c-0.24-2.23-0.19-4.63,0.14-7.18c0.33-2.54,0.66-5.15,1-7.81c0.33-2.66-0.01-5.12-1.02-7.39c-1.02-2.27-1.09-4.56-0.21-6.86
		c0.88-2.3,2.08-4.53,3.63-6.69c1.54-2.16,3.03-4.38,4.46-6.66c1.44-2.28,2.2-4.52,2.3-6.75c3.55,0.15,6.86-0.37,9.92-1.58
		c3.06-1.2,6-2.47,8.85-3.79c2.84-1.32,5.78-2.37,8.82-3.13c3.04-0.76,6.2-0.51,9.49,0.74L609.08,384.25z M459.46,468.68
		c-3.43,2.08-5.64,4.22-6.62,6.4c-0.99,2.19-1.36,4.45-1.13,6.8c0.23,2.35,0.68,4.71,1.36,7.07c0.68,2.37,0.97,4.67,0.87,6.89
		c2.31-2.12,3.66-3.57,4.03-4.34c0.37-0.76,0.6-2.37,0.71-4.81c2.48-0.78,3.93-2,4.33-3.65c0.41-1.65,0.31-3.33-0.28-5.02
		c-0.6-1.7-1.31-3.4-2.12-5.1C459.8,471.2,459.41,469.79,459.46,468.68z M461.91,528.24c-4.96,6.47-7.8,13.08-8.54,19.84
		c-0.74,6.76-0.15,13.75,1.77,20.95c4.76-2.02,7.72-4.68,8.86-7.97c1.14-3.29,1.57-6.83,1.29-10.63c-0.29-3.8-0.96-7.61-2.01-11.44
		C462.22,535.16,461.77,531.58,461.91,528.24z M458.08,500.69c3.43-2.08,7.1-3.25,11.01-3.53c3.9-0.28,7.54-0.51,10.89-0.7
		c3.35-0.19,6.38-0.73,9.09-1.61c2.71-0.89,4.69-3.08,5.96-6.59c-3.33-0.14-6.89-0.41-10.66-0.79c-3.77-0.38-7.34-0.32-10.7,0.21
		c-3.36,0.52-6.42,1.73-9.18,3.61C461.75,493.16,459.61,496.3,458.08,500.69z M591.47,374.14c-1.16,1.07-2.59,1.95-4.29,2.65
		c-1.7,0.71-3.29,1.42-4.77,2.13c-1.48,0.72-2.75,1.72-3.8,3.01c-1.06,1.29-1.63,3.05-1.73,5.27c2.15,7,3.26,14.67,3.35,23.03
		c0.08,8.36-0.02,15.98-0.32,22.87l-0.19,4.33l-5-0.22c-3.38,0.97-6.75,1.5-10.09,1.57c-3.34,0.08-6.42,0.39-9.23,0.94
		c-2.81,0.55-5.36,1.5-7.64,2.85c-2.29,1.35-4.06,3.78-5.33,7.29l-4.45-5.2c-3.02-23.06-2.04-45.74,2.93-68.02
		c-4.45-0.19-7.96-0.18-10.53,0.05c-2.57,0.22-5.13,1.51-7.68,3.85c-1.12-0.05-2.01,0.14-2.7,0.55c-0.69,0.42-1.2,0.73-1.54,0.94
		c-0.34,0.21-0.51,0.26-0.51,0.15c0-0.11,0.03-0.72,0.08-1.83l-0.19,4.33c-0.2,4.67-0.81,9.71-1.82,15.12
		c-1.02,5.42-1.8,10.78-2.36,16.1c-0.56,5.32-0.45,10.45,0.34,15.38c0.79,4.94,2.78,9.14,5.97,12.62
		c-2.55,2.34-5.91,4.15-10.09,5.41c-4.18,1.27-8.55,0.8-13.14-1.4c-4.41,4.04-9.17,7.29-14.28,9.74
		c-5.12,2.45-11.06,4.76-17.83,6.92c-0.05,1.12,0.35,2.24,1.19,3.39c0.84,1.15,1.78,2.47,2.84,3.96c1.05,1.5,1.98,3.15,2.79,4.96
		c0.81,1.82,1.17,3.95,1.06,6.39l32.23-3.62c1.05,1.38,1.65,2.91,1.81,4.59c0.15,1.68,0.02,3.51-0.4,5.49
		c-0.42,1.99-0.9,4.08-1.44,6.28c-0.54,2.21-0.86,4.42-0.95,6.64c2.02,4.76,2.77,8.14,2.24,10.12c-0.54,1.98-1.93,3.26-4.17,3.83
		c-2.25,0.57-5.04,0.68-8.36,0.31c-3.32-0.36-6.72-0.51-10.17-0.44c-3.46,0.08-6.7,0.55-9.75,1.42c-3.04,0.87-5.3,2.84-6.77,5.89
		c-0.19,4.45,0.45,8.99,1.92,13.61c1.47,4.63,3.32,9.33,5.57,14.1c2.44,0.11,4.87-0.51,7.26-1.86c2.4-1.34,4.6-1.97,6.59-1.89
		c4.77-2.24,10.19-4.01,16.26-5.31c6.07-1.3,11.39-0.73,15.96,1.69l-1.56,36.34l27.53-3.16c0.05-1.11,0.27-2.44,0.67-3.98
		c0.4-1.54,0.63-3.03,0.69-4.48c0.06-1.44-0.28-2.68-1.01-3.72c-0.74-1.03-2.22-1.6-4.44-1.69c2.27-1.01,3.6-2.13,3.98-3.34
		c0.39-1.2,0.5-2.54,0.34-3.99c-0.16-1.45-0.32-3.02-0.47-4.7c-0.15-1.68,0.38-3.71,1.6-6.11c0.05-1.11,0.58-1.92,1.61-2.44
		c1.02-0.51,2.21-0.91,3.56-1.18c1.35-0.28,2.8-0.38,4.36-0.31c1.55,0.07,2.89,0.12,4,0.17c4.44,0.19,8.09-0.49,10.94-2.03
		c2.85-1.55,5.39-2.27,7.61-2.18c-0.15,3.56,0.15,6.85,0.91,9.89c0.76,3.04,1.52,6.03,2.29,8.95c0.76,2.93,1.25,5.85,1.46,8.75
		c0.21,2.91-0.32,6.11-1.58,9.62l9,0.39c1.16-1.06,2.97-1.93,5.46-2.6c2.48-0.67,5.02-1.56,7.63-2.68c2.6-1.11,4.9-2.57,6.87-4.38
		c1.97-1.8,3.03-4.38,3.17-7.71c-1.95-1.2-3.07-2.41-3.35-3.65c-0.28-1.23-0.28-2.57,0.01-4.01c0.28-1.43,0.57-3.03,0.87-4.81
		c0.29-1.77,0.05-3.89-0.73-6.38c0.04-0.89-0.37-1.91-1.2-3.06c-0.84-1.15-1.69-2.3-2.52-3.45c-0.84-1.15-1.4-2.34-1.68-3.58
		c-0.28-1.23,0.27-2.38,1.65-3.44c3.29,1.26,6.81,2.02,10.59,2.29c3.77,0.28,7.67,0.22,11.7-0.17c4.02-0.38,8-0.99,11.94-1.82
		c3.93-0.83,7.59-1.73,10.97-2.7c0.3-6.89-0.34-12.82-1.91-17.79c-1.57-4.96-3.37-9.72-5.4-14.26c-6.98,1.7-13.02,3.62-18.12,5.74
		c-5.1,2.12-9.93,4.2-14.47,6.23c-2.4-1.22-3.9-2.62-4.5-4.2c-0.6-1.58-0.86-3.21-0.79-4.88c0.07-1.67,0.36-3.33,0.88-4.97
		c0.52-1.65,0.8-3.14,0.86-4.47c0.1-2.22-0.27-4.24-1.08-6.06c-0.82-1.81-1.47-3.4-1.97-4.76c-0.5-1.36-0.61-2.64-0.33-3.86
		c0.27-1.21,1.65-2.32,4.15-3.33c3.29,1.26,6.61,1.73,9.96,1.43c3.35-0.3,6.72-0.93,10.1-1.9c3.38-0.97,6.83-2.15,10.34-3.56
		c3.51-1.41,7.07-2.59,10.68-3.55l-2.96-32.2c-3.39,1.19-7.05,2.09-10.97,2.7c-3.93,0.61-7.79,1.23-11.6,1.84
		c-3.82,0.62-7.41,1.52-10.81,2.71c-3.39,1.19-6.25,2.85-8.57,4.98l-4.33-0.19c0.19-4.44,0.15-8.68-0.12-12.7
		c-0.28-4.02-0.49-7.92-0.66-11.72c-0.17-3.79-0.07-7.4,0.3-10.84c0.37-3.43,1.18-6.91,2.45-10.42c0.1-2.22,0.13-4.39,0.11-6.51
		c-0.02-2.11-0.44-4.03-1.26-5.73c-0.82-1.71-2.15-3.15-3.99-4.35C597.39,374.95,594.81,374.28,591.47,374.14z M501.43,557
		l5.04-8.47c-3.61,0.96-7.54,1.74-11.79,2.33c-4.26,0.6-8.42,1.53-12.48,2.8c-4.06,1.28-7.7,3.07-10.92,5.38
		c-3.22,2.31-5.37,5.78-6.46,10.41L501.43,557z M499.24,506.8l0.79-18.34c-2.65,4.56-4.81,8.14-6.48,10.74
		c-1.67,2.6-1.44,5.06,0.68,7.38L499.24,506.8z M513.53,384.48c-1.16,1.07-2.55,2.18-4.15,3.33c-1.61,1.16-3.06,2.43-4.34,3.82
		c-1.29,1.4-2.13,2.97-2.54,4.74c-0.41,1.77,0,3.79,1.24,6.07c0.97,3.38,1.21,6.79,0.73,10.22c-0.48,3.43-0.96,6.86-1.44,10.29
		c-0.48,3.43-0.63,6.82-0.44,10.17c0.19,3.35,1.43,6.74,3.74,10.18l4.67,0.2c-2.06-9.22-2.85-19.05-2.4-29.5
		C509.03,403.55,510.68,393.71,513.53,384.48z M510.61,553.05c-3.48,3.19-5.54,7-6.17,11.43c-0.64,4.43-0.78,9.1-0.44,14.01
		c0.34,4.92,0.75,9.83,1.2,14.75c0.46,4.92,0.03,9.69-1.28,14.31c3.54-4.53,5.84-9.04,6.93-13.56c1.08-4.52,1.56-9,1.41-13.47
		c-0.14-4.46-0.51-8.98-1.09-13.58C510.6,562.35,510.41,557.72,510.61,553.05z M546.13,581.64l-23.41,8.35
		c-2.33,2.35-4.52,5.32-6.56,8.9c-2.05,3.59-3.12,6.6-3.23,9.05c2.44,0.11,5.76-0.59,9.94-2.08c4.18-1.49,8.5-2.14,12.94-1.95
		c0.19-4.44,1.29-8.13,3.31-11.05C541.15,589.95,543.48,586.2,546.13,581.64z M583.1,459.97c-1.27,3.51-1.07,7.92,0.6,13.22
		c1.66,5.31,2.94,10.43,3.85,15.36c0.9,4.94,0.5,9.1-1.21,12.48c-1.71,3.38-6.56,4.9-14.56,4.55l-4-0.17
		c-4.76,2.02-9.44,3.27-14.02,3.74c-4.59,0.47-9.26,1.83-14.04,4.07c-1.02-2.27-1.59-4.52-1.71-6.75c-0.13-2.23-0.15-4.35-0.06-6.35
		c0.09-2,0.05-3.84-0.1-5.52c-0.15-1.68-0.75-3.21-1.81-4.59c2.53-1.89,4.05-4.95,4.57-9.16c0.51-4.21,0.87-8.53,1.06-12.98
		l0.2-4.67l4.47,4.87c4.54-2.03,10.11-3.35,16.71-3.96C569.64,463.51,576.33,462.13,583.1,459.97z M573.35,469.23l-22.53,3.37
		l-4.67-0.2l-0.6,14c1.11,0.05,2.01-0.19,2.7-0.72c0.69-0.52,1.32-1.05,1.91-1.59c0.58-0.53,1.21-1.06,1.9-1.59
		c0.69-0.52,1.59-0.77,2.7-0.72c2.16,1.43,4.15,1.74,5.97,0.92c1.82-0.81,3.48-2.02,5-3.63c1.51-1.61,2.87-3.38,4.07-5.34
		C571.01,471.81,572.19,470.3,573.35,469.23z M545.16,495.41l-0.39,9l18.21-3.89l0.57-13.34c-4.45-0.19-7.99,0.55-10.62,2.22
		C550.3,491.07,547.71,493.08,545.16,495.41z M575.04,546.47c-2.28,1.24-4.98,1.74-8.08,1.49c-3.11-0.24-5.95-0.31-8.51-0.2
		c-2.57,0.11-4.61,0.92-6.12,2.41c-1.51,1.5-1.81,4.49-0.89,8.98l9,0.39c2.44,0.11,4.85-1.46,7.22-4.7
		C570.02,551.6,572.48,548.82,575.04,546.47z M567.88,386.82c-2.52,6.8-4.12,14.35-4.82,22.68c-0.69,8.32-1.19,15.93-1.48,22.82
		l13.54-4.09c0.3-6.89,0.2-13.74-0.29-20.56C574.34,400.85,572.02,393.91,567.88,386.82z M578.16,473.78
		c-4.54,2.03-7.3,5.2-8.26,9.5c-0.97,4.3-1.54,8.68-1.73,13.12c2,0.09,4.18-0.04,6.53-0.39c2.35-0.34,4.69-1.69,7.02-4.04
		L578.16,473.78z M579.16,551.66c-4.76,2.02-7.71,4.4-8.83,7.14c-1.12,2.74-1.41,5.68-0.88,8.82c0.53,3.14,1.34,6.46,2.41,9.96
		c1.07,3.5,1.54,6.91,1.4,10.25c1.21-2.17,2.16-4.92,2.86-8.23c0.7-3.31,1.29-6.68,1.77-10.11c0.48-3.43,0.79-6.7,0.92-9.81
		C578.95,556.55,579.06,553.89,579.16,551.66z M577.41,592.34c2.22,0.1,4.29-0.03,6.2-0.4c1.91-0.36,3.7-0.62,5.38-0.77
		c1.68-0.15,3.4-0.13,5.18,0.06c1.77,0.19,3.75,0.89,5.92,2.09c2.54-2.11,4.81-4.47,6.82-7.06c2-2.59,3.1-6.1,3.29-10.55
		c-3.38,0.97-6.75,1.71-10.12,2.24c-3.36,0.52-6.52,1.34-9.46,2.43c-2.94,1.1-5.57,2.55-7.87,4.34
		C580.44,586.52,578.66,589.05,577.41,592.34z M614.51,475.35l-0.39,9c2.32-2.12,5.32-3.33,9.01-3.62
		c3.69-0.29,7.26-0.63,10.74-1.04c3.47-0.4,6.46-1.39,8.98-2.95c2.52-1.56,3.87-4.56,4.06-9.01c-7,2.15-13.01,3.45-18.04,3.9
		C623.84,472.07,619.05,473.32,614.51,475.35z M617.73,493.53l-4-0.17c2.22,0.1,4.52-0.25,6.89-1.04c2.37-0.78,4.69-1.74,6.97-2.87
		c2.27-1.12,4.54-2.09,6.8-2.88c2.26-0.79,4.5-1.14,6.73-1.05c-4.45-0.19-8.8,0.01-13.05,0.61
		C623.82,486.72,620.37,489.19,617.73,493.53z M615.96,534.87l4.43,13.55c2.27-1.01,5.02-1.62,8.26-1.82
		c3.24-0.2,6.26-0.62,9.08-1.28c2.81-0.66,5.26-2,7.36-4.03c2.09-2.02,3.23-5.26,3.42-9.71c-4.67-0.2-9.48,0.37-14.44,1.72
		C629.1,534.66,623.07,535.18,615.96,534.87z"/>
	<g>
		<path class="st2" d="M851.12,396.8c0.08-6.33,0.35-12.64,0.82-18.96c0.46-6.31,0.89-12.59,1.29-18.84
			c0.39-6.25,0.41-12.42,0.04-18.52c-0.64-2.69-1.59-4.28-2.83-4.78c-1.25-0.5-2.63-0.59-4.17-0.27c-1.53,0.31-3.1,0.6-4.69,0.84
			c-1.6,0.25-2.99-0.35-4.2-1.8c-4.16,2.48-8.78,3.83-13.85,4.06c-5.08,0.23-10.33,0.22-15.76-0.01
			c-4.34,6.65-8.66,13.62-12.96,20.9c-4.3,7.29-8.62,14.19-12.95,20.72c-1.88-3.37-4.06-6.51-6.53-9.4
			c-2.47-2.89-5.08-5.63-7.81-8.22c-2.74-2.59-5.54-5.18-8.4-7.77c-2.87-2.59-5.57-5.27-8.11-8.04c-1.37-0.69-2.84-0.98-4.43-0.86
			c-1.59,0.12-3.4,0.3-5.44,0.53c-2.04,0.23-4.23,0.39-6.57,0.48c-2.35,0.09-4.83-0.3-7.45-1.18c-0.67,0.73-1.64,1.26-2.92,1.58
			c-1.28,0.33-2.59,0.55-3.92,0.69c-1.34,0.13-2.6,0.17-3.8,0.12c-1.2-0.05-2.12-0.09-2.75-0.12c-0.03,0.63,0.08,1.02,0.33,1.15
			c0.25,0.14,0.56,0.21,0.94,0.23c0.38,0.02,0.69,0.09,0.94,0.23c0.25,0.14,0.36,0.52,0.33,1.15c-2.16,3.2-3.79,6.45-4.88,9.76
			c-1.09,3.31-2.03,6.59-2.8,9.85c-0.78,3.26-1.68,6.55-2.7,9.85c-1.03,3.31-2.63,6.63-4.8,9.96c1.1,6.76,2.05,13.48,2.84,20.16
			c0.79,6.68,1.04,13.43,0.74,20.26c0.4,5.34,0.45,10.82,0.15,16.44c-0.31,5.62-0.58,11.18-0.81,16.68
			c-0.24,5.5-0.18,10.88,0.16,16.15c0.34,5.27,1.42,10.29,3.25,15.05c2.05-0.55,4.23-1.24,6.55-2.09c2.32-0.85,4.66-1.64,7.03-2.36
			c2.37-0.72,4.71-1.32,7.01-1.79c2.3-0.47,4.46-0.66,6.48-0.58c5.54-5.21,9.19-10.46,10.93-15.77c1.75-5.31,2.65-10.81,2.7-16.5
			c0.05-5.7-0.2-11.59-0.76-17.7c-0.56-6.1-0.38-12.49,0.54-19.16c1.3,2.08,2.86,4.05,4.68,5.9c1.82,1.85,3.7,3.64,5.66,5.37
			c1.95,1.73,3.81,3.49,5.57,5.27c1.76,1.79,3.29,3.72,4.59,5.8c1.36,0.69,2.72,0.88,4.06,0.55c1.34-0.32,2.69-0.71,4.04-1.16
			c1.35-0.45,2.69-0.67,4.02-0.68c1.33-0.01,2.66,0.65,4,1.98l5.61-2.42l-2.73-2.78c0.87-2.62,1.95-4.98,3.25-7.08
			c1.29-2.1,2.65-4.13,4.06-6.09c1.41-1.96,2.8-3.96,4.15-5.99c1.35-2.03,2.4-4.36,3.15-6.99c1.1,6.76,2.05,13.48,2.84,20.16
			c0.79,6.68,1.04,13.43,0.74,20.26c0.68,1.93,1,3.91,0.98,5.93c-0.02,2.03-0.08,4.02-0.16,5.98c-0.08,1.96-0.11,3.95-0.07,5.98
			c0.04,2.03,0.39,4.07,1.07,6.12c-0.91,0.59-1.63,1.13-2.16,1.62c-0.4,0.49-0.52,1.05-0.36,1.69c0.16,0.64,0.92,1.3,2.29,2
			c2.74-1.91,5.45-2.96,8.11-3.16c2.67-0.2,5.33-0.25,7.98-0.13c2.65,0.11,5.31,0.07,7.98-0.13c2.67-0.2,5.37-1.26,8.11-3.17
			l-2.53-2.96l14.14-15.16c-0.49-3.44-0.59-6.83-0.32-10.18c0.27-3.34,0.67-6.68,1.19-10.02c0.52-3.33,0.92-6.67,1.19-10.02
			c0.27-3.34,0.16-6.67-0.33-9.99C851.56,409.35,851.04,403.12,851.12,396.8z M707.86,484.08c0.29-6.7,0.55-13.65,0.8-20.86
			c0.24-7.21,0.37-14.48,0.37-21.83c0-7.34-0.22-14.66-0.67-21.97c-0.45-7.3-1.22-14.33-2.32-21.09c-0.49-3.44-0.53-6.83-0.13-10.17
			c0.4-3.34,1.08-6.63,2.04-9.88c0.96-3.25,2.15-6.52,3.56-9.82c1.41-3.29,2.88-6.55,4.41-9.78c0.46,18.76,0.43,37.06-0.08,54.89
			c-0.51,17.83-1.17,36.1-1.98,54.81c-0.11,2.65-0.77,5.29-1.95,7.89C710.71,478.88,709.36,481.48,707.86,484.08z M738.17,477.03
			c-1.39,2.85-3.47,5.55-6.24,8.09l-18.89,2.04c0.12-2.78,0.47-5.93,1.07-9.45c0.59-3.52,2.28-6.55,5.04-9.09
			c3.98,1.56,7.89,1.95,11.73,1.17c3.83-0.78,7.04-1.82,9.63-3.1C740.34,470.72,739.56,474.17,738.17,477.03z M770.15,424.75
			c-0.3,2.58-1.66,5.41-4.07,8.47c-3.2-2.16-6.07-4.63-8.61-7.4c-2.54-2.77-4.57-5.77-6.07-9c-1.51-3.23-2.5-6.69-2.97-10.38
			c-0.48-3.69-0.31-7.55,0.5-11.57l0.23-5.31c0.77,2.69,2.05,5.22,3.85,7.57c1.8,2.36,3.72,4.66,5.78,6.9
			c2.06,2.24,4.05,4.45,5.98,6.62c1.93,2.17,3.39,4.42,4.36,6.74C770.11,419.71,770.45,422.16,770.15,424.75z M787.45,428.72
			c-0.81,2.69-2.6,5.3-5.37,7.84c-1.39-0.06-2.86,0.32-4.42,1.14c-1.55,0.82-3.66,1.17-6.31,1.06l3.23-13.35
			c2.71-1.28,5.41-2.05,8.08-2.31c2.67-0.26,5.42-1.03,8.27-2.3C789.42,423.39,788.26,426.03,787.45,428.72z M808.62,437.61
			c-0.28-5.39-0.68-10.79-1.2-16.2c-0.53-5.4-1.37-10.79-2.53-16.16l9.07-21.07c0.4,5.34,0.72,10.54,0.94,15.62
			c0.22,5.07,0.48,10.06,0.78,14.94c0.29,4.89,0.69,9.72,1.18,14.49c0.49,4.77,1.33,9.52,2.52,14.26
			c-0.23,5.44-1.1,10.18-2.61,14.23c-1.5,4.05-3.67,8.04-6.5,11.97c-0.41-5.34-0.71-10.67-0.93-15.99
			C809.14,448.36,808.9,443,808.62,437.61z M831.39,473.44c-4.05-0.17-7.59-0.23-10.63-0.17c-3.04,0.06-6.61,0.69-10.72,1.91
			c1.46-4.62,3.63-7.88,6.5-9.79c2.87-1.9,5.99-3.19,9.38-3.87c3.38-0.68,6.79-1.13,10.22-1.36c3.43-0.23,6.5-0.92,9.21-2.07
			L831.39,473.44z M845.58,452.78c-2.08,1.31-4.12,2.26-6.11,2.87c-1.99,0.61-4.01,1.13-6.05,1.54c-2.04,0.42-4.05,0.78-6.03,1.07
			c-1.98,0.3-3.99,0.72-6.04,1.26c1.43-3.86,2.16-7.53,2.18-11.02c0.02-3.48-0.21-6.88-0.7-10.19c-0.49-3.31-1.04-6.72-1.65-10.23
			c-0.61-3.51-0.83-7.28-0.65-11.33c0.29-6.82,0.04-13.58-0.74-20.26c-0.79-6.68-1.73-13.4-2.84-20.16
			c0.03-0.63-0.11-1.11-0.41-1.44c-0.3-0.33-0.58-0.62-0.82-0.89c-0.5-0.27-0.93-0.42-1.31-0.44c-1.51,2.59-3,5.76-4.49,9.49
			c-1.49,3.74-3.02,7.6-4.58,11.58l-11.54,20.97c-1.39-0.06-2.76,0.17-4.11,0.68c-1.35,0.51-2.7,1.06-4.06,1.63
			c-1.35,0.58-2.74,1.12-4.15,1.63c-1.42,0.51-2.76,0.74-4.02,0.68c0.09-2.02-0.28-3.75-1.11-5.18c-0.83-1.43-1.91-2.68-3.26-3.75
			c-1.35-1.07-2.8-1.99-4.34-2.75c-1.55-0.76-2.94-1.55-4.17-2.36c-0.55-2.05-1.51-3.96-2.89-5.73c-1.38-1.77-2.69-3.6-3.94-5.49
			c-1.25-1.89-2.21-3.92-2.87-6.11c-0.67-2.18-0.63-4.59,0.12-7.21c-0.63-0.03-1.13-0.17-1.5-0.44c-0.37-0.27-0.73-0.6-1.1-1
			c-0.36-0.4-0.73-0.73-1.1-1c-0.37-0.27-0.93-0.42-1.69-0.45c-1.98,1.94-3.32,4.32-4.01,7.14c-0.69,2.82-1.1,5.75-1.23,8.78
			c-0.13,3.03-0.23,5.97-0.28,8.82c-0.06,2.85-0.45,5.27-1.17,7.26c1.96,16.17,1.28,32.15-2.06,47.96l2.54,2.77
			c-4.03,2.49-8.04,3.77-12.04,3.85c-3.99,0.08-7.98-0.66-11.97-2.22c0.02-0.38-0.09-0.83-0.32-1.34c-0.24-0.26-0.52-0.56-0.82-0.89
			c-0.3-0.33-0.77-0.51-1.4-0.53c0.75-17.31,1.42-35.17,2.02-53.57c0.6-18.4,0.61-37.04,0.03-55.93c5.37-1.16,11.18-1.7,17.45-1.62
			c6.26,0.08,12.05,0.23,17.36,0.46c1.88,3.37,4.02,6.63,6.42,9.77c2.4,3.14,4.89,6.29,7.48,9.44c2.59,3.15,5.08,6.3,7.48,9.44
			c2.4,3.14,4.54,6.4,6.42,9.77c1.32-1.21,2.39-2.62,3.22-4.23c0.83-1.61,1.53-3.23,2.11-4.85c0.57-1.62,1.12-3.21,1.63-4.77
			c0.51-1.56,1.11-2.96,1.8-4.2c2.11-1.93,3.94-4.01,5.49-6.22c1.55-2.21,3.04-4.49,4.47-6.84c1.43-2.34,2.92-4.62,4.47-6.83
			c1.55-2.21,3.38-4.29,5.49-6.22c5.49-1.16,10.24-1.84,14.24-2.05c4-0.21,7.35-0.95,10.07-2.23c1.17,2.08,2.44,2.89,3.79,2.44
			c1.35-0.45,2.61-1.06,3.78-1.83c1.17-0.77,2.27-1.2,3.28-1.28c1.02-0.08,1.78,1.22,2.3,3.9c0.4,5.34,0.45,10.82,0.15,16.44
			c-0.31,5.62-0.58,11.28-0.83,16.96s-0.2,11.36,0.12,17c0.33,5.65,1.39,11.17,3.18,16.57L845.58,452.78z"/>
		<path class="st2" d="M932.29,408.46c-3.28-1.79-6.91-3.46-10.89-5.03c-2.65-0.11-4.99,0.48-7.01,1.79
			c-2.02,1.31-3.96,2.9-5.81,4.78c-1.86,1.88-3.68,3.8-5.47,5.75c-1.79,1.95-3.73,3.51-5.8,4.69c1.2,1.45,2.03,2.94,2.47,4.47
			c0.44,1.54,0.82,3.04,1.14,4.51c0.32,1.47,0.67,2.85,1.06,4.13c0.39,1.28,1.26,2.27,2.63,2.96c3.68,2.69,7.9,4.01,12.65,3.96
			c4.75-0.05,9.1-1.89,13.06-5.52c4.15-2.35,6.95-4.92,8.4-7.71c1.45-2.79,1.56-6.11,0.33-9.96
			C937.81,413.19,935.57,410.24,932.29,408.46z M936.32,422.87c-0.59,1.87-1.48,3.58-2.69,5.11c-1.21,1.53-2.56,2.9-4.07,4.1
			c-1.51,1.2-2.91,2.09-4.2,2.67c-1.42,0.57-3.05,1.01-4.9,1.31c-1.85,0.3-3.75,0.41-5.71,0.32c-1.96-0.08-3.82-0.35-5.57-0.81
			c-1.76-0.46-3.25-1.02-4.49-1.71c-1.33-1.45-2.05-3.22-2.15-5.32c-0.1-2.09-0.12-3.83-0.06-5.23c1.29-0.58,2.6-0.9,3.94-0.97
			c1.33-0.07,2.63,0.02,3.88,0.26c1.25,0.24,2.51,0.52,3.76,0.83c1.25,0.31,2.57,0.49,3.96,0.55l10.09,8.22l2.38-2.37
			c-1.18-2.07-2.65-3.91-4.42-5.51c-1.77-1.6-3.67-2.91-5.72-3.95c-2.04-1.04-4.14-1.73-6.27-2.07c-2.14-0.34-4.17-0.24-6.09,0.31
			c1.25-2.61,3.12-4.96,5.62-7.07c2.49-2.11,5.01-3.11,7.54-3c2.02,0.09,3.69,0.32,5,0.69c1.31,0.37,2.52,0.93,3.63,1.68
			c1.11,0.74,2.14,1.64,3.11,2.7c0.97,1.06,2.12,2.25,3.45,3.57C936.93,419.1,936.91,421,936.32,422.87z"/>
		<path class="st2" d="M972.29,427.75c-0.91-3.9-1.59-7.82-2.06-11.77c0.14-3.29-0.01-6.39-0.45-9.33c-0.44-2.93-0.92-5.8-1.43-8.61
			c-0.51-2.81-1-5.52-1.45-8.14c-0.46-2.61-0.63-5.25-0.51-7.9c-2.48-1.37-5.44-2.23-8.91-2.57c-3.47-0.34-6.47-0.56-8.99-0.67
			c-2.63-0.75-4.4-0.73-5.32,0.06c-0.92,0.79-1.48,1.87-1.66,3.25c-0.19,1.39-0.29,2.96-0.3,4.74c-0.01,1.77-0.36,3.28-1.05,4.51
			c-1.94-1.98-4.12-3.56-6.54-4.74c-2.42-1.18-4.92-1.98-7.49-2.41c-2.58-0.43-5.1-0.53-7.58-0.33c-2.48,0.21-4.74,0.59-6.79,1.13
			c-1.26-0.05-2.54,0.15-3.82,0.6c-1.29,0.45-2.51,0.91-3.67,1.36c-1.16,0.46-2.22,0.73-3.17,0.81c-0.95,0.09-1.73-0.2-2.34-0.86
			c-10.7,7.39-19.33,15.98-25.9,25.76c-6.56,9.78-10.79,20.52-12.69,32.22c-0.83,4.52-0.63,8.74,0.6,12.66
			c1.22,3.92,3.16,7.54,5.8,10.89c2.64,3.34,5.74,6.39,9.29,9.14c3.55,2.75,7.19,5.15,10.9,7.21c3.86,1.56,7.59,2.32,11.2,2.29
			c3.61-0.03,7.15-0.55,10.61-1.54c3.46-0.99,6.84-2.33,10.14-4.03c3.3-1.69,6.57-3.42,9.81-5.18c0.57,1.42,0.89,2.76,0.97,4.03
			c0.07,1.27,0.18,2.54,0.31,3.81c0.14,1.27,0.39,2.58,0.78,3.93c0.38,1.35,1.24,2.68,2.58,4c1.98-1.81,4.25-3.24,6.83-4.26
			c2.58-1.03,5.14-1.9,7.71-2.61c2.56-0.72,5.12-1.39,7.69-2.04c2.56-0.65,4.82-1.57,6.77-2.75c1.32-1.21,2.42-2.59,3.31-4.13
			c0.89-1.54,1.68-3.12,2.39-4.74c0.7-1.61,1.43-3.17,2.19-4.65c0.76-1.49,1.8-2.83,3.12-4.04c1.43-3.86,2.2-7.76,2.31-11.68
			c0.1-3.92-0.17-7.82-0.83-11.72C973.98,435.54,973.2,431.65,972.29,427.75z M931.39,471.29c-3.87,1.73-7.94,3.65-12.21,5.74
			c-4.27,2.1-8.52,3.72-12.74,4.86c-4.23,1.15-8.42,1.47-12.58,0.98c-4.16-0.5-8.06-2.47-11.71-5.92c-2.57-2.01-5.14-4.21-7.69-6.6
			c-2.56-2.39-4.76-5.02-6.59-7.88c-1.84-2.86-3.07-5.95-3.68-9.28c-0.62-3.32-0.21-6.91,1.22-10.77c0.77-3.13,1.44-6.3,2.02-9.5
			c0.58-3.2,1.35-6.3,2.3-9.3c0.95-3,2.18-5.92,3.7-8.77c1.51-2.85,3.66-5.54,6.43-8.08c-4.2,6.28-6.55,13.2-7.07,20.78
			c-0.52,7.57,0.32,15.34,2.51,23.28c2.49,4.03,5.45,7.93,8.9,11.68c3.45,3.76,7.07,7.05,10.88,9.87c3.86,1.43,7.61,2,11.23,1.72
			c3.62-0.29,7.17-1.08,10.64-2.39c3.48-1.3,6.87-2.93,10.18-4.88c3.31-1.95,6.65-3.8,10.02-5.55L931.39,471.29z M934.34,480.26
			c0.39-0.92,0.74-1.94,1.07-3.1c0.52-1.88,1.05-3.78,1.58-5.72c0.53-1.94,1.21-3.78,2.04-5.52c0.83-1.74,1.91-3.21,3.23-4.42
			c1.81,1.98,2.53,3.78,2.14,5.41c-0.39,1.63-1.25,3.24-2.58,4.83c-1.34,1.59-2.86,3.2-4.58,4.84
			C936.01,477.74,935.05,478.97,934.34,480.26z M962.9,473.88c-1.55,2.15-3.49,3.81-5.82,4.97c-2.33,1.16-4.91,2.13-7.72,2.9
			c-2.82,0.76-5.52,1.72-8.1,2.88l-2.46-0.11c0.05-1.26,0.52-2.51,1.4-3.74c0.88-1.23,1.91-2.48,3.11-3.76
			c1.2-1.28,2.36-2.52,3.49-3.74c1.13-1.22,2.04-2.51,2.73-3.87c2.71-1.28,5.41-2.05,8.08-2.31c2.67-0.26,5.3-1.04,7.89-2.32
			C965.31,468.69,964.45,471.73,962.9,473.88z M970.4,449.79c-0.04,2.28-0.26,4.45-0.66,6.52c-0.41,2.07-1.27,3.78-2.59,5.11
			c-1.33,1.34-3.55,1.62-6.68,0.85c-0.66,0.61-1.5,0.92-2.51,0.94c-1.02,0.02-2.09,0.01-3.23-0.04c-1.14-0.05-2.31-0.03-3.52,0.04
			c-1.21,0.08-2.45,0.34-3.74,0.79c-0.58-1.29-0.81-2.57-0.69-3.83c0.12-1.26,0.3-2.52,0.54-3.78c0.24-1.25,0.3-2.52,0.16-3.79
			c-0.13-1.27-0.81-2.63-2.01-4.08c-1.92,0.55-3.65,1.55-5.16,3.01c-1.52,1.45-2.95,2.94-4.28,4.47c-1.33,1.53-2.73,2.99-4.18,4.38
			c-1.45,1.39-3.14,2.3-5.06,2.73c-5.42,2.43-10.71,3.97-15.87,4.64c-5.16,0.67-10.33-0.44-15.53-3.33
			c-3.71-2.06-6.83-4.57-9.36-7.53c-2.53-2.96-4.55-6.18-6.04-9.66c-1.5-3.48-2.51-7.14-3.04-10.96c-0.53-3.82-0.72-7.63-0.55-11.42
			c0.77-3.13,1.89-6.38,3.36-9.73c1.47-3.36,3.26-6.54,5.35-9.55c2.09-3.01,4.48-5.66,7.18-7.95c2.69-2.29,5.65-4.06,8.87-5.32
			c2.77-2.54,5.96-3.95,9.58-4.24c3.62-0.29,7.39-0.35,11.31-0.18c0.6,0.66,1.38,1.07,2.32,1.24c0.94,0.17,1.89,0.18,2.85,0.03
			c0.96-0.15,1.88-0.33,2.78-0.55c0.89-0.21,1.66-0.31,2.29-0.28c1.26,0.05,2.39,0.99,3.39,2.81c1,1.82,1.96,3.57,2.91,5.25
			c0.94,1.69,1.9,2.81,2.89,3.35c0.99,0.55,2.17-0.41,3.54-2.89c0.05-1.26,0.02-2.69-0.1-4.28c-0.12-1.59-0.15-3.11-0.09-4.56
			c0.06-1.45,0.34-2.8,0.84-4.05c0.5-1.24,1.39-2.15,2.68-2.73l12.89,0.55c1.67,5.27,2.97,10.51,3.88,15.74
			c0.91,5.23,1.67,10.42,2.27,15.58c0.6,5.15,1.17,10.34,1.7,15.55c0.54,5.22,1.32,10.44,2.36,15.68
			C970.79,445.7,970.43,447.51,970.4,449.79z"/>
		<path class="st2" d="M1069.08,440.65c-5.75-7.66-12.31-14.11-19.68-19.37c2-2.44,3.88-4.9,5.63-7.35
			c1.75-2.46,3.54-4.91,5.35-7.37c1.82-2.45,3.75-4.87,5.82-7.25c2.06-2.38,4.41-4.78,7.05-7.2c0.05-1.26-0.3-2.58-1.06-3.94
			c-0.77-1.36-1.75-2.76-2.95-4.21c-1.21-1.44-2.5-2.99-3.88-4.63c-1.39-1.64-2.67-3.44-3.85-5.39l-2.46-0.11
			c-4.06,6.16-8.61,11.82-13.65,16.98c-5.04,5.17-10.28,10.86-15.74,17.08c-1.02-5.74-1.89-11.19-2.62-16.35
			c-0.73-5.16-1.27-10.28-1.62-15.36c-0.35-5.08-0.58-10.19-0.67-15.32c-0.1-5.13-0.02-10.54,0.22-16.23l-2.54-2.77
			c-2.59,1.28-5.63,2.04-9.12,2.27c-3.49,0.23-7.16,0.9-11.01,2c-1.42,0.57-2.34,0.63-2.76,0.17c-0.43-0.46-0.71-1.1-0.87-1.94
			c-0.15-0.83-0.28-1.63-0.37-2.39c-0.09-0.76-0.46-1.16-1.09-1.19c-0.66,0.61-1.07,1.35-1.23,2.23c-0.17,0.88-0.36,1.69-0.58,2.44
			c-0.22,0.75-0.57,1.4-1.03,1.95c-0.47,0.55-1.33,0.8-2.6,0.74c-0.11,2.53-0.62,4.88-1.54,7.06c-0.92,2.18-1.96,4.28-3.12,6.32
			c-1.17,2.04-2.33,4.02-3.48,5.93c-1.16,1.91-2.1,3.8-2.81,5.67c0.89,8.78,1.7,17.04,2.45,24.8c0.74,7.76,0.95,15.43,0.62,23.01
			c0.89,5.74,1.65,11.56,2.29,17.48c0.63,5.92,0.98,11.79,1.05,17.61c0.06,5.83-0.18,11.52-0.73,17.06
			c-0.56,5.55-1.58,10.82-3.05,15.82c-0.06,1.39-0.02,2.59,0.13,3.61c0.15,1.02,0.79,1.55,1.93,1.6c1.34-1.84,2.94-2.98,4.8-3.4
			c1.85-0.43,3.82-0.6,5.91-0.51c2.09,0.09,4.17,0.21,6.25,0.36c2.08,0.15,4.09-0.05,6.01-0.6c0.58,1.29,0.93,1.91,1.06,1.85
			c0.13-0.06,0.3-0.4,0.52-1.02c0.22-0.63,0.56-1.31,1.04-2.04c0.47-0.74,1.34-1.08,2.61-1.03l-2.37-2.38
			c0.69-1.24,1.61-2.18,2.78-2.82c1.17-0.65,2.46-1.19,3.87-1.64c1.41-0.45,2.88-0.83,4.42-1.14c1.53-0.31,2.94-0.76,4.24-1.34
			c0.77-3.13,0.91-6.42,0.42-9.86c-0.49-3.44-0.97-6.91-1.45-10.41c-0.48-3.5-0.65-6.96-0.5-10.37c0.15-3.41,1.24-6.72,3.28-9.93
			c3.69,5.48,7.32,10.76,10.9,15.85c3.58,5.09,7.09,10.18,10.55,15.27c0.6,0.66,1.17,1.47,1.7,2.45c0.53,0.97,0.83,1.94,0.92,2.89
			c0.08,0.95-0.08,1.87-0.5,2.73c-0.42,0.87-1.28,1.65-2.57,2.36c-2.42-2.76-4.39-5.54-5.91-8.33c-1.53-2.79-2.96-5.54-4.3-8.26
			c-1.34-2.72-2.69-5.31-4.03-7.77c-1.35-2.46-2.93-4.69-4.75-6.66l-2.46-0.11l-0.11,2.46c1.81,1.98,3.36,4.17,4.66,6.56
			c1.29,2.4,2.51,4.89,3.67,7.47c1.15,2.58,2.34,5.13,3.56,7.66c1.22,2.52,2.74,4.77,4.55,6.75c-0.05,1.26-0.01,2.5,0.13,3.71
			c0.14,1.21,0.87,2.54,2.2,3.99c1.92-0.55,3.96-0.84,6.12-0.88c2.15-0.04,4.39,0.09,6.73,0.38c2.33,0.29,4.75,0.61,7.27,0.98
			c2.52,0.36,5.04,0.6,7.57,0.71c0.69-1.24,1.41-2.6,2.17-4.09c0.76-1.49,1.65-2.94,2.66-4.35c1.01-1.41,2.17-2.69,3.49-3.84
			c1.31-1.15,2.93-1.99,4.86-2.54l-4.8-7.61C1079.34,456.63,1074.83,448.3,1069.08,440.65z M990.13,483.31
			c-1.56,0.94-3,2.02-4.32,3.23c2.28-8.77,3.48-17.58,3.61-26.44c0.13-8.86-0.15-17.8-0.84-26.82c-0.69-9.02-1.44-18.11-2.25-27.26
			c-0.81-9.15-1.01-18.47-0.6-27.95l0.32-7.39l10.62-17.21l-1.72,40c-0.3,6.95-0.08,13.67,0.65,20.16
			c0.73,6.49,1.53,12.92,2.4,19.29c0.87,6.37,1.54,12.76,2.02,19.18c0.48,6.42,0.26,13.02-0.66,19.82c-0.08,1.9-0.6,3.52-1.54,4.87
			c-0.95,1.35-2.07,2.54-3.38,3.56C993.12,481.38,991.69,482.36,990.13,483.31z M1010.69,482.11c-0.53,0.61-1.16,1.21-1.88,1.82
			c-0.72,0.6-1.35,1.21-1.88,1.82c-0.53,0.61-0.81,1.17-0.83,1.67l-12.7-0.55c0.02-0.51,0.33-0.94,0.91-1.29
			c0.58-0.36,1.2-0.68,1.85-0.97c0.64-0.29,1.26-0.61,1.85-0.96c0.58-0.36,0.89-0.85,0.92-1.48l12.62-1.93
			C1011.51,480.87,1011.22,481.49,1010.69,482.11z M1076.88,477.93c-0.37,1.12-0.92,2.14-1.65,3.06c-0.74,0.92-1.59,1.61-2.56,2.07
			c-0.97,0.46-2.08,0.35-3.31-0.33c-1.29,0.58-2.7,0.86-4.22,0.86c-1.52,0-3.07-0.1-4.64-0.29c-1.58-0.2-3.11-0.45-4.62-0.77
			c-1.51-0.32-2.89-0.5-4.15-0.56c0.08-1.9,0.67-3.11,1.77-3.63c1.1-0.52,2.44-0.75,4.02-0.68c1.58,0.07,3.22,0.2,4.92,0.4
			c1.7,0.2,3.2-0.05,4.5-0.76l10.53-2.02C1077.44,475.93,1077.24,476.8,1076.88,477.93z M1072.84,470.15
			c-2.24,0.54-4.38,1.05-6.43,1.53c-2.05,0.48-4.02,0.68-5.91,0.6c-1.9-0.08-3.75-1.11-5.57-3.09c-3.53-6.35-7.48-12.35-11.86-17.98
			c-4.38-5.63-8.39-11.76-12.03-18.37c-1.27-0.05-2.14-0.31-2.63-0.78c-0.49-0.46-0.85-0.95-1.08-1.47c-0.23-0.51-0.6-0.85-1.1-1
			c-0.5-0.15-1.4,0.01-2.68,0.46c-0.03,0.63,0.06,1.4,0.28,2.29c0.21,0.9,0.36,1.91,0.44,3.06c0.08,1.14,0.05,2.38-0.06,3.7
			c-0.12,1.32-0.52,2.61-1.21,3.84c-1.37,2.48-2.08,4.94-2.12,7.41c-0.04,2.47,0.13,4.98,0.53,7.52c0.39,2.55,0.73,5.1,1,7.64
			c0.27,2.55,0.04,5-0.7,7.38c-2.64,2.55-5.74,3.96-9.3,4.25c-3.56,0.29-7.17,0.36-10.84,0.2c1.51-5.63,2.32-11.3,2.44-16.99
			c0.12-5.69-0.02-11.4-0.4-17.11c-0.39-5.71-0.81-11.43-1.26-17.15c-0.45-5.72-0.56-11.36-0.32-16.92
			c-0.83-10.16-1.13-20.15-0.9-29.95c0.23-9.8,0.54-19.13,0.92-27.98c2.64-2.42,5.29-3.79,7.96-4.12c2.67-0.33,5.91-0.41,9.7-0.25
			c0.44,4.45,0.76,8.74,0.97,12.86c0.2,4.12,0.43,8.25,0.7,12.38c0.26,4.13,0.66,8.26,1.18,12.4c0.52,4.14,1.31,8.45,2.39,12.92
			c-0.11,2.53-0.14,5.47-0.09,8.83c0.05,3.36,0.64,6.33,1.8,8.91c6.72-6.04,12.83-12.05,18.34-18.01
			c5.51-5.96,10.93-12.07,16.27-18.29c0.45,1.29,1.1,2.45,1.94,3.5c0.84,1.05,1.62,2.06,2.34,3.04c0.72,0.98,1.34,1.99,1.86,3.02
			c0.53,1.04,0.76,2.19,0.71,3.45c-2.61,1.79-4.95,3.84-7.01,6.16c-2.06,2.32-4.06,4.67-6,7.05c-1.94,2.39-3.97,4.74-6.1,7.05
			c-2.13,2.32-4.43,4.37-6.91,6.16l2.35,2.76c4.19,2.72,8.1,5.95,11.74,9.72c3.64,3.76,6.91,7.86,9.82,12.29
			c2.91,4.43,5.53,8.97,7.87,13.63c2.33,4.66,4.35,9.18,6.06,13.56C1077.45,469.66,1075.08,469.62,1072.84,470.15z"/>
		<path class="st2" d="M1155.68,403.25c-1.31-0.56-2.75-0.85-4.33-0.85c-1.58,0-3.08,0.28-4.5,0.85c-1.43,0.7-2.8,1.65-4.11,2.86
			c-1.32,1.21-2.43,2.65-3.32,4.32c-0.9,1.67-1.51,3.48-1.85,5.43c-0.34,1.95-0.24,3.95,0.31,6c1.33,1.45,2.81,2.31,4.45,2.57
			c1.63,0.26,3.41,0.24,5.32-0.06c1.91-0.3,3.86-0.66,5.84-1.08c1.98-0.42,3.98-0.59,6-0.5l0.58-13.46
			c0.06-1.39-0.33-2.61-1.17-3.66C1158.06,404.62,1156.99,403.82,1155.68,403.25z M1143.49,419.44l-2.43-5.42
			c1.39,0.06,2.69,0.66,3.91,1.78c1.22,1.13,2.49,2.42,3.82,3.87L1143.49,419.44z M1156.06,414.29c-0.17,0.88-0.36,1.66-0.58,2.35
			c-0.22,0.69-0.59,1.11-1.1,1.28c-0.52,0.17-1.39-0.09-2.63-0.78l-5.26-5.73c0.05-1.26,0.67-2.22,1.83-2.86
			c1.17-0.64,2.41-0.94,3.74-0.88c1.33,0.06,2.54,0.46,3.65,1.2c1.11,0.74,1.63,1.75,1.58,3.01
			C1156.64,412.6,1156.22,413.41,1156.06,414.29z"/>
		<path class="st2" d="M1193.99,424.56c-0.73-3.64-1.62-7.25-2.67-10.85c-1.05-3.59-2.42-7.1-4.11-10.53
			c-1.69-3.43-4.18-6.54-7.48-9.34c-3.33-2.17-6.93-3.84-10.8-5.02c-3.88-1.18-7.83-1.95-11.87-2.32
			c-4.04-0.36-8.03-0.28-11.98,0.24c-3.95,0.53-7.66,1.35-11.12,2.47c-0.66,0.61-1.39,1.36-2.19,2.28c-0.8,0.92-1.62,1.67-2.47,2.27
			c-0.85,0.6-1.82,1-2.9,1.21c-1.09,0.21-2.25-0.03-3.48-0.72c-5.73,6.59-11.22,13.57-16.48,20.94s-9.42,14.41-12.49,21.12
			c-0.17,4.05-0.44,8.09-0.81,12.12c-0.36,4.04-0.53,7.99-0.51,11.85c0.02,3.87,0.37,7.65,1.03,11.35c0.66,3.7,1.93,7.3,3.81,10.8
			c3.87,4.22,8.07,8.2,12.59,11.94c4.52,3.74,9.36,6.92,14.5,9.55c5.14,2.62,10.57,4.47,16.29,5.54c5.71,1.07,11.64,1.04,17.76-0.09
			c2.77-2.54,5.57-5.21,8.42-8c2.84-2.79,5.68-6.15,8.51-10.08c2.69-0.64,4.41-1.74,5.17-3.29c0.76-1.55,1.09-3.34,0.99-5.37
			c-0.1-2.03-0.3-4.16-0.58-6.39c-0.28-2.23,0-4.34,0.84-6.33c-0.73-0.79-1.14-1.5-1.24-2.14c-0.1-0.64-0.23-1.21-0.4-1.73
			c-0.17-0.51-0.47-0.94-0.9-1.27c-0.43-0.33-1.34-0.53-2.73-0.59c-1.48,1.96-3.18,3.31-5.11,4.05c-1.93,0.74-4.01,1.16-6.23,1.25
			c-2.22,0.09-4.46,0-6.73-0.29c-2.27-0.29-4.41-0.48-6.43-0.56c-1.33-1.45-2.77-2.62-4.31-3.51c-1.55-0.89-2.96-1.77-4.25-2.65
			c-1.29-0.88-2.36-1.94-3.19-3.18c-0.83-1.24-1.21-2.87-1.12-4.89c5.43,0.23,10.72,0.37,15.84,0.4c5.13,0.03,9.74-0.56,13.85-1.78
			c3.35,1.54,6.03,1.84,8.03,0.92c2-0.93,3.81-2.37,5.41-4.33c1.6-1.96,3.28-4.07,5.02-6.34c1.74-2.27,3.97-4.04,6.69-5.32
			c0.38,0.02,0.83-0.09,1.34-0.32c0.26-0.24,0.56-0.51,0.89-0.82c0.33-0.3,0.51-0.83,0.54-1.59
			C1195.7,431.76,1194.71,428.2,1193.99,424.56z M1164.12,498.49c-2.57,2.36-5.28,4.17-8.12,5.44c-12.25,2.13-23.1,0.53-32.56-4.82
			c-9.46-5.35-18-13.63-25.62-24.84c-0.46-4.07-0.96-8.56-1.51-13.46c-0.55-4.9-0.66-9.78-0.32-14.64
			c0.33-4.86,1.42-9.53,3.26-14.01c1.84-4.48,4.85-8.34,9.05-11.58c-0.91,3.38-2.01,6.88-3.3,10.49c-1.29,3.62-2.34,7.28-3.13,10.98
			c-0.79,3.7-1.17,7.36-1.14,10.97c0.03,3.61,0.99,7.17,2.87,10.66c3.81,5.61,8.29,10.39,13.44,14.35
			c5.15,3.96,10.62,7.07,16.41,9.35c5.79,2.27,11.83,3.74,18.14,4.39c6.3,0.65,12.52,0.41,18.64-0.72
			C1168.73,493.65,1166.69,496.13,1164.12,498.49z M1181.66,444.07c-1.4,1.71-2.86,3.93-4.37,6.65c-2.68,0.52-5.67,0.77-8.96,0.75
			c-3.29-0.01-6.61-0.09-9.96-0.24c-3.35-0.14-6.67-0.22-9.96-0.24c-3.29-0.01-6.28,0.24-8.96,0.75c0.05-1.26-0.13-2.82-0.56-4.68
			c-0.43-1.85-0.7-3.54-0.83-5.07c-0.12-1.52,0.12-2.68,0.72-3.48c0.6-0.8,1.9-0.83,3.9-0.12c6.83,0.29,14.05,0.16,21.67-0.4
			c7.62-0.56,14.84-0.69,21.67-0.4C1184.51,440.2,1183.06,442.36,1181.66,444.07z M1177.4,432.58c-4.76,0.36-9.53,0.79-14.3,1.28
			c-4.77,0.49-9.54,0.92-14.3,1.28c-4.76,0.36-9.49,0.45-14.16,0.25c-0.69,1.37-1.14,2.83-1.33,4.41c-0.2,1.58-0.23,3.22-0.12,4.93
			c0.12,1.71,0.26,3.4,0.45,5.05c0.18,1.65,0.25,3.11,0.19,4.38c1.21,4.11,3.57,7.59,7.05,10.46c3.48,2.87,7.22,5.09,11.2,6.66
			c1.99,0.72,4.12,1.29,6.38,1.7c2.26,0.41,4.5,0.57,6.72,0.48c2.22-0.09,4.29-0.42,6.21-0.97c1.92-0.55,3.61-1.49,5.06-2.82
			c-0.06,1.39,0.01,2.6,0.22,3.62c0.21,1.02,0.39,2.04,0.53,3.06c0.15,1.02,0.13,2.06-0.04,3.13c-0.17,1.07-0.61,2.29-1.3,3.65
			c-3.5,1.88-7.1,3.11-10.8,3.71c-3.7,0.6-7.5,0.72-11.41,0.36c-3.91-0.36-7.84-1.07-11.78-2.12c-3.94-1.06-7.91-2.36-11.89-3.93
			c-2-0.72-4.23-1.8-6.7-3.23c-2.47-1.44-4.87-3.15-7.19-5.15c-2.32-2-4.35-4.21-6.08-6.62c-1.73-2.42-2.86-4.97-3.37-7.65
			c0.89-6.04,1.67-12.3,2.33-18.8c0.66-6.49,1.88-12.77,3.66-18.84c1.78-6.06,4.49-11.61,8.12-16.65
			c3.63-5.03,8.87-9.11,15.72-12.24c4.1-1.09,8.72-1.78,13.86-2.06c5.14-0.28,10.12,0.28,14.93,1.69c4.81,1.41,9.2,3.82,13.17,7.21
			c3.97,3.4,6.83,8.18,8.59,14.33c0.57,1.42,1.01,2.96,1.32,4.62c0.31,1.66,0.62,3.35,0.92,5.07c0.31,1.72,0.61,3.42,0.92,5.07
			c0.31,1.66,0.75,3.14,1.33,4.43C1186.88,432.14,1182.17,432.22,1177.4,432.58z"/>
	</g>
	<g>
		<path class="st2" d="M1310.73,344.27c-3.39-0.26-6.8-0.83-10.22-1.72c-3.43-0.89-6.82-1.66-10.19-2.34
			c-3.37-0.67-6.81-0.69-10.32-0.05c-1.76,1.57-3.21,3.37-4.37,5.39c-1.15,2.02-2.35,4.08-3.58,6.16c-1.23,2.09-2.63,4.13-4.2,6.13
			c-1.57,2-3.72,3.75-6.44,5.27l-6.18,54.7c-0.33,5.96-1.19,11.92-2.56,17.89c-1.38,5.97-2.79,12.01-4.24,18.11
			c-1.46,6.11-2.64,12.4-3.56,18.88c-0.92,6.48-1.15,13.14-0.7,19.98c-0.15,2.63-0.43,5.19-0.84,7.67
			c-0.42,2.48-0.69,4.89-0.82,7.25c-0.13,2.35,0.02,4.62,0.45,6.8c0.43,2.18,1.44,4.15,3.01,5.9c0.98-2.59,2.11-4.19,3.4-4.81
			c1.29-0.63,2.68-0.79,4.2-0.5c1.51,0.29,3.08,0.8,4.71,1.51c1.63,0.72,3.27,1.12,4.94,1.21c3.46,0.19,6.33,0.49,8.6,0.9
			c2.27,0.4,5.02,1.6,8.24,3.59l22.32-26.28c0.92-1.62,1.8-2.37,2.63-2.25c0.83,0.11,1.65,0.4,2.45,0.87
			c0.81,0.46,1.66,0.75,2.56,0.87c0.9,0.12,1.81-0.63,2.73-2.25c0.67-12.06,1.16-23.91,1.46-35.57c0.3-11.66,0.54-23.39,0.71-35.2
			c0.17-11.8,0.42-23.74,0.75-35.82c0.32-12.08,0.85-24.56,1.57-37.44c0.05-0.83,0.43-1.5,1.16-2.02c0.72-0.51,1.41-0.96,2.06-1.34
			c0.65-0.38,1.12-0.8,1.43-1.28c0.3-0.47,0.06-1.14-0.72-2.02C1317.6,343.93,1314.12,344.53,1310.73,344.27z M1250.46,503.44
			c0.29-5.13,0.41-10.47,0.37-16.03c-0.04-5.56,0-11.15,0.1-16.78c0.1-5.62,0.38-11.17,0.82-16.63c0.44-5.47,1.22-10.74,2.34-15.82
			c2.04-6.69,3.48-13.78,4.31-21.23c0.83-7.46,1.87-14.91,3.12-22.34c1.25-7.44,3.14-14.66,5.69-21.68
			c2.55-7.01,6.55-13.36,12.01-19.03c-1.31,8.55-2.32,17.25-3.02,26.1c-0.7,8.86-1.41,17.78-2.12,26.78
			c-0.71,9-1.63,17.94-2.75,26.85c-1.12,8.9-2.75,17.54-4.88,25.89c2.63,0.15,4.11,0.44,4.43,0.87c0.32,0.43,0.25,1.09-0.21,1.97
			c-0.47,0.88-0.98,1.96-1.54,3.25c-0.56,1.29-0.47,2.79,0.27,4.5c-3.56,1.47-5.57,3.79-6.02,6.96c-0.46,3.17,0.06,6.47,1.53,9.89
			L1250.46,503.44z M1294.12,498.26c-1.52,2.34-3.11,4.62-4.76,6.82c-1.65,2.2-3.44,4.26-5.35,6.17c-1.91,1.91-4.14,3.21-6.68,3.9
			c-5.27-0.29-9.7-1.13-13.31-2.51c-3.61-1.38-7.21-2.17-10.81-2.38c0.09-1.66,0.61-3.48,1.55-5.44c0.94-1.96,2.23-3.87,3.86-5.73
			c1.63-1.86,3.57-3.52,5.8-4.99c2.24-1.47,4.63-2.56,7.17-3.25l27.44,1.53C1297.28,493.95,1295.64,495.91,1294.12,498.26z
			 M1310.47,393.88c-0.38,10.61-0.66,21.16-0.83,31.65c-0.17,10.49-0.43,20.83-0.79,31.02c-0.36,10.2-1.22,19.91-2.56,29.15
			l-37.62-2.1l0.37-6.65l3.33,0.19c0.19-3.46,1.14-7.44,2.85-11.93c1.71-4.49,3.56-8.35,5.55-11.57c-1.7-1.9-2.82-3-3.36-3.31
			c-0.54-0.31-1.71-0.51-3.51-0.61c2.28-8.49,3.76-17.02,4.45-25.61c0.69-8.58,1.17-17.24,1.45-25.98
			c0.28-8.74,0.6-17.65,0.97-26.74c0.37-9.08,1.23-18.31,2.59-27.69c1.6,1.2,3.64,1.98,6.12,2.32c2.48,0.35,5.08,0.56,7.78,0.64
			c2.71,0.08,5.3,0.23,7.79,0.43c2.49,0.21,4.58,0.78,6.26,1.71c1.68,0.93,2.75,2.45,3.19,4.56c0.44,2.11-0.01,5.14-1.34,9.1
			C1311.75,372.79,1310.85,383.27,1310.47,393.88z"/>
		<path class="st2" d="M1445.92,492.34c-0.01-1.04,0.01-2.08,0.07-3.12c0.06-1.04,0.04-2.08-0.03-3.13
			c-0.08-1.05-0.38-1.93-0.89-2.66c0.36-6.37,0.97-13.04,1.85-20.02c0.87-6.97,1.51-13.92,1.89-20.85
			c0.39-6.93,0.28-13.75-0.32-20.45c-0.6-6.71-2.2-12.98-4.79-18.82c-3.92-4.52-8.7-7.92-14.34-10.18
			c-5.64-2.26-11.96-4.21-18.96-5.85c-2.95,0.53-5.59,1.7-7.91,3.52c-2.33,1.82-4.43,3.92-6.29,6.32c-1.87,2.4-3.64,4.87-5.31,7.42
			c-1.67,2.55-3.26,4.82-4.76,6.82l-2.7-0.15c0.15-2.77,0.2-6.07,0.14-9.9c-0.07-3.82-0.78-7.17-2.15-10.02
			c-1.39-0.08-2.94-0.3-4.65-0.68c-1.72-0.37-3.44-0.61-5.17-0.71c-1.73-0.1-3.48,0.09-5.24,0.54c-1.76,0.46-3.38,1.41-4.85,2.86
			c-0.08,1.39-0.6,2.61-1.56,3.67c-0.96,1.06-2.1,2.07-3.4,3.04c-1.31,0.97-2.65,2.01-4.03,3.11c-1.38,1.11-2.53,2.33-3.44,3.67
			c0.4,7.81-0.56,14.98-2.87,21.52c-2.31,6.54-4.79,12.94-7.43,19.18c-2.64,6.25-4.95,12.65-6.91,19.21
			c-1.97,6.56-2.47,13.76-1.52,21.6c-0.24,4.29-0.38,8.6-0.41,12.9c-0.03,4.31,0.59,8.65,1.88,13.03c1.52,0.08,2.4-0.01,2.62-0.27
			c0.22-0.27,0.38-1.16,0.46-2.68c0.77-1.35,1.82-2.09,3.15-2.22c1.33-0.13,2.78-0.05,4.36,0.24c1.58,0.3,3.2,0.6,4.85,0.9
			c1.65,0.3,3.19,0.14,4.61-0.47c0.87-0.65,1.83-1.01,2.88-1.09c1.05-0.08,2.09-0.09,3.13-0.03c1.04,0.06,2.08,0.04,3.13-0.03
			c1.05-0.08,1.93-0.45,2.67-1.1c0.77-1.35,1.9-2.99,3.4-4.92c1.5-1.93,3.16-3.75,5-5.45c1.83-1.71,3.82-3.12,5.97-4.25
			c2.15-1.13,4.26-1.64,6.34-1.52c0.93-4.25,1.3-8.37,1.11-12.34c-0.2-3.97-0.43-7.91-0.7-11.82c-0.27-3.9-0.36-7.87-0.27-11.9
			c0.08-4.03,0.94-8.15,2.57-12.37c0.04-0.69,0.12-1.52,0.24-2.49c0.12-0.96,0.38-1.86,0.77-2.67c0.39-0.81,1.02-1.51,1.89-2.08
			c0.87-0.58,2.06-0.82,3.59-0.74c2.69,1.54,5.18,3.73,7.45,6.57c2.27,2.84,4.18,6,5.73,9.49c1.54,3.49,2.73,7.17,3.55,11.04
			c0.83,3.87,1.14,7.54,0.95,11c0.58,2.12,0.69,4.42,0.35,6.9c-0.35,2.48-0.87,5.03-1.57,7.63c-0.7,2.6-1.41,5.31-2.12,8.12
			c-0.71,2.81-1.15,5.67-1.31,8.58c-0.7-0.04-0.94,0.08-0.75,0.37c0.19,0.29,0.45,0.61,0.78,0.98c0.33,0.36,0.55,0.69,0.68,0.98
			c0.12,0.28-0.16,0.41-0.85,0.37l-0.32,5.82c1.52,0.08,3.46-0.3,5.8-1.14c2.34-0.84,4.27-1.22,5.8-1.14
			c2.83,1.55,5.53,1.84,8.08,0.87c2.56-0.97,5.04-2.43,7.44-4.38c2.4-1.95,4.74-4.11,7.03-6.49c2.29-2.37,4.51-4.26,6.68-5.67
			C1446.27,494.21,1445.93,493.39,1445.92,492.34z M1339.04,498.47c-1,1.68-2.23,3.18-3.69,4.49c-0.89-11.59,0.19-23.41,3.23-35.47
			c3.03-12.06,7.09-23.72,12.17-34.97l4.51-28.52l2.49,0.14c-0.36,6.51-1.01,13.11-1.94,19.8c-0.93,6.69-1.94,13.52-3.02,20.47
			c-1.08,6.96-2.1,13.96-3.05,20.99c-0.95,7.04-1.62,14.16-2.03,21.36c-1.43,0.62-2.59,1.52-3.49,2.72c-0.9,1.2-1.74,2.58-2.52,4.13
			C1340.92,495.17,1340.03,496.79,1339.04,498.47z M1363.5,499.11c-0.9,1.2-1.84,2.4-2.81,3.6c-0.97,1.2-2.1,2.21-3.4,3.04
			c-1.3,0.83-3.06,1.18-5.27,1.06l-10.85-3.52l6.25-11.12c0.57,2.25,1.37,3.41,2.41,3.47c1.04,0.06,2.09-0.13,3.16-0.55
			c1.07-0.43,2.13-0.79,3.19-1.07c1.06-0.29,1.89,0.35,2.5,1.91l8.52,0.48C1365.63,497,1364.4,497.91,1363.5,499.11z M1414.42,459.1
			c-1.23-4.17-2.78-8.11-4.66-11.83c-1.22-2.99-3.12-6.33-5.7-10.01c-2.58-3.69-5.97-6.41-10.18-8.18c0.69,0.04,1.4-0.2,2.13-0.72
			c0.72-0.51,1.55-1.13,2.5-1.84c0.94-0.71,1.95-1.31,3.02-1.81c1.07-0.49,2.36-0.7,3.89-0.62c3.46,0.19,6.29,1.29,8.47,3.29
			c2.18,2,3.92,4.46,5.22,7.38c1.3,2.92,2.27,6.07,2.91,9.44s1.31,6.47,1.98,9.28l-1.91,34.3c-1.57,0.75-2.8,1.58-3.68,2.51
			c-0.89,0.92-1.63,1.79-2.23,2.59c-0.6,0.8-1.13,1.5-1.58,2.1c-0.45,0.6-1.02,0.88-1.71,0.84c1.58-3.38,2.66-7.15,3.24-11.29
			c0.58-4.14,0.74-8.37,0.5-12.69C1416.38,467.52,1415.64,463.27,1414.42,459.1z M1433.45,502.8c-1.87,2.26-4.22,4-7.07,5.24
			c-1.35-0.77-2.57-1.22-3.68-1.35c-1.11-0.13-2.18-0.16-3.23-0.08c-1.05,0.08-2.17,0.22-3.36,0.44c-1.19,0.21-2.49,0.28-3.87,0.2
			c0.2-3.61,1.27-6.01,3.22-7.22c1.94-1.21,4.28-1.92,7-2.11c2.72-0.2,5.53-0.18,8.44,0.05c2.91,0.23,5.42-0.01,7.55-0.73
			C1436.98,498.69,1435.32,500.54,1433.45,502.8z M1444.19,450.55c-0.54,7.13-1.18,14.18-1.91,21.16
			c-0.74,6.98-0.94,13.74-0.61,20.29l-14.48,1.69c0.36-6.37,0.61-12.86,0.77-19.45c0.16-6.59-0.2-13.15-1.09-19.66
			c-0.89-6.51-2.52-12.79-4.89-18.83c-2.37-6.04-5.92-11.69-10.62-16.96c-2.83-1.69-5.33-2.21-7.52-1.57
			c-2.19,0.64-4.31,1.81-6.35,3.5c-2.04,1.69-4.06,3.6-6.05,5.71c-1.99,2.11-4.14,3.8-6.43,5.06c-2.32,4.18-3.78,8.55-4.38,13.1
			c-0.6,4.55-0.83,9.27-0.68,14.14c0.15,4.88,0.29,9.81,0.42,14.83c0.14,5.01-0.28,9.99-1.25,14.94c-0.79-0.88-1.43-1.23-1.92-1.05
			c-0.5,0.18-1,0.5-1.51,0.96c-0.51,0.46-1.2,0.94-2.06,1.45c-0.86,0.51-1.99,0.72-3.37,0.65c-1.39-0.08-2.64-0.01-3.76,0.21
			c-1.13,0.22-2.25,0.4-3.37,0.54c-1.12,0.15-2.23,0.12-3.33-0.08c-1.1-0.2-2.33-0.68-3.67-1.46c0.44-0.39,0.81-0.79,1.11-1.19
			c0.6-0.8,0.28-1.24-0.97-1.31c0.05-0.83,0.07-1.28,0.08-1.35c0-0.07-0.1-0.01-0.32,0.19c-0.22,0.2-0.54,0.42-0.98,0.68
			c-0.43,0.26-1.06,0.36-1.89,0.31c0.32-5.68,0.97-11.83,1.97-18.45c1-6.62,2.07-13.51,3.24-20.67c1.16-7.16,2.26-14.4,3.3-21.71
			c1.03-7.31,1.75-14.57,2.15-21.77c0.08-1.38,0.29-3.25,0.63-5.59c0.34-2.34,1.24-4.1,2.69-5.27c3.8-0.76,6.58-0.81,8.35-0.16
			c1.77,0.66,2.96,1.8,3.56,3.43c0.6,1.63,0.88,3.52,0.83,5.68c-0.05,2.15-0.03,4.34,0.05,6.57c0.08,2.23,0.49,4.34,1.21,6.32
			c0.72,1.99,2.24,3.46,4.55,4.42c1.54-2.69,3.15-5.38,4.83-8.07c1.68-2.68,3.45-5.23,5.33-7.63c1.87-2.4,3.97-4.57,6.31-6.53
			c2.33-1.95,4.99-3.54,7.98-4.77c5.68,0.32,11.15,1.91,16.41,4.77c5.26,2.87,9.99,6.57,14.18,11.11
			c2.41,6.67,3.73,13.52,3.96,20.55C1444.87,436.34,1444.72,443.42,1444.19,450.55z"/>
	</g>
</g>
<g id="Layer_2" class="st3">
	<rect x="420.02" y="1.83" class="st4" width="1079.96" height="1079.96"/>
</g>
</svg>
